<?xml version="1.0" standalone="no"?> <!DOCTYPE svg PUBLIC "-//W3C//DTD SVG 1.0//EN" "http://www.w3.org/TR/2001/REC-SVG-20010904/DTD/svg10.dtd" > <svg xmlns="http://www.w3.org/2000/svg" width="100%" height="100%">
<defs >
<font id="GrundfosTheSansV2SemiLight" horiz-adv-x="641" ><font-face
    font-family="Grundfos TheSans V2"
    units-per-em="1000"
    panose-1="2 11 4 3 4 3 3 6 2 4"
    ascent="980"
    descent="-320"
    alphabetic="0" />
<missing-glyph horiz-adv-x="550" d="M450 100V450H100V100H450ZM250 350V400H400V150H350V250H250V300H350V350H250ZM50 50V500H500V50H50ZM150 150V400H200V200H300V150H150Z" />
<glyph unicode="&#xd;" glyph-name="CR" horiz-adv-x="500" />
<glyph unicode=" " glyph-name="space" horiz-adv-x="218" />
<glyph unicode="!" glyph-name="exclam" horiz-adv-x="319" d="M222 44Q222 22 207 7T169 -8Q146 -8 131 7T116 44Q116 67 131 82T169 97Q192 97 207 82T222 44ZM200 160H138L124 701H214L200 160Z" />
<glyph unicode="&quot;" glyph-name="quotedbl" horiz-adv-x="350" d="M123 478H69L55 698H137L123 478ZM282 478H227L214 698H295L282 478Z" />
<glyph unicode="#" glyph-name="numbersign" horiz-adv-x="574" d="M440 436L419 246H516V194H414L394 0H333L353 194H191L171 0H110L130 194H34V246H136L157 436H59V487H161L182 675H243L222 487H384L404 675H465L445 487H539V436H440ZM218 436L197 246H358L379
436H218Z" />
<glyph unicode="$" glyph-name="dollar" horiz-adv-x="488" d="M430 205Q430 136 386 88T261 25V-108H204V22Q167 22 138 25T79 37L83 109Q96 104 112 100T147 92T182 88T215 86Q244 86 269 92T312 111T341 144T352 194Q352 230 331 252T277 289T207 319T137 353T84
405T62 486Q62 551 106 595T224 650V757H282V653Q312 652 339 649T388 641L383 573Q356 581 327 586T269 591Q232 591 207 583T166 562T144 531T137 496Q137 461 158 440T213 402T283 372T354 336T408 285T430 205Z" />
<glyph unicode="%" glyph-name="percent" horiz-adv-x="746" d="M267 528Q267 580 249 606T188 632Q153 632 132 605T111 532Q111 479 130 453T191 426Q225 426 246 454T267 528ZM635 145Q635 198 617 223T556 249Q521 249 500 222T479 149Q479 96 498 70T560
43Q593 43 614 71T635 145ZM331 535Q331 464 292 419T184 374Q112 374 80 413T47 525Q47 559 57 588T86 638T132 672T194 684Q265 684 298 646T331 535ZM149 -20L99 15L595 693L644 659L149 -20ZM699 152Q699 117 689 88T660 37T614 3T552 -9Q480 -9 448 31T415
143Q415 177 425 206T454 256T500 290T562 302Q633 302 666 263T699 152Z" />
<glyph unicode="&amp;" glyph-name="ampersand" horiz-adv-x="794" d="M490 132Q456 159 421 188T353 247T291 305T240 356Q204 327 181 301T147 249T136 192Q136 162 146 137T177 94T226 65T292 55Q323 55 351 61T405 77T451 102T490 132ZM355 595Q355 631 334
654T269 677Q231 677 207 653T182 592Q182 562 198 527T255 444Q289 470 310 494T343 543T355 595ZM686 -18Q649 10 612 38T543 92Q518 69 489 51T427 19T356 -1T278 -9Q226 -9 185 4T116 44T74 105T59 183Q59 228 77 266T125 335T199 401Q174 430 157 455T128
503T112 547T107 588Q107 618 118 644T151 691T205 723T277 735Q349 735 389 699T429 604Q429 568 416 536T373 472T296 402Q318 379 347 352T408 297T474 241T541 187Q552 202 562 219T580 256T594 298T605 343T610 392T610 443H686Q687 409 684 376T673 312T654
251T627 196T594 146Q626 121 662 94T732 41L686 -18Z" />
<glyph unicode="&apos;" glyph-name="quotesingle" horiz-adv-x="192" d="M123 478H69L55 698H137L123 478Z" />
<glyph unicode="(" glyph-name="parenleft" horiz-adv-x="302" d="M223 -206Q178 -135 150 -70T105 57T84 174T78 284Q78 336 84 394T107 515T152 644T224 779L276 752Q213 646 182 529T150 289Q150 159 181 45T278 -179L223 -206Z" />
<glyph unicode=")" glyph-name="parenright" horiz-adv-x="302" d="M231 289Q231 236 224 178T201 57T156 -72T84 -206L32 -179Q95 -73 126 44T158 284Q158 413 127 528T31 751L86 779Q131 707 159 642T203 516T225 399T231 289Z" />
<glyph unicode="*" glyph-name="asterisk" horiz-adv-x="369" d="M293 486L200 551L210 438H152L162 551L69 486L41 536L144 584L41 632L70 681L162 617L153 730H210L201 617L294 681L322 632L219 585L322 537L293 486Z" />
<glyph unicode="+" glyph-name="plus" horiz-adv-x="550" d="M310 266V59H239V266H43V329H239V535H310V329H507V266H310Z" />
<glyph unicode="," glyph-name="comma" horiz-adv-x="217" d="M106 99Q130 99 145 80T160 26T135 -52T58 -147L25 -118Q71 -66 78 -33T69 22Q60 34 59 47T63 72T80 91T106 99Z" />
<glyph unicode="-" glyph-name="hyphen" horiz-adv-x="328" d="M48 260V322H280V260H48Z" />
<glyph unicode="." glyph-name="period" horiz-adv-x="217" d="M163 46Q163 23 147 8T108 -8Q86 -8 70 8T54 46Q55 70 71 85T108 100Q131 100 147 84T163 46Z" />
<glyph unicode="/" glyph-name="slash" horiz-adv-x="428" d="M79 -161H8L358 757H429L79 -161Z" />
<glyph unicode="0" glyph-name="zero" horiz-adv-x="596" d="M457 336Q457 409 447 462T417 551T367 604T298 621Q263 621 235 605T185 556T151 468T139 339Q139 194 179 125T298 55Q333 55 361 70T411 120T445 208T457 336ZM537 344Q537 257 519 191T469 80T391
13T291 -9Q239 -9 197 9T124 66T76 172T59 331Q59 418 77 484T127 595T205 662T305 684Q357 684 399 666T472 609T520 503T537 344Z" />
<glyph unicode="1" glyph-name="one" horiz-adv-x="365" d="M190 0V600L34 541L20 606L205 676H267V0H190Z" />
<glyph unicode="2" glyph-name="two" horiz-adv-x="502" d="M62 0V63L198 223Q238 270 265 308T310 378T335 440T343 497Q343 550 311 584T218 618Q186 618 150 607T83 578L72 645Q110 664 150 674T235 684Q279 684 314 671T374 634T411 578T424 507Q424 474 415
440T387 367T335 285T257 189L153 68V67Q170 68 193 68T246 69T309 70T378 71T452 71V0H62Z" />
<glyph unicode="3" glyph-name="three" horiz-adv-x="483" d="M68 70Q92 64 122 60T182 56Q266 56 306 94T347 192Q347 253 300 288T162 323Q150 323 135 323T101 321V382Q216 380 268 413T321 513Q321 564 289 592T201 621Q168 621 138 613T80 591L70 654Q102
668 138 676T213 684Q261 684 296 672T354 638T388 587T400 525Q400 468 369 426T280 365V364Q347 350 387 307T428 198Q428 154 411 116T362 51T282 8T175 -8Q145 -8 114 -6T57 2L68 70Z" />
<glyph unicode="4" glyph-name="four" horiz-adv-x="542" d="M330 603H329L95 230Q124 231 169 232T254 233T330 233V603ZM404 166V0H330V166H24L19 224L303 675H404V234H522V166H404Z" />
<glyph unicode="5" glyph-name="five" horiz-adv-x="465" d="M428 213Q428 163 411 123T361 53T283 8T184 -8Q154 -8 122 -4T63 6L72 75Q99 67 129 62T191 57Q265 57 306 95T348 202Q348 271 301 307T160 343Q138 343 117 342T86 340V675H387V603H157V404Q294
410 361 358T428 213Z" />
<glyph unicode="6" glyph-name="six" horiz-adv-x="566" d="M459 611Q448 613 424 615T373 617Q320 617 281 603T218 564Q191 538 175 504T152 439T140 371T132 327H133Q154 368 200 393T306 419Q354 419 392 405T458 363T499 299T513 217Q513 169 497 128T450
56T377 8T286 -9Q239 -9 200 6T133 49Q96 86 79 146T61 298Q61 397 83 470T148 590T248 660T380 683Q407 683 430 681T464 678L459 611ZM434 206Q434 239 425 266T397 314T352 345T292 356Q226 356 187 315T147 208Q147 176 158 145T190 93Q208 75 233 65T292 55Q322
55 348 65T393 94T423 142T434 206Z" />
<glyph unicode="7" glyph-name="seven" horiz-adv-x="461" d="M432 610Q401 545 370 468T311 310T259 150T218 0H131Q152 79 179 164T237 331T295 482T348 604Q327 603 272 603T157 602T27 602V675H432V610Z" />
<glyph unicode="8" glyph-name="eight" horiz-adv-x="552" d="M411 160Q411 187 402 208T375 247T332 280T271 314Q238 296 215 280T175 246T150 208T141 162Q141 112 176 83T277 54Q306 54 330 61T373 81T401 114T411 160ZM401 524Q401 567 370 595T277 624Q220
624 186 598T152 527Q152 483 182 451T281 386Q346 421 373 453T401 524ZM490 166Q490 126 474 94T429 38T358 3T267 -9Q216 -9 178 3T114 38T75 90T62 156Q62 188 72 214T100 263T145 305T208 345Q138 382 106 423T74 521Q74 557 88 587T129 640T195 674T285 686Q331
686 367 675T428 642T465 593T478 532Q478 502 469 477T442 431T401 392T344 354Q381 335 408 316T453 274T481 225T490 166Z" />
<glyph unicode="9" glyph-name="nine" horiz-adv-x="566" d="M100 71Q124 66 155 63T215 59Q257 59 291 70T352 108Q379 136 393 169T415 236T425 298T434 348H433Q413 309 368 283T260 256Q212 256 174 271T108 312T67 376T53 458Q53 507 69 548T116 620T187
667T278 684Q328 684 367 668T432 625Q470 587 487 528T505 377Q505 262 479 187T406 66Q370 31 320 12T204 -7Q178 -7 149 -5T94 1L100 71ZM419 467Q419 499 408 529T375 581Q358 598 333 609T272 620Q242 620 217 610T173 581T143 533T132 469Q132 437 141 410T169
362T213 331T274 319Q342 319 380 360T419 467Z" />
<glyph unicode=":" glyph-name="colon" horiz-adv-x="282" d="M211 46Q211 23 196 8T157 -8Q134 -8 118 7T102 46Q102 69 118 84T157 100Q180 100 195 85T211 46ZM211 343Q211 320 196 304T157 288Q134 288 118 304T102 343Q102 366 118 381T157 397Q180 397 195
382T211 343Z" />
<glyph unicode=";" glyph-name="semicolon" horiz-adv-x="282" d="M156 99Q180 99 195 80T210 26T185 -52T108 -147L75 -118Q98 -93 110 -72T127 -33T129 -2T119 22Q110 34 109 47T113 72T130 91T156 99ZM211 343Q211 320 196 304T157 288Q134 288 118 304T102
343Q102 366 118 381T157 397Q180 397 195 382T211 343Z" />
<glyph unicode="&lt;" glyph-name="less" horiz-adv-x="550" d="M391 24L75 303L390 582L438 534L171 304L438 76L391 24Z" />
<glyph unicode="=" glyph-name="equal" horiz-adv-x="550" d="M57 185V247H493V185H57ZM57 347V410H493V347H57Z" />
<glyph unicode="&gt;" glyph-name="greater" horiz-adv-x="550" d="M160 24L112 72L379 303L112 531L159 582L475 304L160 24Z" />
<glyph unicode="?" glyph-name="question" horiz-adv-x="443" d="M244 44Q244 22 229 7T191 -8Q168 -8 153 7T138 44Q138 67 153 82T191 97Q214 97 229 82T244 44ZM378 518Q378 477 363 448T327 395T282 350T241 302T219 242T227 160H154Q138 211 142 247T162
312T200 363T244 408T280 454T295 510Q295 535 281 557T240 597T175 625T90 638L100 707Q165 705 216 689T304 647T359 588T378 518Z" />
<glyph unicode="@" glyph-name="at" horiz-adv-x="1024" d="M689 -130Q643 -143 590 -150T491 -158Q397 -158 322 -131T193 -52T113 72T85 233Q85 337 121 426T223 580T373 680T552 715Q646 715 718 687T839 611T911 499T935 366Q935 298 918 243T868 149T794
90T703 69Q670 69 646 79T608 108T588 149T585 196H583Q574 173 560 151T525 110T480 80T426 69Q372 69 341 108T310 217Q310 275 325 327T371 419T447 481T552 504Q584 504 615 501T669 494T691 490L648 266Q635 200 653 166T714 132Q747 132 774 147T822 193T854
265T866 361Q866 418 848 470T792 565T692 631T547 656Q466 656 395 626T269 539T185 407T155 243Q155 165 177 102T244 -5T352 -74T499 -98Q542 -98 587 -91T680 -72L689 -130ZM605 436Q603 436 599 437T585 439T564 442T537 443Q499 443 470 424T422 372T394
303T385 231Q385 182 399 157T445 132Q490 132 531 196T594 375L605 436Z" />
<glyph unicode="A" glyph-name="A" horiz-adv-x="611" d="M333 506Q324 533 317 554T303 599H302Q295 575 288 553T273 508L172 229H433L333 506ZM511 0L452 167H152L93 0H23H13L261 675H351L598 0H588H511Z" />
<glyph unicode="B" glyph-name="B" horiz-adv-x="566" d="M432 191Q432 223 421 246T387 286T327 310T238 319Q216 319 197 319T168 318V64Q181 62 208 61T260 59Q304 59 337 69T391 97T422 139T432 191ZM409 502Q409 528 402 548T377 584T331 609T257 618Q241
618 218 617T168 615V378Q182 377 196 377T241 377Q324 377 366 409T409 502ZM513 197Q513 163 500 128T456 64T375 16T253 -3Q224 -3 164 -2T91 0V675Q113 676 162 677T266 678Q379 678 434 635T489 514Q489 460 458 418T372 356V355Q404 350 430 337T474 304T503
257T513 197Z" />
<glyph unicode="C" glyph-name="C" horiz-adv-x="590" d="M544 36Q500 17 451 5T350 -7Q275 -7 218 16T124 82T68 186T49 322Q49 400 68 465T127 579T228 655T370 682Q411 682 455 674T536 651L521 582Q480 600 440 608T358 617Q301 617 258 596T186 535T145 445T131
335Q131 203 190 132T367 60Q405 60 449 71T529 100L544 36Z" />
<glyph unicode="D" glyph-name="D" horiz-adv-x="683" d="M553 339Q553 616 278 616Q254 616 236 616T168 613V67Q188 64 215 62T265 60Q330 60 382 77T473 128T532 215T553 339ZM633 344Q633 259 606 194T528 85T408 19T255 -3Q218 -3 165 -2T91 0V675Q115 675
182 676T286 678Q369 678 433 658T542 597T610 493T633 344Z" />
<glyph unicode="E" glyph-name="E" horiz-adv-x="514" d="M91 0V675H442V613H168V379H420V317H168V64H442V0H91Z" />
<glyph unicode="F" glyph-name="F" horiz-adv-x="472" d="M168 612V375H416V314H168V0H91V675H434V612H168Z" />
<glyph unicode="G" glyph-name="G" horiz-adv-x="685" d="M599 29Q548 10 491 1T379 -9Q304 -9 241 13T135 79T69 184T46 323Q46 403 70 470T141 586T253 659T404 684Q452 684 498 677T589 655L572 585Q528 602 485 610T395 619Q343 619 294 604T207 551T149 462T127
335Q127 268 145 217T198 129T282 75T391 57Q428 57 460 62T522 77V340H599V29V29Z" />
<glyph unicode="H" glyph-name="H" horiz-adv-x="702" d="M535 0V318H168V0H91V675H168V382H535V675H611V0H535Z" />
<glyph unicode="I" glyph-name="I" horiz-adv-x="259" d="M91 0V675H168V0H91Z" />
<glyph unicode="J" glyph-name="J" horiz-adv-x="345" d="M254 172Q254 85 211 39T81 -7Q63 -7 40 -5T1 1V70Q15 65 39 62T82 58Q105 58 122 63T151 82T171 118T178 177V675H254V172Z" />
<glyph unicode="K" glyph-name="K" horiz-adv-x="579" d="M455 0L168 339V0H91V675H168V352L456 675H549L250 350L561 0H455Z" />
<glyph unicode="L" glyph-name="L" horiz-adv-x="425" d="M91 0V675H168V64H418V0H91Z" />
<glyph unicode="M" glyph-name="M" horiz-adv-x="893" d="M760 0L702 419Q694 481 689 527T682 605H680Q674 581 665 549T642 479L473 0H403L244 453Q208 557 196 605H195Q193 566 189 520T178 414L130 0H53L142 675H247L409 218Q419 189 427 160T442 104H443Q449
135 457 164T475 218L636 675H746L839 0H760Z" />
<glyph unicode="N" glyph-name="N" horiz-adv-x="694" d="M528 0H525L260 416Q240 447 225 472T199 517T178 554T160 588H158Q159 558 160 510T163 407T165 294T166 190V0H91V675H166H188L438 282Q459 249 474 225T500 182T519 147T534 117H536Q534 151 533 197T530
295T529 400T528 503V675H603V0H528Z" />
<glyph unicode="O" glyph-name="O" horiz-adv-x="708" d="M582 333Q582 464 524 541T354 618Q306 618 265 600T192 547T144 460T126 343Q126 279 140 227T184 136T255 78T354 57Q402 57 443 75T516 128T564 215T582 333ZM662 346Q662 262 638 196T569 84T468 15T345
-9Q274 -9 218 14T124 82T66 189T46 329Q46 413 70 479T139 591T240 660T363 684Q434 684 490 661T584 593T642 486T662 346Z" />
<glyph unicode="P" glyph-name="P" horiz-adv-x="549" d="M434 459Q434 531 388 573T250 616Q225 616 202 616T168 614V305Q179 304 203 302T253 299Q341 299 387 344T434 459ZM513 471Q513 421 495 378T441 304T356 255T246 237Q208 237 168 240V0H91V675Q187
678 261 678Q325 678 373 662T452 617T498 551T513 471Z" />
<glyph unicode="Q" glyph-name="Q" horiz-adv-x="708" d="M707 -67Q667 -72 636 -70T581 -62T523 -43T473 -25T431 -14T370 -9H345Q274 -9 218 14T124 82T66 189T46 329Q46 413 70 479T139 591T240 660T363 684Q434 684 490 661T584 593T642 486T662 346Q662 301
655 260T633 184T598 119T551 68T492 33Q513 33 537 26T586 10T639 -1T707 0V-67ZM582 333Q582 464 524 541T354 618Q306 618 265 600T192 547T144 460T126 343Q126 279 140 227T184 136T255 78T354 57Q402 57 443 75T516 128T564 215T582 333Z" />
<glyph unicode="R" glyph-name="R" horiz-adv-x="564" d="M410 489Q410 551 369 584T250 617Q210 617 168 614V359Q178 359 200 359T246 358Q325 358 367 392T410 489ZM440 0L222 300H168V0H91V674Q113 675 160 676T258 678Q310 678 352 668T426 635T473 579T490
499Q490 455 476 421T435 363T376 326T303 307Q311 299 327 279T360 236L536 0H440Z" />
<glyph unicode="S" glyph-name="S" horiz-adv-x="504" d="M450 187Q450 144 434 109T387 47T311 6T207 -9Q168 -9 129 -4T58 11L69 84Q101 72 138 65T212 58Q247 58 276 65T326 86T358 124T370 179Q370 217 349 242T301 281T219 318T131 363T77 418T55 503Q55
543 70 576T115 633T188 671T284 684Q313 684 345 681T405 671L396 602Q368 610 338 615T278 620Q207 620 170 591T133 510Q133 473 154 449T202 411T284 374T374 329T428 273T450 187Z" />
<glyph unicode="T" glyph-name="T" horiz-adv-x="519" d="M297 611V0H221V611H19V675H500V611H297Z" />
<glyph unicode="U" glyph-name="U" horiz-adv-x="697" d="M606 256Q606 126 539 59T340 -9Q265 -9 216 10T139 62T102 135T91 224V675H168V231Q168 192 176 161T203 105T258 68T346 54Q441 54 486 99T531 250V675H606V256Z" />
<glyph unicode="V" glyph-name="V" horiz-adv-x="613" d="M350 0H260L14 675H100L261 223Q273 188 285 149T307 77H308Q317 110 330 148T357 227L518 675H598L350 0Z" />
<glyph unicode="W" glyph-name="W" horiz-adv-x="954" d="M733 0H636L498 474Q492 498 486 522T476 570H475Q465 511 455 474L320 0H223L38 675H120L247 210Q257 169 263 137T276 74H277Q284 111 291 142T306 205L440 675H517L657 197Q665 168 673 136T687 74H688Q692
102 697 129T710 185L841 675H916L733 0Z" />
<glyph unicode="X" glyph-name="X" horiz-adv-x="587" d="M472 0L289 291L108 0H20L244 349L34 675H122L291 408L457 675H543L337 353L567 0H472Z" />
<glyph unicode="Y" glyph-name="Y" horiz-adv-x="527" d="M301 264V0H225V264L4 675H89L212 443Q227 413 239 387T265 331H266Q279 360 292 389T321 445L442 675H523L301 264Z" />
<glyph unicode="Z" glyph-name="Z" horiz-adv-x="540" d="M46 0V56L345 521Q359 542 375 566T405 609Q373 608 335 608T247 607H57V675H492V618L177 132Q169 119 154 97T134 67Q149 69 188 69T311 70H495V0H46Z" />
<glyph unicode="[" glyph-name="bracketleft" horiz-adv-x="319" d="M92 -196V769H281V712H161V-138H281V-196H92Z" />
<glyph unicode="\" glyph-name="backslash" horiz-adv-x="427" d="M363 -161L13 757H84L434 -161H363Z" />
<glyph unicode="]" glyph-name="bracketright" horiz-adv-x="319" d="M39 -196V-138H158V712H39V769H228V-196H39Z" />
<glyph unicode="^" glyph-name="asciicircum" horiz-adv-x="550" d="M412 345L263 617L120 345L68 373L234 675H296L469 375L412 345Z" />
<glyph unicode="_" glyph-name="underscore" horiz-adv-x="550" d="M0 -250V-191H550V-250H0Z" />
<glyph unicode="`" glyph-name="grave" horiz-adv-x="350" d="M222 573L90 701L139 747L260 609L222 573Z" />
<glyph unicode="a" glyph-name="a" horiz-adv-x="520" d="M353 237Q289 237 245 229T174 207T137 174T125 134Q125 98 147 75T207 52Q238 52 265 66T312 105T342 160T353 222V237ZM356 0Q356 38 357 62T361 105H359Q350 81 334 61T295 24T245 0T186 -9Q126 -9
88 27T50 123Q50 201 129 246T353 292V322Q353 386 328 416T241 446Q207 446 167 437T90 411L76 470Q117 487 161 496T250 506Q299 506 333 494T388 460T418 405T428 332V149Q428 116 428 93T428 45T430 0H356Z" />
<glyph unicode="b" glyph-name="b" horiz-adv-x="558" d="M433 265Q433 350 405 397T314 444Q276 444 249 425T203 375T175 309T166 240V66Q208 53 263 53Q302 53 333 65T386 102T421 168T433 265ZM512 271Q512 205 494 153T443 66T362 13T256 -6Q205 -6 167 -2T91
13V730H166V478Q166 457 164 432T157 387L159 386Q181 443 225 474T329 506Q417 506 464 447T512 271Z" />
<glyph unicode="c" glyph-name="c" horiz-adv-x="440" d="M411 21Q379 8 339 1T259 -7Q214 -7 176 4T108 43T61 116T44 231Q44 292 59 342T105 429T179 484T281 504Q353 504 408 482L393 418Q366 429 335 435T272 442Q237 442 209 428T162 387T133 324T123 244Q123
203 130 170T155 112T201 72T274 57Q342 57 397 83L411 21Z" />
<glyph unicode="d" glyph-name="d" horiz-adv-x="558" d="M392 432Q341 444 294 444Q217 445 172 395T125 232Q125 147 154 100T244 53Q281 53 309 72T356 122T383 188T392 257V432ZM393 0Q393 23 395 54T402 108L400 109Q379 55 333 23T229 -9Q137 -9 92 54T46
226Q46 292 64 344T115 431T195 484T300 503Q322 503 344 502T392 498V730H467V0H393Z" />
<glyph unicode="e" glyph-name="e" horiz-adv-x="505" d="M379 305Q380 373 348 410T258 448Q205 448 169 411T124 305H379ZM456 303Q456 286 456 271T454 250H122Q121 149 161 101T284 53Q320 53 356 59T430 80L441 21Q353 -9 274 -9Q160 -9 102 54T44 246Q44
301 59 349T102 432T171 486T263 506Q313 506 350 491T410 447T445 382T456 303Z" />
<glyph unicode="f" glyph-name="f" horiz-adv-x="348" d="M378 663Q368 666 346 670T300 674Q243 674 217 640T190 533V497H337V438H190V0H115V438H7V497H115V529Q115 633 164 684T304 735Q344 735 385 727L378 663Z" />
<glyph unicode="g" glyph-name="g" horiz-adv-x="531" d="M426 -84Q426 -42 397 -19T302 6L216 9L190 11Q154 -11 136 -39T117 -97Q117 -121 127 -140T155 -172T200 -191T260 -198Q340 -198 383 -167T426 -84ZM375 329Q375 382 343 415T255 448Q200 448 168 415T136
329Q136 276 168 243T255 210Q311 210 343 243T375 329ZM502 -74Q502 -114 484 -148T433 -206T353 -244T248 -257Q150 -257 95 -219T39 -110Q39 -68 63 -32T126 29Q104 40 93 58T82 99Q82 123 95 143T135 182Q99 205 81 242T62 322Q62 361 75 394T113 453T176 492T261
506Q278 506 295 504T328 497H495V438H414Q431 417 440 392T449 337Q449 298 436 265T398 206T335 167T250 153Q234 153 220 154T191 159Q176 149 168 138T159 114Q159 96 177 86T239 74L322 71Q412 68 457 30T502 -74Z" />
<glyph unicode="h" glyph-name="h" horiz-adv-x="577" d="M411 0V321Q411 380 392 412T318 444Q285 444 257 429T209 385T177 320T166 238V0H91V730H166V486Q166 461 165 436T158 387L160 386Q182 441 227 473T337 506Q380 506 408 494T454 460T478 409T486 346V0H411Z" />
<glyph unicode="i" glyph-name="i" horiz-adv-x="257" d="M91 0V497H166V0H91ZM181 657Q181 636 166 621T129 606Q107 606 92 620T77 657Q77 678 92 693T129 708Q150 708 165 694T181 657Z" />
<glyph unicode="j" glyph-name="j" horiz-adv-x="265" d="M173 -63Q173 -113 165 -149T137 -209T88 -245T17 -256Q1 -256 -18 -254T-57 -248L-50 -182Q-36 -187 -16 -190T22 -193Q45 -193 59 -187T82 -167T95 -129T99 -68V497H173V-63V-63ZM188 657Q188 636 173
621T136 606Q115 606 100 620T85 657Q85 678 100 693T136 708Q158 708 173 694T188 657Z" />
<glyph unicode="k" glyph-name="k" horiz-adv-x="482" d="M362 0L166 261V0H91V730H166V274L353 497H440L245 273L459 0H362Z" />
<glyph unicode="l" glyph-name="l" horiz-adv-x="257" d="M91 0V730H166V0H91Z" />
<glyph unicode="m" glyph-name="m" horiz-adv-x="884" d="M718 0V320Q718 350 714 372T700 411T672 435T628 444Q599 444 573 430T525 388T491 322T479 236V0H405V321Q405 349 402 370T388 408T360 434T315 444Q285 444 258 429T210 386T178 320T166 236V0H91V497H165Q165
468 163 438T157 386L159 385Q180 441 226 473T334 506Q374 506 401 494T443 463T465 424T473 387Q481 407 495 427T530 465T580 494T646 506Q717 506 755 466T793 344V0H718Z" />
<glyph unicode="n" glyph-name="n" horiz-adv-x="577" d="M411 0V321Q411 383 391 413T318 444Q285 444 257 429T209 385T177 320T166 238V0H91V497H165Q165 471 163 440T157 386L159 385Q181 441 227 473T337 506Q378 506 407 494T453 461T478 410T486 346V0H411Z" />
<glyph unicode="o" glyph-name="o" horiz-adv-x="542" d="M422 249Q422 341 382 392T272 444Q238 444 210 432T162 394T132 333T121 248Q121 156 160 105T270 54Q303 54 330 65T378 101T410 162T422 249ZM499 254Q499 199 484 151T439 67T365 11T263 -9Q213 -9
173 6T103 53T59 132T43 243Q43 298 58 346T104 430T178 486T280 506Q330 506 370 491T439 444T483 365T499 254Z" />
<glyph unicode="p" glyph-name="p" horiz-adv-x="558" d="M433 265Q433 351 404 397T314 444Q278 444 250 426T204 377T176 310T166 240V66Q208 53 263 53Q302 53 333 65T387 103T421 169T433 265ZM512 271Q512 139 445 67T258 -6Q230 -6 210 -5T166 1V-249H91V497H165Q165
470 163 440T157 389L159 388Q180 443 225 474T329 506Q417 506 464 446T512 271Z" />
<glyph unicode="q" glyph-name="q" horiz-adv-x="558" d="M392 433Q342 445 295 445Q256 445 225 433T172 395T137 329T125 232Q125 147 153 100T244 53Q281 53 309 72T355 122T383 188T392 258V433ZM392 -249V22Q392 38 393 61T399 108H397Q377 54 333 23T230
-9Q142 -9 94 49T46 225Q46 292 64 344T115 431T197 485T305 504Q347 504 388 501T467 490V-249H392Z" />
<glyph unicode="r" glyph-name="r" horiz-adv-x="354" d="M328 431Q245 445 206 385T166 199V0H91V497H165Q165 472 162 438T154 372L155 371Q162 398 176 424T211 469T262 499T331 505L328 431Z" />
<glyph unicode="s" glyph-name="s" horiz-adv-x="428" d="M375 140Q375 109 362 82T324 35T260 3T175 -9Q145 -9 113 -5T56 5L63 74Q88 65 121 59T183 53Q238 53 268 74T298 134Q298 162 282 178T247 202T184 226T113 257T71 298T54 366Q54 396 66 421T102 465T162
495T244 506Q268 506 293 504T343 496L336 432Q313 439 287 443T236 447Q184 447 157 427T130 372Q130 345 146 328T181 304T244 280T315 249T358 208T375 140Z" />
<glyph unicode="t" glyph-name="t" horiz-adv-x="370" d="M336 3Q315 -2 290 -5T242 -8Q205 -8 181 0T141 27T120 72T113 140V438H7V497H113V662L188 683V497H333V438H188V161Q188 130 191 110T203 79T225 62T261 57Q298 57 330 65L336 3Z" />
<glyph unicode="u" glyph-name="u" horiz-adv-x="577" d="M412 0Q412 25 414 56T420 111L418 112Q397 57 352 24T240 -9Q197 -9 169 3T123 37T98 88T91 151V497H166V176Q166 117 185 85T259 53Q292 53 320 68T368 111T400 177T411 259V497H486V0H412Z" />
<glyph unicode="v" glyph-name="v" horiz-adv-x="478" d="M279 0H195L11 497H95L211 168Q222 134 226 121T239 76H240Q248 104 252 119T267 165L386 497H467L279 0Z" />
<glyph unicode="w" glyph-name="w" horiz-adv-x="792" d="M611 0H524L415 323Q407 347 400 371T387 419H386Q380 392 370 355T351 292L260 0H172L19 497H103L189 196Q194 177 205 135T221 76H222Q228 103 236 134T255 197L350 497H436L533 197Q540 174 545 157T555
125T562 99T568 75H570Q575 98 583 126T603 196L693 497H773L611 0Z" />
<glyph unicode="x" glyph-name="x" horiz-adv-x="515" d="M391 0L254 200L117 0H24L212 249L34 497H127L260 301L396 497H482L304 252L490 0H391Z" />
<glyph unicode="y" glyph-name="y" horiz-adv-x="471" d="M257 -47Q235 -106 212 -146T162 -210T102 -246T26 -257Q10 -257 -4 -255T-26 -251L-18 -186Q-11 -188 5 -190T40 -193Q63 -193 81 -187T116 -165T148 -123T178 -58L201 0L11 497H97L201 211Q213 177 222
149T240 90H241Q247 114 260 154T290 242L379 497H461L257 -47Z" />
<glyph unicode="z" glyph-name="z" horiz-adv-x="446" d="M49 0V53L302 432Q275 431 238 431T161 430H54V497H388V445L137 67Q160 68 203 68T281 69H393V0H49Z" />
<glyph unicode="{" glyph-name="braceleft" horiz-adv-x="333" d="M278 -196Q199 -196 166 -151T132 -12V179Q132 236 109 260T24 288V348Q56 350 76 356T109 374T127 405T132 456V586Q132 626 139 659T163 716T208 755T278 769H295V712Q268 712 250 706T222 685T206
648T201 589V461Q201 399 178 364T108 319V318Q154 311 177 274T201 174V-15Q201 -51 206 -74T221 -111T250 -131T295 -138V-196H278Z" />
<glyph unicode="|" glyph-name="bar" horiz-adv-x="284" d="M112 -249V751H171V-249H112Z" />
<glyph unicode="}" glyph-name="braceright" horiz-adv-x="333" d="M309 288Q248 284 225 260T201 179V-12Q201 -106 168 -151T55 -196H38V-138Q65 -138 83 -132T111 -111T127 -74T132 -15V174Q132 236 155 273T225 318V319Q132 332 132 456V589Q132 625 127 648T112
685T83 705T38 712V769H55Q96 769 124 755T169 717T193 659T201 586V461Q201 428 206 408T223 375T256 356T309 348V288Z" />
<glyph unicode="~" glyph-name="asciitilde" horiz-adv-x="550" d="M493 564Q493 501 459 462T366 422Q329 422 306 437T259 481T221 522T181 535Q149 535 133 510T115 443H59V449Q59 513 93 552T186 591Q223 591 246 576T293 532T331 491T371 478Q403 478 419
503T437 571H493V564Z" />
<glyph unicode="&#xa0;" glyph-name="uni00A0" horiz-adv-x="218" />
<glyph unicode="&#xa1;" glyph-name="exclamdown" horiz-adv-x="319" d="M105 -204L119 337H181L195 -204H105ZM204 453Q204 430 189 415T150 400Q127 400 112 415T97 453Q97 475 112 490T150 505Q173 505 188 490T204 453Z" />
<glyph unicode="&#xa2;" glyph-name="cent" horiz-adv-x="456" d="M416 138Q392 127 362 119T301 109V-25H241V109Q147 116 98 176T49 344Q49 392 62 433T99 506T160 558T241 584V698H301V588Q329 587 358 582T412 566L402 501Q352 526 287 526Q211 526 169 479T127
348Q127 310 135 279T161 223T210 186T286 172Q316 172 347 179T405 201L416 138Z" />
<glyph unicode="&#xa3;" glyph-name="sterling" horiz-adv-x="469" d="M43 0V53Q73 77 93 98T125 143T142 191T147 246Q147 260 146 279T141 329H30V388H133Q128 419 124 450T120 508Q120 593 168 638T304 683Q328 683 355 680T406 670L393 605Q371 613 347 617T300
622Q251 622 224 595T196 516Q196 497 199 464T208 388H366V329H216Q219 306 220 288T221 254Q221 222 217 196T203 148T175 105T131 61Q151 64 178 65T231 67H438V0H43Z" />
<glyph unicode="&#xa4;" glyph-name="currency" horiz-adv-x="550" d="M382 334Q382 385 357 419T272 454Q227 454 198 422T168 332Q168 306 173 283T192 242T226 215T277 205Q298 205 317 214T350 239T373 280T382 334ZM442 65L361 175Q320 148 267 148Q224 148
194 163L121 65L67 105L141 197Q121 220 111 252T100 330Q100 368 112 400T146 456L67 554L120 594L196 491Q232 511 281 511Q301 511 324 507T367 492L444 594L496 553L416 454Q431 434 440 405T450 335Q450 260 409 213L496 106L442 65Z" />
<glyph unicode="&#xa5;" glyph-name="yen" horiz-adv-x="588" d="M350 284H500V231H332V157H500V103H332V0H256V103H87V157H256V231H87V284H237L44 675H128L242 437Q257 407 268 379T294 314H296Q307 346 322 379T355 448L467 675H548L350 284Z" />
<glyph unicode="&#xa6;" glyph-name="brokenbar" horiz-adv-x="284" d="M112 -249V129H171V-249H112ZM112 383V751H171V383H112Z" />
<glyph unicode="&#xa7;" glyph-name="section" horiz-adv-x="516" d="M352 220Q352 249 339 276T305 327T247 389T197 441Q173 424 162 401T150 354Q150 326 163 299T196 247T259 180T305 134Q329 150 340 173T352 220ZM424 230Q424 189 404 154T345 90Q364 65
374 40T384 -14Q384 -44 373 -71T340 -119T285 -152T209 -164Q193 -164 173 -161T132 -153L139 -89Q162 -96 179 -99T213 -102Q256 -102 281 -79T306 -19Q306 7 291 33T258 77T199 136T133 207T94 271T78 344Q78 385 97 420T157 485Q138 511 128 536T117 589Q117
620 127 646T159 692T211 724T285 735Q302 735 322 733T358 727L351 663Q317 674 283 674Q240 674 218 653T196 595Q196 569 211 544T244 500T303 440T369 368T408 303T424 230Z" />
<glyph unicode="&#xa8;" glyph-name="dieresis" horiz-adv-x="463" d="M185 657Q185 637 172 623T138 609Q118 609 104 623T90 657Q90 677 104 690T138 704Q158 704 171 691T185 657ZM373 657Q373 637 360 623T326 609Q306 609 292 623T278 657Q278 677 292 690T326
704Q346 704 359 691T373 657Z" />
<glyph unicode="&#xa9;" glyph-name="copyright" horiz-adv-x="753" d="M473 175Q428 158 375 158Q334 158 304 170T255 206T227 261T218 330Q218 367 227 400T258 458T312 498T392 513Q413 513 432 510T469 501L463 445Q429 461 388 461Q360 461 340 452T308
425T291 384T285 333Q285 275 309 244T384 213Q429 213 466 228L473 175ZM647 334Q647 389 626 439T568 528T481 587T375 609Q319 609 270 588T183 530T124 442T103 336Q103 280 124 230T182 142T269 83T375 61Q431 61 480 82T567 141T626 228T647 334ZM708 336Q708
268 683 208T611 101T504 29T375 3Q305 3 244 28T137 99T66 205T41 334Q41 402 66 463T138 570T246 641T375 667Q443 667 504 642T611 571T682 465T708 336Z" />
<glyph unicode="&#xaa;" glyph-name="ordfeminine" horiz-adv-x="383" d="M247 500Q175 500 146 485T116 438Q116 418 128 407T162 396Q183 396 199 406T226 431T242 463T247 491V500ZM60 225V285H339V225H60ZM246 351Q246 363 247 377T252 405H251Q238 377 211
361T149 344Q102 344 77 367T52 429Q52 483 102 514T247 545V564Q247 576 245 587T235 607T214 623T178 629Q152 629 126 623T76 604L71 661Q96 671 126 676T188 682Q222 682 246 673T284 649T305 615T311 572Q311 539 311 506T311 438Q311 412 311 388T312 351H246Z"
/>
<glyph unicode="&#xab;" glyph-name="guillemotleft" horiz-adv-x="499" d="M174 120L59 293L175 470L230 439L135 294L231 152L174 120ZM365 121L241 293L366 468L421 437L318 294L421 153L365 121Z" />
<glyph unicode="&#xac;" glyph-name="logicalnot" horiz-adv-x="550" d="M414 106V266H43V329H479V106H414Z" />
<glyph unicode="&#xad;" glyph-name="uni00AD" horiz-adv-x="328" d="M48 260V322H280V260H48Z" />
<glyph unicode="&#xae;" glyph-name="registered" horiz-adv-x="562" d="M315 579Q315 595 307 602T277 610H254V542H269Q295 542 305 554T315 579ZM316 414L257 513H254V414H210V644H284Q326 644 343 628T361 585Q361 556 346 540T304 519Q308 514 313 506T325
488L371 414H316ZM442 526Q442 560 430 590T395 642T344 678T281 692Q247 692 218 679T166 644T132 593T119 530Q119 496 131 466T166 414T217 378T281 364Q314 364 344 377T396 412T429 463T442 526ZM495 528Q495 484 478 445T432 377T363 331T281 314Q235 314
196 330T128 376T83 444T66 528Q66 572 83 611T129 679T197 725T281 742Q326 742 365 726T433 681T478 613T495 528Z" />
<glyph unicode="&#xaf;" glyph-name="macron" horiz-adv-x="425" d="M90 623V680H335V623H90Z" />
<glyph unicode="&#xb0;" glyph-name="degree" horiz-adv-x="371" d="M250 613Q250 625 247 637T237 660T216 678T184 685Q156 685 138 665T119 613Q119 580 136 561T183 542Q212 542 231 562T250 613ZM311 614Q311 585 300 563T271 524T229 500T180 491Q123 491
91 523T58 612Q58 640 68 663T97 702T139 727T186 736Q218 736 241 726T280 699T303 660T311 614Z" />
<glyph unicode="&#xb1;" glyph-name="plusminus" horiz-adv-x="550" d="M44 0V63H506V0H44ZM310 331V130H240V331H43V394H240V594H310V394H507V331H310Z" />
<glyph unicode="&#xb2;" glyph-name="twosuperior" horiz-adv-x="376" d="M44 351V406L154 515Q196 558 216 592T236 658Q236 696 216 718T155 740Q130 740 105 733T61 714L49 772Q75 784 107 792T171 800Q239 800 276 765T313 672Q313 625 292 584T223 495L140
413Q174 414 217 414T334 415V351H44Z" />
<glyph unicode="&#xb3;" glyph-name="threesuperior" horiz-adv-x="365" d="M312 484Q312 452 300 426T264 382T206 353T130 343Q108 343 85 345T42 352L50 413Q68 407 90 404T135 401Q183 401 209 422T236 478Q236 519 195 539T72 552V606Q152 606 186 625T220
683Q220 712 200 728T145 744Q99 744 58 725L49 780Q103 800 159 800Q223 800 259 772T295 691Q295 616 219 589Q262 582 287 552T312 484Z" />
<glyph unicode="&#xb4;" glyph-name="acute" horiz-adv-x="350" d="M128 573L90 609L211 747L260 701L128 573Z" />
<glyph unicode="&#xb5;" glyph-name="mu" horiz-adv-x="588" d="M548 -5Q538 -6 530 -6T515 -7Q461 -7 439 23T422 110L421 111Q400 57 357 25T250 -8Q219 -8 196 1T159 31L168 -249H91V497H166V167Q166 109 188 81T259 53Q293 53 321 68T369 111T400 177T411
260V497H486V169Q486 133 489 111T499 77T518 60T548 56V-5Z" />
<glyph unicode="&#xb6;" glyph-name="paragraph" horiz-adv-x="569" d="M287 254Q232 254 191 270T123 316T83 384T70 467Q70 511 85 549T129 615T198 659T287 675V254V254ZM432 618V-96H287V-39H362V675H504V618H432Z" />
<glyph unicode="&#xb7;" glyph-name="periodcentered" horiz-adv-x="220" d="M167 297Q167 273 151 257T110 240Q86 240 70 256T53 297Q53 321 69 337T110 354Q134 354 150 338T167 297Z" />
<glyph unicode="&#xb8;" glyph-name="cedilla" horiz-adv-x="296" d="M176 -41Q212 -88 205 -135T153 -235H90Q111 -209 123 -188T137 -148T134 -110T109 -69L176 -41Z" />
<glyph unicode="&#xb9;" glyph-name="onesuperior" horiz-adv-x="287" d="M130 351V722L32 688L18 748L144 792H204V351H130Z" />
<glyph unicode="&#xba;" glyph-name="ordmasculine" horiz-adv-x="417" d="M294 514Q294 541 288 562T271 597T245 619T209 627Q189 627 173 620T146 598T128 563T122 514Q122 487 128 466T145 431T172 409T208 401Q248 401 271 430T294 514ZM68 225V285H349V225H68ZM363
518Q363 481 353 450T322 395T271 358T202 345Q132 345 93 386T53 510Q53 546 63 577T94 633T145 670T214 683Q248 683 275 673T322 643T352 591T363 518Z" />
<glyph unicode="&#xbb;" glyph-name="guillemotright" horiz-adv-x="499" d="M132 121L78 152L181 295L79 436L135 468L258 296L132 121ZM323 120L268 151L364 295L269 438L326 470L440 296L323 120Z" />
<glyph unicode="&#xbc;" glyph-name="onequarter" horiz-adv-x="810" d="M130 351V722L32 688L18 748L144 792H204V351H130ZM109 -115L58 -79L659 779L709 743L109 -115ZM721 -17V-118H649V-17H441L436 33L617 323H721V44H793V-17H721ZM649 269L509 41Q522 42
541 42T580 43T616 44T649 44V269Z" />
<glyph unicode="&#xbd;" glyph-name="onehalf" horiz-adv-x="871" d="M130 351V722L32 688L18 748L144 792H204V351H130ZM109 -115L58 -79L659 779L709 743L109 -115ZM518 -118V-63L628 46Q670 89 690 123T710 189Q710 227 690 249T629 271Q604 271 579 264T535
245L523 303Q549 315 581 323T645 331Q713 331 750 296T787 203Q787 156 766 115T697 26L614 -56Q648 -55 691 -55T808 -54V-118H518Z" />
<glyph unicode="&#xbe;" glyph-name="threequarters" horiz-adv-x="831" d="M130 -115L79 -79L680 779L730 743L130 -115ZM312 484Q312 452 300 426T264 382T206 353T130 343Q108 343 85 345T42 352L50 413Q68 407 90 404T135 401Q183 401 209 422T236 478Q236
519 195 539T72 552V606Q152 606 186 625T220 683Q220 712 200 728T145 744Q99 744 58 725L49 780Q103 800 159 800Q223 800 259 772T295 691Q295 616 219 589Q262 582 287 552T312 484ZM743 -17V-118H671V-17H463L458 33L639 323H743V44H815V-17H743ZM671 269L531
41Q544 42 563 42T602 43T638 44T671 44V269Z" />
<glyph unicode="&#xbf;" glyph-name="questiondown" horiz-adv-x="443" d="M343 -210Q280 -208 229 -192T140 -150T84 -91T65 -21Q65 17 78 46T106 90T154 139T204 198T224 257T216 337H290Q305 289 302 252T283 188T244 135T197 87T161 40T148 -13Q148 -38 162
-60T204 -100T269 -128T353 -141L343 -210ZM306 453Q306 431 291 416T252 400Q230 400 215 415T199 453Q199 475 214 490T252 505Q275 505 290 490T306 453Z" />
<glyph unicode="&#xc0;" glyph-name="Agrave" horiz-adv-x="611" d="M333 506Q324 533 317 554T303 599H302Q295 575 288 553T273 508L172 229H433L333 506ZM511 0L452 167H152L93 0H23H13L261 675H351L598 0H588H511ZM347 729L167 786L191 847L363 773L347 729Z" />
<glyph unicode="&#xc1;" glyph-name="Aacute" horiz-adv-x="611" d="M333 506Q324 533 317 554T303 599H302Q295 575 288 553T273 508L172 229H433L333 506ZM511 0L452 167H152L93 0H23H13L261 675H351L598 0H588H511ZM256 729L240 773L412 847L436 786L256 729Z" />
<glyph unicode="&#xc2;" glyph-name="Acircumflex" horiz-adv-x="611" d="M333 506Q324 533 317 554T303 599H302Q295 575 288 553T273 508L172 229H433L333 506ZM511 0L452 167H152L93 0H23H13L261 675H351L598 0H588H511ZM438 727L305 789L171 727L149 772L306
854L461 773L438 727Z" />
<glyph unicode="&#xc3;" glyph-name="Atilde" horiz-adv-x="611" d="M333 506Q324 533 317 554T303 599H302Q295 575 288 553T273 508L172 229H433L333 506ZM511 0L452 167H152L93 0H23H13L261 675H351L598 0H588H511ZM480 808Q440 738 373 738Q350 738 333 745T296
766T265 786T239 792Q203 792 175 746L135 775Q154 809 181 827T242 845Q265 845 282 838T319 817T350 797T376 791Q411 791 440 837L480 808Z" />
<glyph unicode="&#xc4;" glyph-name="Adieresis" horiz-adv-x="611" d="M333 506Q324 533 317 554T303 599H302Q295 575 288 553T273 508L172 229H433L333 506ZM511 0L452 167H152L93 0H23H13L261 675H351L598 0H588H511ZM246 779Q246 760 233 746T199 732Q179
732 165 745T151 779Q151 799 165 813T199 827Q219 827 232 813T246 779ZM459 779Q459 760 446 746T412 732Q392 732 378 745T364 779Q364 799 378 813T412 827Q432 827 445 813T459 779Z" />
<glyph unicode="&#xc5;" glyph-name="Aring" horiz-adv-x="611" d="M333 506Q324 533 317 554T303 599H302Q295 575 288 553T273 508L172 229H433L333 506ZM511 0L452 167H152L93 0H23H13L261 675H351L598 0H588H511ZM420 818Q420 773 389 743T305 712Q255 712
227 737T199 813Q199 858 230 888T314 918Q364 918 392 893T420 818ZM361 815Q361 873 309 873Q287 873 272 859T257 816Q257 758 309 758Q331 758 346 772T361 815Z" />
<glyph unicode="&#xc6;" glyph-name="AE" horiz-adv-x="779" d="M366 613H360Q345 581 330 551T291 476L156 230H366V613ZM366 0V169H127L36 0H-44L324 675H702V613H441V379H684V317H441V64H707V0H366Z" />
<glyph unicode="&#xc7;" glyph-name="Ccedilla" horiz-adv-x="590" d="M544 36Q500 17 451 5T350 -7Q275 -7 218 16T124 82T68 186T49 322Q49 400 68 465T127 579T228 655T370 682Q411 682 455 674T536 651L521 582Q480 600 440 608T358 617Q301 617 258 596T186
535T145 445T131 335Q131 203 190 132T367 60Q405 60 449 71T529 100L544 36ZM357 -41Q393 -88 386 -135T334 -235H271Q292 -209 304 -188T318 -148T315 -110T290 -69L357 -41Z" />
<glyph unicode="&#xc8;" glyph-name="Egrave" horiz-adv-x="514" d="M91 0V675H442V613H168V379H420V317H168V64H442V0H91ZM304 729L124 786L148 847L320 773L304 729Z" />
<glyph unicode="&#xc9;" glyph-name="Eacute" horiz-adv-x="514" d="M91 0V675H442V613H168V379H420V317H168V64H442V0H91ZM213 729L197 773L369 847L393 786L213 729Z" />
<glyph unicode="&#xca;" glyph-name="Ecircumflex" horiz-adv-x="514" d="M91 0V675H442V613H168V379H420V317H168V64H442V0H91ZM396 727L263 789L129 727L107 772L264 854L419 773L396 727Z" />
<glyph unicode="&#xcb;" glyph-name="Edieresis" horiz-adv-x="514" d="M91 0V675H442V613H168V379H420V317H168V64H442V0H91ZM199 779Q199 760 186 746T152 732Q132 732 118 745T104 779Q104 799 118 813T152 827Q172 827 185 813T199 779ZM412 779Q412 760 399
746T365 732Q345 732 331 745T317 779Q317 799 331 813T365 827Q385 827 398 813T412 779Z" />
<glyph unicode="&#xcc;" glyph-name="Igrave" horiz-adv-x="259" d="M91 0V675H168V0H91ZM427 729L247 786L271 847L443 773L427 729Z" />
<glyph unicode="&#xcd;" glyph-name="Iacute" horiz-adv-x="259" d="M91 0V675H168V0H91ZM347 729L331 773L503 847L527 786L347 729Z" />
<glyph unicode="&#xce;" glyph-name="Icircumflex" horiz-adv-x="259" d="M91 0V675H168V0H91ZM519 727L386 789L252 727L230 772L387 854L542 773L519 727Z" />
<glyph unicode="&#xcf;" glyph-name="Idieresis" horiz-adv-x="259" d="M91 0V675H168V0H91ZM531 779Q531 759 517 746T483 732Q464 732 450 746T436 779Q436 799 449 813T483 827Q503 827 517 813T531 779ZM336 779Q336 760 323 746T289 732Q269 732 255 745T241
779Q241 799 255 813T289 827Q309 827 322 813T336 779Z" />
<glyph unicode="&#xd0;" glyph-name="Eth" horiz-adv-x="691" d="M561 339Q561 476 492 546T286 616Q262 616 227 615T175 613V377H328V318H175V67Q185 66 197 65T223 62T249 61T273 60Q338 60 390 77T481 128T540 215T561 339ZM642 344Q642 259 615 194T537 85T417
19T263 -3Q227 -3 174 -2T100 0V318H3V377H100V675Q124 675 190 676T294 678Q463 678 552 596T642 344Z" />
<glyph unicode="&#xd1;" glyph-name="Ntilde" horiz-adv-x="694" d="M528 0H525L260 416Q240 447 225 472T199 517T178 554T160 588H158Q159 558 160 510T163 407T165 294T166 190V0H91V675H166H188L438 282Q459 249 474 225T500 182T519 147T534 117H536Q534
151 533 197T530 295T529 400T528 503V675H603V0H528ZM525 808Q485 738 418 738Q395 738 378 745T341 766T310 786T284 792Q248 792 220 746L180 775Q199 809 226 827T287 845Q310 845 327 838T364 817T395 797T421 791Q456 791 485 837L525 808Z" />
<glyph unicode="&#xd2;" glyph-name="Ograve" horiz-adv-x="708" d="M582 333Q582 464 524 541T354 618Q306 618 265 600T192 547T144 460T126 343Q126 279 140 227T184 136T255 78T354 57Q402 57 443 75T516 128T564 215T582 333ZM662 346Q662 262 638 196T569
84T468 15T345 -9Q274 -9 218 14T124 82T66 189T46 329Q46 413 70 479T139 591T240 660T363 684Q434 684 490 661T584 593T642 486T662 346ZM388 729L208 786L232 847L404 773L388 729Z" />
<glyph unicode="&#xd3;" glyph-name="Oacute" horiz-adv-x="708" d="M582 333Q582 464 524 541T354 618Q306 618 265 600T192 547T144 460T126 343Q126 279 140 227T184 136T255 78T354 57Q402 57 443 75T516 128T564 215T582 333ZM662 346Q662 262 638 196T569
84T468 15T345 -9Q274 -9 218 14T124 82T66 189T46 329Q46 413 70 479T139 591T240 660T363 684Q434 684 490 661T584 593T642 486T662 346ZM323 729L307 773L479 847L503 786L323 729Z" />
<glyph unicode="&#xd4;" glyph-name="Ocircumflex" horiz-adv-x="708" d="M582 333Q582 464 524 541T354 618Q306 618 265 600T192 547T144 460T126 343Q126 279 140 227T184 136T255 78T354 57Q402 57 443 75T516 128T564 215T582 333ZM662 346Q662 262 638 196T569
84T468 15T345 -9Q274 -9 218 14T124 82T66 189T46 329Q46 413 70 479T139 591T240 660T363 684Q434 684 490 661T584 593T642 486T662 346ZM492 727L359 789L225 727L203 772L360 854L515 773L492 727Z" />
<glyph unicode="&#xd5;" glyph-name="Otilde" horiz-adv-x="708" d="M582 333Q582 464 524 541T354 618Q306 618 265 600T192 547T144 460T126 343Q126 279 140 227T184 136T255 78T354 57Q402 57 443 75T516 128T564 215T582 333ZM662 346Q662 262 638 196T569
84T468 15T345 -9Q274 -9 218 14T124 82T66 189T46 329Q46 413 70 479T139 591T240 660T363 684Q434 684 490 661T584 593T642 486T662 346ZM524 808Q484 738 417 738Q394 738 377 745T340 766T309 786T283 792Q247 792 219 746L179 775Q198 809 225 827T286 845Q309
845 326 838T363 817T394 797T420 791Q455 791 484 837L524 808Z" />
<glyph unicode="&#xd6;" glyph-name="Odieresis" horiz-adv-x="708" d="M582 333Q582 464 524 541T354 618Q306 618 265 600T192 547T144 460T126 343Q126 279 140 227T184 136T255 78T354 57Q402 57 443 75T516 128T564 215T582 333ZM662 346Q662 262 638 196T569
84T468 15T345 -9Q274 -9 218 14T124 82T66 189T46 329Q46 413 70 479T139 591T240 660T363 684Q434 684 490 661T584 593T642 486T662 346ZM298 779Q298 760 285 746T251 732Q231 732 217 745T203 779Q203 799 217 813T251 827Q271 827 284 813T298 779ZM511 779Q511
760 498 746T464 732Q444 732 430 745T416 779Q416 799 430 813T464 827Q484 827 497 813T511 779Z" />
<glyph unicode="&#xd7;" glyph-name="multiply" horiz-adv-x="550" d="M446 80L273 253L100 80L58 122L231 295L58 468L104 514L277 341L450 514L492 472L319 299L492 126L446 80Z" />
<glyph unicode="&#xd8;" glyph-name="Oslash" horiz-adv-x="708" d="M454 596Q433 607 408 613T354 619Q306 619 264 601T191 548T142 460T124 343Q124 262 146 204T203 112L454 596ZM584 333Q584 413 562 471T505 563L254 79Q276 68 301 62T354 56Q402 56 444
74T517 127T566 215T584 333ZM662 346Q662 262 638 196T569 84T468 15T345 -9Q275 -9 221 15L167 -91L112 -64L167 42Q110 83 78 155T46 329Q46 413 70 479T139 591T240 660T363 684Q398 684 429 678T487 660L541 766L596 739L541 633Q598 592 630 520T662 346Z"
/>
<glyph unicode="&#xd9;" glyph-name="Ugrave" horiz-adv-x="697" d="M606 256Q606 126 539 59T340 -9Q265 -9 216 10T139 62T102 135T91 224V675H168V231Q168 192 176 161T203 105T258 68T346 54Q441 54 486 99T531 250V675H606V256ZM376 729L196 786L220 847L392
773L376 729Z" />
<glyph unicode="&#xda;" glyph-name="Uacute" horiz-adv-x="697" d="M606 256Q606 126 539 59T340 -9Q265 -9 216 10T139 62T102 135T91 224V675H168V231Q168 192 176 161T203 105T258 68T346 54Q441 54 486 99T531 250V675H606V256ZM334 729L318 773L490 847L514
786L334 729Z" />
<glyph unicode="&#xdb;" glyph-name="Ucircumflex" horiz-adv-x="697" d="M606 256Q606 126 539 59T340 -9Q265 -9 216 10T139 62T102 135T91 224V675H168V231Q168 192 176 161T203 105T258 68T346 54Q441 54 486 99T531 250V675H606V256ZM485 727L352 789L218
727L196 772L353 854L508 773L485 727Z" />
<glyph unicode="&#xdc;" glyph-name="Udieresis" horiz-adv-x="697" d="M606 256Q606 126 539 59T340 -9Q265 -9 216 10T139 62T102 135T91 224V675H168V231Q168 192 176 161T203 105T258 68T346 54Q441 54 486 99T531 250V675H606V256ZM289 779Q289 760 276 746T242
732Q222 732 208 745T194 779Q194 799 208 813T242 827Q262 827 275 813T289 779ZM502 779Q502 760 489 746T455 732Q435 732 421 745T407 779Q407 799 421 813T455 827Q475 827 488 813T502 779Z" />
<glyph unicode="&#xdd;" glyph-name="Yacute" horiz-adv-x="527" d="M301 264V0H225V264L4 675H89L212 443Q227 413 239 387T265 331H266Q279 360 292 389T321 445L442 675H523L301 264ZM246 729L230 773L402 847L426 786L246 729Z" />
<glyph unicode="&#xde;" glyph-name="Thorn" horiz-adv-x="533" d="M434 358Q434 430 388 472T250 514Q225 514 202 513T168 510V203Q179 202 203 200T253 197Q341 197 387 242T434 358ZM513 369Q513 319 495 276T441 202T356 153T246 135Q208 135 168 138V0H91V675H168V574Q179
575 204 576T261 577Q386 577 449 518T513 369Z" />
<glyph unicode="&#xdf;" glyph-name="germandbls" horiz-adv-x="587" d="M543 146Q543 113 530 85T491 35T429 3T346 -9Q319 -9 294 -7T250 1L257 69Q300 53 348 53Q410 53 438 78T466 136Q466 165 451 183T413 216T364 245T315 277T277 321T262 387Q262 417 272
437T299 473T333 501T368 526T394 556T405 597Q405 637 377 656T303 675Q237 675 202 636T166 507V0H91V502Q91 566 108 610T154 683T223 723T308 735Q393 735 437 698T482 604Q482 570 472 548T445 509T410 482T376 458T349 432T338 394Q338 367 353 349T391 316T440
287T490 255T528 211T543 146Z" />
<glyph unicode="&#xe0;" glyph-name="agrave" horiz-adv-x="520" d="M353 237Q289 237 245 229T174 207T137 174T125 134Q125 98 147 75T207 52Q238 52 265 66T312 105T342 160T353 222V237ZM356 0Q356 38 357 62T361 105H359Q350 81 334 61T295 24T245 0T186
-9Q126 -9 88 27T50 123Q50 201 129 246T353 292V322Q353 386 328 416T241 446Q207 446 167 437T90 411L76 470Q117 487 161 496T250 506Q299 506 333 494T388 460T418 405T428 332V149Q428 116 428 93T428 45T430 0H356ZM264 573L132 701L181 747L302 609L264
573Z" />
<glyph unicode="&#xe1;" glyph-name="aacute" horiz-adv-x="520" d="M353 237Q289 237 245 229T174 207T137 174T125 134Q125 98 147 75T207 52Q238 52 265 66T312 105T342 160T353 222V237ZM356 0Q356 38 357 62T361 105H359Q350 81 334 61T295 24T245 0T186
-9Q126 -9 88 27T50 123Q50 201 129 246T353 292V322Q353 386 328 416T241 446Q207 446 167 437T90 411L76 470Q117 487 161 496T250 506Q299 506 333 494T388 460T418 405T428 332V149Q428 116 428 93T428 45T430 0H356ZM249 573L211 609L332 747L381 701L249
573Z" />
<glyph unicode="&#xe2;" glyph-name="acircumflex" horiz-adv-x="520" d="M353 237Q289 237 245 229T174 207T137 174T125 134Q125 98 147 75T207 52Q238 52 265 66T312 105T342 160T353 222V237ZM356 0Q356 38 357 62T361 105H359Q350 81 334 61T295 24T245 0T186
-9Q126 -9 88 27T50 123Q50 201 129 246T353 292V322Q353 386 328 416T241 446Q207 446 167 437T90 411L76 470Q117 487 161 496T250 506Q299 506 333 494T388 460T418 405T428 332V149Q428 116 428 93T428 45T430 0H356ZM354 575L256 661L156 575L123 610L257
740L390 612L354 575Z" />
<glyph unicode="&#xe3;" glyph-name="atilde" horiz-adv-x="520" d="M353 237Q289 237 245 229T174 207T137 174T125 134Q125 98 147 75T207 52Q238 52 265 66T312 105T342 160T353 222V237ZM356 0Q356 38 357 62T361 105H359Q350 81 334 61T295 24T245 0T186
-9Q126 -9 88 27T50 123Q50 201 129 246T353 292V322Q353 386 328 416T241 446Q207 446 167 437T90 411L76 470Q117 487 161 496T250 506Q299 506 333 494T388 460T418 405T428 332V149Q428 116 428 93T428 45T430 0H356ZM675 672Q656 637 630 619T571 600Q549
600 533 607T497 629T467 650T442 656Q407 656 380 608L342 639Q361 674 387 693T446 712Q468 712 484 705T520 683T550 662T575 656Q610 656 637 703L675 672Z" />
<glyph unicode="&#xe4;" glyph-name="adieresis" horiz-adv-x="520" d="M353 237Q289 237 245 229T174 207T137 174T125 134Q125 98 147 75T207 52Q238 52 265 66T312 105T342 160T353 222V237ZM356 0Q356 38 357 62T361 105H359Q350 81 334 61T295 24T245 0T186
-9Q126 -9 88 27T50 123Q50 201 129 246T353 292V322Q353 386 328 416T241 446Q207 446 167 437T90 411L76 470Q117 487 161 496T250 506Q299 506 333 494T388 460T418 405T428 332V149Q428 116 428 93T428 45T430 0H356ZM207 657Q207 637 194 623T160 609Q140
609 126 623T112 657Q112 677 126 690T160 704Q180 704 193 691T207 657ZM395 657Q395 637 382 623T348 609Q328 609 314 623T300 657Q300 677 314 690T348 704Q368 704 381 691T395 657Z" />
<glyph unicode="&#xe5;" glyph-name="aring" horiz-adv-x="520" d="M353 237Q289 237 245 229T174 207T137 174T125 134Q125 98 147 75T207 52Q238 52 265 66T312 105T342 160T353 222V237ZM356 0Q356 38 357 62T361 105H359Q350 81 334 61T295 24T245 0T186 -9Q126
-9 88 27T50 123Q50 201 129 246T353 292V322Q353 386 328 416T241 446Q207 446 167 437T90 411L76 470Q117 487 161 496T250 506Q299 506 333 494T388 460T418 405T428 332V149Q428 116 428 93T428 45T430 0H356ZM369 667Q369 621 338 591T255 560Q205 560 178
586T150 662Q150 708 181 738T264 769Q314 769 341 743T369 667ZM312 664Q312 723 260 723Q238 723 223 708T208 665Q208 606 259 606Q281 606 296 621T312 664Z" />
<glyph unicode="&#xe6;" glyph-name="ae" horiz-adv-x="809" d="M353 237Q289 237 245 229T174 207T137 174T125 134Q125 98 147 75T207 52Q238 52 265 66T312 105T342 160T353 222V237ZM682 310Q683 374 651 411T562 448Q510 448 474 412T429 310H682ZM761 305Q761
289 761 275T759 255H427Q423 151 464 102T588 53Q625 53 661 59T734 80L745 21Q657 -9 578 -9Q535 -9 501 0T443 25T403 62T378 110H377Q366 87 348 66T306 27T251 1T187 -9Q126 -9 88 27T50 123Q50 201 129 246T353 292V322Q353 386 328 416T241 446Q207 446
167 437T90 411L76 470Q117 487 161 496T250 506Q309 506 348 485T404 422H405Q429 459 471 482T567 506Q617 506 654 491T714 447T749 383T761 305Z" />
<glyph unicode="&#xe7;" glyph-name="ccedilla" horiz-adv-x="440" d="M411 21Q379 8 339 1T259 -7Q214 -7 176 4T108 43T61 116T44 231Q44 292 59 342T105 429T179 484T281 504Q353 504 408 482L393 418Q366 429 335 435T272 442Q237 442 209 428T162 387T133
324T123 244Q123 203 130 170T155 112T201 72T274 57Q342 57 397 83L411 21ZM273 -41Q309 -88 302 -135T250 -235H187Q208 -209 220 -188T234 -148T231 -110T206 -69L273 -41Z" />
<glyph unicode="&#xe8;" glyph-name="egrave" horiz-adv-x="505" d="M379 305Q380 373 348 410T258 448Q205 448 169 411T124 305H379ZM456 303Q456 286 456 271T454 250H122Q121 149 161 101T284 53Q320 53 356 59T430 80L441 21Q353 -9 274 -9Q160 -9 102 54T44
246Q44 301 59 349T102 432T171 486T263 506Q313 506 350 491T410 447T445 382T456 303ZM266 573L134 701L183 747L304 609L266 573Z" />
<glyph unicode="&#xe9;" glyph-name="eacute" horiz-adv-x="505" d="M379 305Q380 373 348 410T258 448Q205 448 169 411T124 305H379ZM456 303Q456 286 456 271T454 250H122Q121 149 161 101T284 53Q320 53 356 59T430 80L441 21Q353 -9 274 -9Q160 -9 102 54T44
246Q44 301 59 349T102 432T171 486T263 506Q313 506 350 491T410 447T445 382T456 303ZM253 573L215 609L336 747L385 701L253 573Z" />
<glyph unicode="&#xea;" glyph-name="ecircumflex" horiz-adv-x="505" d="M379 305Q380 373 348 410T258 448Q205 448 169 411T124 305H379ZM456 303Q456 286 456 271T454 250H122Q121 149 161 101T284 53Q320 53 356 59T430 80L441 21Q353 -9 274 -9Q160 -9 102
54T44 246Q44 301 59 349T102 432T171 486T263 506Q313 506 350 491T410 447T445 382T456 303ZM358 575L260 661L160 575L127 610L261 740L394 612L358 575Z" />
<glyph unicode="&#xeb;" glyph-name="edieresis" horiz-adv-x="505" d="M379 305Q380 373 348 410T258 448Q205 448 169 411T124 305H379ZM456 303Q456 286 456 271T454 250H122Q121 149 161 101T284 53Q320 53 356 59T430 80L441 21Q353 -9 274 -9Q160 -9 102
54T44 246Q44 301 59 349T102 432T171 486T263 506Q313 506 350 491T410 447T445 382T456 303ZM214 657Q214 637 201 623T167 609Q147 609 133 623T119 657Q119 677 133 690T167 704Q187 704 200 691T214 657ZM402 657Q402 637 389 623T355 609Q335 609 321 623T307
657Q307 677 321 690T355 704Q375 704 388 691T402 657Z" />
<glyph unicode="&#xec;" glyph-name="igrave" horiz-adv-x="257" d="M91 0V497H166V0H91ZM376 567L281 722L340 754L423 593L376 567Z" />
<glyph unicode="&#xed;" glyph-name="iacute" horiz-adv-x="257" d="M91 0V497H166V0H91ZM134 572L90 602L190 750L246 713L134 572Z" />
<glyph unicode="&#xee;" glyph-name="icircumflex" horiz-adv-x="257" d="M91 0V497H166V0H91ZM471 575L385 661L298 575L265 610L386 739L506 611L471 575Z" />
<glyph unicode="&#xef;" glyph-name="idieresis" horiz-adv-x="257" d="M91 0V497H166V0H91ZM348 657Q348 637 334 623T300 609Q280 609 266 623T252 657Q252 677 266 690T300 704Q320 704 334 691T348 657ZM519 657Q519 637 505 623T471 609Q451 609 437 623T423
657Q423 677 437 690T471 704Q491 704 505 691T519 657Z" />
<glyph unicode="&#xf0;" glyph-name="eth" horiz-adv-x="543" d="M420 261Q420 346 382 395T271 444Q241 444 214 433T166 397T132 336T120 251Q120 158 161 107T275 55Q306 55 332 66T378 103T409 167T420 261ZM497 271Q497 201 480 148T431 61T357 9T264 -9Q214
-9 173 6T103 54T58 134T42 246Q42 300 58 347T104 429T178 485T275 505Q312 505 343 493T390 454Q383 468 373 484T358 509Q345 532 329 554T290 602L184 554L152 596L250 640Q234 655 216 670T167 709L243 742Q263 726 282 708T321 671L425 717L458 675L357 631Q424
552 460 460T497 271Z" />
<glyph unicode="&#xf1;" glyph-name="ntilde" horiz-adv-x="577" d="M411 0V321Q411 383 391 413T318 444Q285 444 257 429T209 385T177 320T166 238V0H91V497H165Q165 471 163 440T157 386L159 385Q181 441 227 473T337 506Q378 506 407 494T453 461T478 410T486
346V0H411ZM459 672Q440 637 414 619T355 600Q333 600 317 607T281 629T251 650T226 656Q191 656 164 608L126 639Q145 674 171 693T230 712Q252 712 268 705T304 683T334 662T359 656Q394 656 421 703L459 672Z" />
<glyph unicode="&#xf2;" glyph-name="ograve" horiz-adv-x="542" d="M422 249Q422 341 382 392T272 444Q238 444 210 432T162 394T132 333T121 248Q121 156 160 105T270 54Q303 54 330 65T378 101T410 162T422 249ZM499 254Q499 199 484 151T439 67T365 11T263
-9Q213 -9 173 6T103 53T59 132T43 243Q43 298 58 346T104 430T178 486T280 506Q330 506 370 491T439 444T483 365T499 254ZM283 573L151 701L200 747L321 609L283 573Z" />
<glyph unicode="&#xf3;" glyph-name="oacute" horiz-adv-x="542" d="M422 249Q422 341 382 392T272 444Q238 444 210 432T162 394T132 333T121 248Q121 156 160 105T270 54Q303 54 330 65T378 101T410 162T422 249ZM499 254Q499 199 484 151T439 67T365 11T263
-9Q213 -9 173 6T103 53T59 132T43 243Q43 298 58 346T104 430T178 486T280 506Q330 506 370 491T439 444T483 365T499 254ZM268 573L230 609L351 747L400 701L268 573Z" />
<glyph unicode="&#xf4;" glyph-name="ocircumflex" horiz-adv-x="542" d="M422 249Q422 341 382 392T272 444Q238 444 210 432T162 394T132 333T121 248Q121 156 160 105T270 54Q303 54 330 65T378 101T410 162T422 249ZM499 254Q499 199 484 151T439 67T365 11T263
-9Q213 -9 173 6T103 53T59 132T43 243Q43 298 58 346T104 430T178 486T280 506Q330 506 370 491T439 444T483 365T499 254ZM370 575L272 661L172 575L139 610L273 740L406 612L370 575Z" />
<glyph unicode="&#xf5;" glyph-name="otilde" horiz-adv-x="542" d="M422 249Q422 341 382 392T272 444Q238 444 210 432T162 394T132 333T121 248Q121 156 160 105T270 54Q303 54 330 65T378 101T410 162T422 249ZM499 254Q499 199 484 151T439 67T365 11T263
-9Q213 -9 173 6T103 53T59 132T43 243Q43 298 58 346T104 430T178 486T280 506Q330 506 370 491T439 444T483 365T499 254ZM442 672Q423 637 397 619T338 600Q316 600 300 607T264 629T234 650T209 656Q174 656 147 608L109 639Q128 674 154 693T213 712Q235 712
251 705T287 683T317 662T342 656Q377 656 404 703L442 672Z" />
<glyph unicode="&#xf6;" glyph-name="odieresis" horiz-adv-x="542" d="M422 249Q422 341 382 392T272 444Q238 444 210 432T162 394T132 333T121 248Q121 156 160 105T270 54Q303 54 330 65T378 101T410 162T422 249ZM499 254Q499 199 484 151T439 67T365 11T263
-9Q213 -9 173 6T103 53T59 132T43 243Q43 298 58 346T104 430T178 486T280 506Q330 506 370 491T439 444T483 365T499 254ZM225 657Q225 637 212 623T178 609Q158 609 144 623T130 657Q130 677 144 690T178 704Q198 704 211 691T225 657ZM413 657Q413 637 400
623T366 609Q346 609 332 623T318 657Q318 677 332 690T366 704Q386 704 399 691T413 657Z" />
<glyph unicode="&#xf7;" glyph-name="divide" horiz-adv-x="550" d="M327 96Q327 73 312 58T273 42Q251 42 236 57T220 96Q220 118 235 133T273 149Q296 149 311 134T327 96ZM43 266V329H507V266H43ZM327 498Q327 475 312 460T273 445Q251 445 236 460T220 498Q220
521 235 536T273 551Q296 551 311 536T327 498Z" />
<glyph unicode="&#xf8;" glyph-name="oslash" horiz-adv-x="542" d="M499 254Q499 199 484 151T439 67T365 11T263 -9Q239 -9 216 -5T174 7L125 -87L75 -63L126 32Q86 62 65 115T43 243Q43 298 58 346T104 430T178 486T280 506Q330 506 368 490L417 584L467 560L417
465Q432 453 445 438T468 403T485 361T495 311T499 254ZM426 249Q426 274 423 297T413 339T399 373T382 399L205 65Q237 51 270 51Q305 51 334 63T383 101T415 164T426 249ZM337 432Q307 446 273 446Q238 446 209 434T160 396T128 333T117 248Q117 228 119 209T125
174T134 143T146 118T160 98L337 432Z" />
<glyph unicode="&#xf9;" glyph-name="ugrave" horiz-adv-x="577" d="M412 0Q412 25 414 56T420 111L418 112Q397 57 352 24T240 -9Q197 -9 169 3T123 37T98 88T91 151V497H166V176Q166 117 185 85T259 53Q292 53 320 68T368 111T400 177T411 259V497H486V0H412ZM290
573L158 701L207 747L328 609L290 573Z" />
<glyph unicode="&#xfa;" glyph-name="uacute" horiz-adv-x="577" d="M412 0Q412 25 414 56T420 111L418 112Q397 57 352 24T240 -9Q197 -9 169 3T123 37T98 88T91 151V497H166V176Q166 117 185 85T259 53Q292 53 320 68T368 111T400 177T411 259V497H486V0H412ZM289
573L251 609L372 747L421 701L289 573Z" />
<glyph unicode="&#xfb;" glyph-name="ucircumflex" horiz-adv-x="577" d="M412 0Q412 25 414 56T420 111L418 112Q397 57 352 24T240 -9Q197 -9 169 3T123 37T98 88T91 151V497H166V176Q166 117 185 85T259 53Q292 53 320 68T368 111T400 177T411 259V497H486V0H412ZM386
575L288 661L188 575L155 610L289 740L422 612L386 575Z" />
<glyph unicode="&#xfc;" glyph-name="udieresis" horiz-adv-x="577" d="M412 0Q412 25 414 56T420 111L418 112Q397 57 352 24T240 -9Q197 -9 169 3T123 37T98 88T91 151V497H166V176Q166 117 185 85T259 53Q292 53 320 68T368 111T400 177T411 259V497H486V0H412ZM241
657Q241 637 228 623T194 609Q174 609 160 623T146 657Q146 677 160 690T194 704Q214 704 227 691T241 657ZM429 657Q429 637 416 623T382 609Q362 609 348 623T334 657Q334 677 348 690T382 704Q402 704 415 691T429 657Z" />
<glyph unicode="&#xfd;" glyph-name="yacute" horiz-adv-x="471" d="M257 -47Q235 -106 212 -146T162 -210T102 -246T26 -257Q10 -257 -4 -255T-26 -251L-18 -186Q-11 -188 5 -190T40 -193Q63 -193 81 -187T116 -165T148 -123T178 -58L201 0L11 497H97L201 211Q213
177 222 149T240 90H241Q247 114 260 154T290 242L379 497H461L257 -47ZM240 573L202 609L323 747L372 701L240 573Z" />
<glyph unicode="&#xfe;" glyph-name="thorn" horiz-adv-x="558" d="M433 265Q433 351 404 397T314 444Q276 444 249 425T203 375T175 309T166 240V66Q208 53 263 53Q302 53 333 65T386 102T421 168T433 265ZM512 271Q512 137 444 66T258 -6Q232 -6 212 -5T166
1V-249H91V730H166V506Q166 477 165 447T159 392L161 391Q182 443 225 474T329 506Q417 506 464 447T512 271Z" />
<glyph unicode="&#xff;" glyph-name="ydieresis" horiz-adv-x="471" d="M257 -47Q235 -106 212 -146T162 -210T102 -246T26 -257Q10 -257 -4 -255T-26 -251L-18 -186Q-11 -188 5 -190T40 -193Q63 -193 81 -187T116 -165T148 -123T178 -58L201 0L11 497H97L201
211Q213 177 222 149T240 90H241Q247 114 260 154T290 242L379 497H461L257 -47ZM191 657Q191 637 178 623T144 609Q124 609 110 623T96 657Q96 677 110 690T144 704Q164 704 177 691T191 657ZM379 657Q379 637 366 623T332 609Q312 609 298 623T284 657Q284 677
298 690T332 704Q352 704 365 691T379 657Z" />
<glyph unicode="&#x100;" glyph-name="Amacron" horiz-adv-x="611" d="M333 506Q324 533 317 554T303 599H302Q295 575 288 553T273 508L172 229H433L333 506ZM511 0L452 167H152L93 0H23H13L261 675H351L598 0H588H511ZM171 751V805H440V751H171Z" />
<glyph unicode="&#x101;" glyph-name="amacron" horiz-adv-x="520" d="M353 237Q289 237 245 229T174 207T137 174T125 134Q125 98 147 75T207 52Q238 52 265 66T312 105T342 160T353 222V237ZM356 0Q356 38 357 62T361 105H359Q350 81 334 61T295 24T245 0T186
-9Q126 -9 88 27T50 123Q50 201 129 246T353 292V322Q353 386 328 416T241 446Q207 446 167 437T90 411L76 470Q117 487 161 496T250 506Q299 506 333 494T388 460T418 405T428 332V149Q428 116 428 93T428 45T430 0H356ZM133 623V680H378V623H133Z" />
<glyph unicode="&#x102;" glyph-name="Abreve" horiz-adv-x="611" d="M333 506Q324 533 317 554T303 599H302Q295 575 288 553T273 508L172 229H433L333 506ZM511 0L452 167H152L93 0H23H13L261 675H351L598 0H588H511ZM428 849Q428 798 394 766T302 733Q243 733
211 766T179 849H229Q229 822 250 804T303 786Q336 786 356 804T377 849H428Z" />
<glyph unicode="&#x103;" glyph-name="abreve" horiz-adv-x="520" d="M353 237Q289 237 245 229T174 207T137 174T125 134Q125 98 147 75T207 52Q238 52 265 66T312 105T342 160T353 222V237ZM356 0Q356 38 357 62T361 105H359Q350 81 334 61T295 24T245 0T186
-9Q126 -9 88 27T50 123Q50 201 129 246T353 292V322Q353 386 328 416T241 446Q207 446 167 437T90 411L76 470Q117 487 161 496T250 506Q299 506 333 494T388 460T418 405T428 332V149Q428 116 428 93T428 45T430 0H356ZM378 717Q378 691 371 669T349 628T311
600T257 590Q226 590 204 600T167 628T145 668T138 717H190Q190 687 208 667T258 647Q289 647 307 665T325 717H378Z" />
<glyph unicode="&#x104;" glyph-name="Aogonek" horiz-adv-x="611" d="M333 506Q325 528 321 543T303 599H302Q296 578 288 553T273 508L172 229H433L333 506ZM631 -191Q607 -212 581 -222T525 -233Q477 -233 451 -210T424 -146Q424 -109 445 -71T511 0L452 167H152L93
0H13L261 675H351L598 0Q543 -34 520 -67T497 -132Q497 -153 508 -163T539 -174Q570 -174 605 -148L631 -191Z" />
<glyph unicode="&#x105;" glyph-name="aogonek" horiz-adv-x="520" d="M353 237Q289 237 245 229T174 207T137 174T125 134Q125 98 147 75T207 52Q238 52 265 66T312 105T342 160T353 222V237ZM482 -191Q459 -211 432 -222T377 -233Q329 -233 303 -210T276 -146Q276
-127 281 -108T298 -70T327 -31T369 6Q365 30 363 55T362 102L361 103Q340 54 294 23T186 -9Q126 -9 88 27T50 123Q50 201 129 246T353 292V322Q353 386 328 416T241 446Q207 446 167 437T90 411L76 470Q117 487 161 496T250 506Q299 506 333 494T388 460T418 405T428
332V181Q428 134 432 87T443 0Q392 -37 371 -69T349 -132Q349 -174 390 -174Q420 -174 457 -148L482 -191Z" />
<glyph unicode="&#x106;" glyph-name="Cacute" horiz-adv-x="590" d="M544 36Q500 17 451 5T350 -7Q275 -7 218 16T124 82T68 186T49 322Q49 400 68 465T127 579T228 655T370 682Q411 682 455 674T536 651L521 582Q480 600 440 608T358 617Q301 617 258 596T186
535T145 445T131 335Q131 203 190 132T367 60Q405 60 449 71T529 100L544 36ZM317 729L301 773L473 847L497 786L317 729Z" />
<glyph unicode="&#x107;" glyph-name="cacute" horiz-adv-x="440" d="M411 21Q379 8 339 1T259 -7Q214 -7 176 4T108 43T61 116T44 231Q44 292 59 342T105 429T179 484T281 504Q353 504 408 482L393 418Q366 429 335 435T272 442Q237 442 209 428T162 387T133
324T123 244Q123 203 130 170T155 112T201 72T274 57Q342 57 397 83L411 21ZM250 573L212 609L333 747L382 701L250 573Z" />
<glyph unicode="&#x108;" glyph-name="Ccircumflex" horiz-adv-x="590" d="M544 36Q500 17 451 5T350 -7Q275 -7 218 16T124 82T68 186T49 322Q49 400 68 465T127 579T228 655T370 682Q411 682 455 674T536 651L521 582Q480 600 440 608T358 617Q301 617 258 596T186
535T145 445T131 335Q131 203 190 132T367 60Q405 60 449 71T529 100L544 36ZM486 727L353 789L219 727L197 772L354 854L509 773L486 727Z" />
<glyph unicode="&#x109;" glyph-name="ccircumflex" horiz-adv-x="440" d="M411 21Q379 8 339 1T259 -7Q214 -7 176 4T108 43T61 116T44 231Q44 292 59 342T105 429T179 484T281 504Q353 504 408 482L393 418Q366 429 335 435T272 442Q237 442 209 428T162 387T133
324T123 244Q123 203 130 170T155 112T201 72T274 57Q342 57 397 83L411 21ZM360 575L262 661L162 575L129 610L263 740L396 612L360 575Z" />
<glyph unicode="&#x10a;" glyph-name="Cdotaccent" horiz-adv-x="590" d="M544 36Q500 17 451 5T350 -7Q275 -7 218 16T124 82T68 186T49 322Q49 400 68 465T127 579T228 655T370 682Q411 682 455 674T536 651L521 582Q480 600 440 608T358 617Q301 617 258 596T186
535T145 445T131 335Q131 203 190 132T367 60Q405 60 449 71T529 100L544 36ZM405 782Q405 761 390 746T355 731Q334 731 319 745T304 782Q304 803 319 818T355 833Q376 833 390 819T405 782Z" />
<glyph unicode="&#x10b;" glyph-name="cdotaccent" horiz-adv-x="440" d="M411 21Q379 8 339 1T259 -7Q214 -7 176 4T108 43T61 116T44 231Q44 292 59 342T105 429T179 484T281 504Q353 504 408 482L393 418Q366 429 335 435T272 442Q237 442 209 428T162 387T133
324T123 244Q123 203 130 170T155 112T201 72T274 57Q342 57 397 83L411 21ZM311 656Q311 635 296 621T261 606Q240 606 225 620T210 656Q210 677 225 692T261 707Q282 707 296 693T311 656Z" />
<glyph unicode="&#x10c;" glyph-name="Ccaron" horiz-adv-x="590" d="M544 36Q500 17 451 5T350 -7Q275 -7 218 16T124 82T68 186T49 322Q49 400 68 465T127 579T228 655T370 682Q411 682 455 674T536 651L521 582Q480 600 440 608T358 617Q301 617 258 596T186
535T145 445T131 335Q131 203 190 132T367 60Q405 60 449 71T529 100L544 36ZM350 727L195 809L218 854L351 792L485 854L507 810L350 727Z" />
<glyph unicode="&#x10d;" glyph-name="ccaron" horiz-adv-x="440" d="M411 21Q379 8 339 1T259 -7Q214 -7 176 4T108 43T61 116T44 231Q44 292 59 342T105 429T179 484T281 504Q353 504 408 482L393 418Q366 429 335 435T272 442Q237 442 209 428T162 387T133
324T123 244Q123 203 130 170T155 112T201 72T274 57Q342 57 397 83L411 21ZM264 575L132 702L166 740L265 654L365 740L398 704L264 575Z" />
<glyph unicode="&#x10e;" glyph-name="Dcaron" horiz-adv-x="683" d="M553 339Q553 616 278 616Q254 616 236 616T168 613V67Q188 64 215 62T265 60Q330 60 382 77T473 128T532 215T553 339ZM633 344Q633 259 606 194T528 85T408 19T255 -3Q218 -3 165 -2T91 0V675Q115
675 182 676T286 678Q369 678 433 658T542 597T610 493T633 344ZM301 727L146 809L169 854L302 792L436 854L458 810L301 727Z" />
<glyph unicode="&#x10f;" glyph-name="dcaron" horiz-adv-x="581" d="M392 432Q341 444 294 444Q217 445 172 395T125 232Q125 147 154 100T244 53Q281 53 309 72T356 122T383 188T392 257V432ZM393 0Q393 23 395 54T402 108L400 109Q379 55 333 23T229 -9Q137
-9 92 54T46 226Q46 292 64 344T115 431T195 484T300 503Q322 503 344 502T392 498V730H467V0H393ZM573 569L522 585L579 756L643 737L573 569Z" />
<glyph unicode="&#x110;" glyph-name="Dcroat" horiz-adv-x="691" d="M561 339Q561 476 492 546T286 616Q262 616 227 615T175 613V377H328V318H175V67Q185 66 197 65T223 62T249 61T273 60Q338 60 390 77T481 128T540 215T561 339ZM642 344Q642 259 615 194T537
85T417 19T263 -3Q227 -3 174 -2T100 0V318H3V377H100V675Q124 675 190 676T294 678Q463 678 552 596T642 344Z" />
<glyph unicode="&#x111;" glyph-name="dcroat" horiz-adv-x="558" d="M392 432Q343 444 295 444Q256 444 225 432T171 394T137 328T125 232Q125 146 154 100T244 53Q280 53 308 71T354 120T382 187T392 257V432ZM467 594V0H393Q393 27 395 57T402 108L400 109Q379
55 334 23T229 -9Q139 -9 93 53T46 226Q46 292 64 343T115 430T195 484T300 503Q321 503 342 502T392 498V594H272V647H392V730H467V647H542V594H467Z" />
<glyph unicode="&#x112;" glyph-name="Emacron" horiz-adv-x="514" d="M91 0V675H442V613H168V379H420V317H168V64H442V0H91ZM126 751V805H395V751H126Z" />
<glyph unicode="&#x113;" glyph-name="emacron" horiz-adv-x="505" d="M379 305Q380 373 348 410T258 448Q205 448 169 411T124 305H379ZM456 303Q456 286 456 271T454 250H122Q121 149 161 101T284 53Q320 53 356 59T430 80L441 21Q353 -9 274 -9Q160 -9 102
54T44 246Q44 301 59 349T102 432T171 486T263 506Q313 506 350 491T410 447T445 382T456 303ZM133 623V680H378V623H133Z" />
<glyph unicode="&#x114;" glyph-name="Ebreve" horiz-adv-x="514" d="M91 0V675H442V613H168V379H420V317H168V64H442V0H91ZM389 849Q389 798 355 766T263 733Q204 733 172 766T140 849H190Q190 822 211 804T264 786Q297 786 317 804T338 849H389Z" />
<glyph unicode="&#x115;" glyph-name="ebreve" horiz-adv-x="505" d="M379 305Q380 373 348 410T258 448Q205 448 169 411T124 305H379ZM456 303Q456 286 456 271T454 250H122Q121 149 161 101T284 53Q320 53 356 59T430 80L441 21Q353 -9 274 -9Q160 -9 102 54T44
246Q44 301 59 349T102 432T171 486T263 506Q313 506 350 491T410 447T445 382T456 303ZM376 717Q376 691 369 669T347 628T309 600T255 590Q224 590 202 600T165 628T143 668T136 717H188Q188 687 206 667T256 647Q287 647 305 665T323 717H376Z" />
<glyph unicode="&#x116;" glyph-name="Edotaccent" horiz-adv-x="514" d="M91 0V675H442V613H168V379H420V317H168V64H442V0H91ZM314 782Q314 761 299 746T264 731Q243 731 228 745T213 782Q213 803 228 818T264 833Q285 833 299 819T314 782Z" />
<glyph unicode="&#x117;" glyph-name="edotaccent" horiz-adv-x="505" d="M379 305Q380 373 348 410T258 448Q205 448 169 411T124 305H379ZM456 303Q456 286 456 271T454 250H122Q121 149 161 101T284 53Q320 53 356 59T430 80L441 21Q353 -9 274 -9Q160 -9 102
54T44 246Q44 301 59 349T102 432T171 486T263 506Q313 506 350 491T410 447T445 382T456 303ZM310 658Q310 637 295 623T260 608Q239 608 224 622T209 658Q209 679 224 694T260 709Q281 709 295 695T310 658Z" />
<glyph unicode="&#x118;" glyph-name="Eogonek" horiz-adv-x="514" d="M467 -191Q444 -211 417 -222T361 -233Q314 -233 288 -210T261 -146Q261 -104 287 -64T350 0H91V675H442V613H168V379H420V317H168V64H442V4Q420 -5 401 -20T366 -55T343 -94T334 -132Q334
-153 344 -163T375 -174Q405 -174 442 -148L467 -191Z" />
<glyph unicode="&#x119;" glyph-name="eogonek" horiz-adv-x="505" d="M441 22Q415 14 390 -2T344 -39T311 -84T298 -132Q298 -174 340 -174Q371 -174 406 -148L431 -191Q384 -233 326 -233Q277 -233 251 -210T225 -146Q225 -111 245 -74T305 -6Q297 -7 286 -7T267
-8Q216 -8 175 6T105 51T60 130T44 246Q44 301 59 349T102 431T170 486T263 506Q314 506 351 490T411 446T445 381T456 303Q456 293 456 278T454 250H122Q120 147 160 100T284 53Q355 53 430 80L441 22ZM379 305Q381 374 348 411T258 448Q205 448 169 411T124 305H379Z"
/>
<glyph unicode="&#x11a;" glyph-name="Ecaron" horiz-adv-x="514" d="M91 0V675H442V613H168V379H420V317H168V64H442V0H91ZM256 727L101 809L124 854L257 792L391 854L413 810L256 727Z" />
<glyph unicode="&#x11b;" glyph-name="ecaron" horiz-adv-x="505" d="M379 305Q380 373 348 410T258 448Q205 448 169 411T124 305H379ZM456 303Q456 286 456 271T454 250H122Q121 149 161 101T284 53Q320 53 356 59T430 80L441 21Q353 -9 274 -9Q160 -9 102 54T44
246Q44 301 59 349T102 432T171 486T263 506Q313 506 350 491T410 447T445 382T456 303ZM258 575L126 702L160 740L259 654L359 740L392 704L258 575Z" />
<glyph unicode="&#x11c;" glyph-name="Gcircumflex" horiz-adv-x="685" d="M599 29Q548 10 491 1T379 -9Q304 -9 241 13T135 79T69 184T46 323Q46 403 70 470T141 586T253 659T404 684Q452 684 498 677T589 655L572 585Q528 602 485 610T395 619Q343 619 294 604T207
551T149 462T127 335Q127 268 145 217T198 129T282 75T391 57Q428 57 460 62T522 77V340H599V29V29ZM513 727L380 789L246 727L224 772L381 854L536 773L513 727Z" />
<glyph unicode="&#x11d;" glyph-name="gcircumflex" horiz-adv-x="531" d="M426 -84Q426 -42 397 -19T302 6L216 9L190 11Q154 -11 136 -39T117 -97Q117 -121 127 -140T155 -172T200 -191T260 -198Q340 -198 383 -167T426 -84ZM375 329Q375 382 343 415T255 448Q200
448 168 415T136 329Q136 276 168 243T255 210Q311 210 343 243T375 329ZM502 -74Q502 -114 484 -148T433 -206T353 -244T248 -257Q150 -257 95 -219T39 -110Q39 -68 63 -32T126 29Q104 40 93 58T82 99Q82 123 95 143T135 182Q99 205 81 242T62 322Q62 361 75 394T113
453T176 492T261 506Q278 506 295 504T328 497H495V438H414Q431 417 440 392T449 337Q449 298 436 265T398 206T335 167T250 153Q234 153 220 154T191 159Q176 149 168 138T159 114Q159 96 177 86T239 74L322 71Q412 68 457 30T502 -74ZM356 575L258 661L158 575L125
610L259 740L392 612L356 575Z" />
<glyph unicode="&#x11e;" glyph-name="Gbreve" horiz-adv-x="685" d="M599 29Q548 10 491 1T379 -9Q304 -9 241 13T135 79T69 184T46 323Q46 403 70 470T141 586T253 659T404 684Q452 684 498 677T589 655L572 585Q528 602 485 610T395 619Q343 619 294 604T207
551T149 462T127 335Q127 268 145 217T198 129T282 75T391 57Q428 57 460 62T522 77V340H599V29V29ZM509 849Q509 798 475 766T383 733Q324 733 292 766T260 849H310Q310 822 331 804T384 786Q417 786 437 804T458 849H509Z" />
<glyph unicode="&#x11f;" glyph-name="gbreve" horiz-adv-x="531" d="M426 -84Q426 -42 397 -19T302 6L216 9L190 11Q154 -11 136 -39T117 -97Q117 -121 127 -140T155 -172T200 -191T260 -198Q340 -198 383 -167T426 -84ZM375 329Q375 382 343 415T255 448Q200
448 168 415T136 329Q136 276 168 243T255 210Q311 210 343 243T375 329ZM502 -74Q502 -114 484 -148T433 -206T353 -244T248 -257Q150 -257 95 -219T39 -110Q39 -68 63 -32T126 29Q104 40 93 58T82 99Q82 123 95 143T135 182Q99 205 81 242T62 322Q62 361 75 394T113
453T176 492T261 506Q278 506 295 504T328 497H495V438H414Q431 417 440 392T449 337Q449 298 436 265T398 206T335 167T250 153Q234 153 220 154T191 159Q176 149 168 138T159 114Q159 96 177 86T239 74L322 71Q412 68 457 30T502 -74ZM384 717Q384 691 377 669T355
628T317 600T263 590Q232 590 210 600T173 628T151 668T144 717H196Q196 687 214 667T264 647Q295 647 313 665T331 717H384Z" />
<glyph unicode="&#x120;" glyph-name="Gdotaccent" horiz-adv-x="685" d="M599 29Q548 10 491 1T379 -9Q304 -9 241 13T135 79T69 184T46 323Q46 403 70 470T141 586T253 659T404 684Q452 684 498 677T589 655L572 585Q528 602 485 610T395 619Q343 619 294 604T207
551T149 462T127 335Q127 268 145 217T198 129T282 75T391 57Q428 57 460 62T522 77V340H599V29V29ZM428 784Q428 763 413 748T378 733Q357 733 342 747T327 784Q327 805 342 820T378 835Q399 835 413 821T428 784Z" />
<glyph unicode="&#x121;" glyph-name="gdotaccent" horiz-adv-x="531" d="M426 -84Q426 -42 397 -19T302 6L216 9L190 11Q154 -11 136 -39T117 -97Q117 -121 127 -140T155 -172T200 -191T260 -198Q340 -198 383 -167T426 -84ZM375 329Q375 382 343 415T255 448Q200
448 168 415T136 329Q136 276 168 243T255 210Q311 210 343 243T375 329ZM502 -74Q502 -114 484 -148T433 -206T353 -244T248 -257Q150 -257 95 -219T39 -110Q39 -68 63 -32T126 29Q104 40 93 58T82 99Q82 123 95 143T135 182Q99 205 81 242T62 322Q62 361 75 394T113
453T176 492T261 506Q278 506 295 504T328 497H495V438H414Q431 417 440 392T449 337Q449 298 436 265T398 206T335 167T250 153Q234 153 220 154T191 159Q176 149 168 138T159 114Q159 96 177 86T239 74L322 71Q412 68 457 30T502 -74ZM307 658Q307 637 292 623T257
608Q236 608 221 622T206 658Q206 679 221 694T257 709Q278 709 292 695T307 658Z" />
<glyph unicode="&#x122;" glyph-name="Gcommaaccent" horiz-adv-x="685" d="M599 29Q548 10 491 1T379 -9Q304 -9 241 13T135 79T69 184T46 323Q46 403 70 470T141 586T253 659T404 684Q452 684 498 677T589 655L572 585Q528 602 485 610T395 619Q343 619 294
604T207 551T149 462T127 335Q127 268 145 217T198 129T282 75T391 57Q428 57 460 62T522 77V340H599V29V29ZM292 -211Q316 -191 326 -173T337 -138Q337 -130 335 -125T330 -114T325 -104T323 -92Q323 -75 335 -63T366 -50Q387 -50 400 -65T414 -104Q414 -134 391
-168T316 -239L292 -211Z" />
<glyph unicode="&#x123;" glyph-name="gcommaaccent" horiz-adv-x="531" d="M426 -84Q426 -42 397 -19T302 6L216 9L190 11Q154 -11 136 -39T117 -97Q117 -121 127 -140T155 -172T200 -191T260 -198Q340 -198 383 -167T426 -84ZM375 329Q375 382 343 415T255 448Q200
448 168 415T136 329Q136 276 168 243T255 210Q311 210 343 243T375 329ZM502 -74Q502 -114 484 -148T433 -206T353 -244T248 -257Q150 -257 95 -219T39 -110Q39 -68 63 -32T126 29Q104 40 93 58T82 99Q82 123 95 143T135 182Q99 205 81 242T62 322Q62 361 75 394T113
453T176 492T261 506Q278 506 295 504T328 497H495V438H414Q431 417 440 392T449 337Q449 298 436 265T398 206T335 167T250 153Q234 153 220 154T191 159Q176 149 168 138T159 114Q159 96 177 86T239 74L322 71Q412 68 457 30T502 -74ZM258 567Q239 567 225 582T211
622Q211 652 234 687T309 757L332 728Q308 708 298 690T287 656Q287 648 289 643T294 632T299 621T301 609Q301 591 289 579T258 567Z" />
<glyph unicode="&#x124;" glyph-name="Hcircumflex" horiz-adv-x="702" d="M535 0V318H168V0H91V675H168V382H535V675H611V0H535ZM485 727L352 789L218 727L196 772L353 854L508 773L485 727Z" />
<glyph unicode="&#x125;" glyph-name="hcircumflex" horiz-adv-x="577" d="M411 0V321Q411 380 392 412T318 444Q285 444 257 429T209 385T177 320T166 238V0H91V730H166V486Q166 461 165 436T158 387L160 386Q182 441 227 473T337 506Q380 506 408 494T454 460T478
409T486 346V0H411ZM420 759L287 821L153 759L131 804L288 886L443 805L420 759Z" />
<glyph unicode="&#x126;" glyph-name="Hbar" horiz-adv-x="722" d="M178 498V375H545V498H178ZM701 560V498H621V0H545V314H178V0H101V498H21V560H101V675H178V560H545V675H621V560H701Z" />
<glyph unicode="&#x127;" glyph-name="hbar" horiz-adv-x="579" d="M413 0V321Q413 382 392 412T319 443Q286 443 258 428T210 384T179 319T168 237V0H93V588H0V647H93V730H168V647H309V588H168V482Q168 455 166 429T159 386L161 385Q183 441 229 473T338 505Q380
505 409 493T455 460T480 409T488 345V0H413Z" />
<glyph unicode="&#x128;" glyph-name="Itilde" horiz-adv-x="259" d="M91 0V675H168V0H91ZM303 808Q263 738 196 738Q173 738 156 745T119 766T88 786T62 792Q26 792 -2 746L-42 775Q-23 809 4 827T65 845Q88 845 105 838T142 817T173 797T199 791Q234 791 263
837L303 808Z" />
<glyph unicode="&#x129;" glyph-name="itilde" horiz-adv-x="257" d="M91 0V497H166V0H91ZM527 673Q495 604 435 604Q419 604 406 610T374 629T348 646T332 651Q317 651 305 640T284 609L246 637Q259 668 282 688T338 708Q354 708 368 702T400 682T426 665T442
660Q456 660 468 671T489 702L527 673Z" />
<glyph unicode="&#x12a;" glyph-name="Imacron" horiz-adv-x="259" d="M91 0V675H168V0H91ZM252 751V805H521V751H252Z" />
<glyph unicode="&#x12b;" glyph-name="imacron" horiz-adv-x="257" d="M91 0V497H166V0H91ZM271 623V680H500V623H271Z" />
<glyph unicode="&#x12c;" glyph-name="Ibreve" horiz-adv-x="259" d="M91 0V675H168V0H91ZM511 849Q511 798 477 766T385 733Q326 733 294 766T262 849H312Q312 822 333 804T386 786Q419 786 439 804T460 849H511Z" />
<glyph unicode="&#x12d;" glyph-name="ibreve" horiz-adv-x="257" d="M91 0V497H166V0H91ZM499 717Q499 656 469 623T385 590Q331 590 303 623T274 717H326Q326 688 342 668T386 647Q414 647 429 666T445 717H499Z" />
<glyph unicode="&#x12e;" glyph-name="Iogonek" horiz-adv-x="259" d="M225 -191Q202 -211 176 -222T120 -233Q72 -233 46 -210T19 -146Q19 -128 23 -110T37 -73T59 -36T91 2V675H168V0Q127 -37 110 -70T92 -132Q92 -153 103 -163T134 -174Q163 -174 200 -148L225 -191Z" />
<glyph unicode="&#x12f;" glyph-name="iogonek" horiz-adv-x="257" d="M225 -191Q202 -211 175 -222T119 -233Q72 -233 46 -210T19 -146Q19 -110 37 -74T91 2V497H166V0Q126 -37 109 -70T92 -132Q92 -174 133 -174Q163 -174 200 -148L225 -191ZM181 657Q181 636
166 621T129 606Q107 606 92 620T77 657Q77 678 92 693T129 708Q150 708 165 693T181 657Z" />
<glyph unicode="&#x130;" glyph-name="Idotaccent" horiz-adv-x="259" d="M91 0V675H168V0H91ZM439 782Q439 761 424 746T389 731Q368 731 353 745T338 782Q338 803 353 818T389 833Q410 833 424 819T439 782Z" />
<glyph unicode="&#x131;" glyph-name="dotlessi" horiz-adv-x="257" d="M91 0V497H166V0H91Z" />
<glyph unicode="&#x132;" glyph-name="IJ" horiz-adv-x="604" d="M91 0V675H168V0H91ZM513 172Q513 85 470 39T340 -7Q322 -7 299 -5T260 1V70Q274 65 298 62T341 58Q364 58 381 63T410 82T430 118T437 177V675H513V172Z" />
<glyph unicode="&#x133;" glyph-name="ij" horiz-adv-x="521" d="M91 0V497H166V0H91ZM181 657Q181 636 166 621T129 606Q107 606 92 620T77 657Q77 678 92 693T129 708Q150 708 165 694T181 657ZM430 -63Q430 -113 422 -149T394 -209T345 -245T274 -256Q258 -256
239 -254T200 -248L207 -182Q221 -187 241 -190T279 -193Q302 -193 316 -187T339 -167T352 -129T356 -68V497H430V-63V-63ZM445 657Q445 636 430 621T393 606Q372 606 357 620T342 657Q342 678 357 693T393 708Q415 708 430 694T445 657Z" />
<glyph unicode="&#x134;" glyph-name="Jcircumflex" horiz-adv-x="345" d="M254 172Q254 85 211 39T81 -7Q63 -7 40 -5T1 1V70Q15 65 39 62T82 58Q105 58 122 63T151 82T171 118T178 177V675H254V172ZM603 727L470 789L336 727L314 772L471 854L626 773L603 727Z" />
<glyph unicode="&#x135;" glyph-name="jcircumflex" horiz-adv-x="265" d="M173 -63Q173 -113 165 -149T138 -209T89 -244T17 -256Q-9 -256 -29 -253T-57 -248L-50 -182Q-42 -185 -23 -189T22 -193Q44 -193 58 -187T82 -167T95 -129T99 -68V497H173V-63ZM479 575L393
661L306 575L273 610L394 739L514 611L479 575Z" />
<glyph unicode="&#x136;" glyph-name="Kcommaaccent" horiz-adv-x="579" d="M455 0L168 339V0H91V675H168V352L456 675H549L250 350L561 0H455ZM224 -211Q248 -191 258 -173T269 -138Q269 -130 267 -125T262 -114T257 -104T255 -92Q255 -75 267 -63T298 -50Q319
-50 332 -65T346 -104Q346 -134 323 -168T248 -239L224 -211Z" />
<glyph unicode="&#x137;" glyph-name="kcommaaccent" horiz-adv-x="482" d="M362 0L166 261V0H91V730H166V274L353 497H440L245 273L459 0H362ZM176 -211Q200 -191 210 -173T221 -138Q221 -130 219 -125T214 -114T209 -104T207 -92Q207 -75 219 -63T250 -50Q271
-50 284 -65T298 -104Q298 -134 275 -168T200 -239L176 -211Z" />
<glyph unicode="&#x138;" glyph-name="kgreenlandic" horiz-adv-x="482" d="M358 0L166 254V0H91V497H166V268L358 497H445L245 267L455 0H358Z" />
<glyph unicode="&#x139;" glyph-name="Lacute" horiz-adv-x="425" d="M91 0V675H168V64H418V0H91ZM160 729L144 773L316 847L340 786L160 729Z" />
<glyph unicode="&#x13a;" glyph-name="lacute" horiz-adv-x="257" d="M91 0V730H166V0H91ZM358 789L342 833L514 907L538 846L358 789Z" />
<glyph unicode="&#x13b;" glyph-name="Lcommaaccent" horiz-adv-x="425" d="M91 0V675H168V64H418V0H91ZM183 -211Q207 -191 217 -173T228 -138Q228 -130 226 -125T221 -114T216 -104T214 -92Q214 -75 226 -63T257 -50Q278 -50 291 -65T305 -104Q305 -134 282
-168T207 -239L183 -211Z" />
<glyph unicode="&#x13c;" glyph-name="lcommaaccent" horiz-adv-x="257" d="M91 0V730H166V0H91ZM56 -211Q80 -191 90 -173T101 -138Q101 -130 99 -125T94 -114T89 -104T87 -92Q87 -75 99 -63T130 -50Q151 -50 164 -65T178 -104Q178 -134 155 -168T80 -239L56 -211Z" />
<glyph unicode="&#x13d;" glyph-name="Lcaron" horiz-adv-x="427" d="M91 0V675H168V64H418V0H91ZM288 614L244 643L348 789L404 753L288 614Z" />
<glyph unicode="&#x13e;" glyph-name="lcaron" horiz-adv-x="279" d="M91 0V730H166V0H91ZM272 569L221 585L278 756L342 737L272 569Z" />
<glyph unicode="&#x13f;" glyph-name="Ldot" horiz-adv-x="546" d="M91 0V675H168V64H418V0H91ZM480 347Q480 323 464 307T423 290Q399 290 383 306T366 347Q366 371 382 387T423 404Q447 404 463 388T480 347Z" />
<glyph unicode="&#x140;" glyph-name="ldot" horiz-adv-x="370" d="M91 0V730H166V0H91ZM370 297Q370 273 354 257T313 240Q289 240 273 256T256 297Q256 321 272 337T313 354Q337 354 353 338T370 297Z" />
<glyph unicode="&#x141;" glyph-name="Lslash" horiz-adv-x="434" d="M100 0V362L17 324L-1 381L100 427V675H176V463L292 516L310 459L176 398V64H427V0H100Z" />
<glyph unicode="&#x142;" glyph-name="lslash" horiz-adv-x="288" d="M184 419V0H109V378L42 339L22 392L109 442V730H184V484L257 526L278 473L184 419Z" />
<glyph unicode="&#x143;" glyph-name="Nacute" horiz-adv-x="694" d="M528 0H525L260 416Q240 447 225 472T199 517T178 554T160 588H158Q159 558 160 510T163 407T165 294T166 190V0H91V675H166H188L438 282Q459 249 474 225T500 182T519 147T534 117H536Q534
151 533 197T530 295T529 400T528 503V675H603V0H528ZM330 729L314 773L486 847L510 786L330 729Z" />
<glyph unicode="&#x144;" glyph-name="nacute" horiz-adv-x="577" d="M411 0V321Q411 383 391 413T318 444Q285 444 257 429T209 385T177 320T166 238V0H91V497H165Q165 471 163 440T157 386L159 385Q181 441 227 473T337 506Q378 506 407 494T453 461T478 410T486
346V0H411ZM296 573L258 609L379 747L428 701L296 573Z" />
<glyph unicode="&#x145;" glyph-name="Ncommaaccent" horiz-adv-x="694" d="M528 0H525L260 416Q240 447 225 472T199 517T178 554T160 588H158Q159 558 160 510T163 407T165 294T166 190V0H91V675H166H188L438 282Q459 249 474 225T500 182T519 147T534 117H536Q534
151 533 197T530 295T529 400T528 503V675H603V0H528ZM275 -211Q299 -191 309 -173T320 -138Q320 -130 318 -125T313 -114T308 -104T306 -92Q306 -75 318 -63T349 -50Q370 -50 383 -65T397 -104Q397 -134 374 -168T299 -239L275 -211Z" />
<glyph unicode="&#x146;" glyph-name="ncommaaccent" horiz-adv-x="577" d="M411 0V321Q411 383 391 413T318 444Q285 444 257 429T209 385T177 320T166 238V0H91V497H165Q165 471 163 440T157 386L159 385Q181 441 227 473T337 506Q378 506 407 494T453 461T478
410T486 346V0H411ZM219 -211Q243 -191 253 -173T264 -138Q264 -130 262 -125T257 -114T252 -104T250 -92Q250 -75 262 -63T293 -50Q314 -50 327 -65T341 -104Q341 -134 318 -168T243 -239L219 -211Z" />
<glyph unicode="&#x147;" glyph-name="Ncaron" horiz-adv-x="694" d="M528 0H525L260 416Q240 447 225 472T199 517T178 554T160 588H158Q159 558 160 510T163 407T165 294T166 190V0H91V675H166H188L438 282Q459 249 474 225T500 182T519 147T534 117H536Q534
151 533 197T530 295T529 400T528 503V675H603V0H528ZM354 727L199 809L222 854L355 792L489 854L511 810L354 727Z" />
<glyph unicode="&#x148;" glyph-name="ncaron" horiz-adv-x="577" d="M411 0V321Q411 383 391 413T318 444Q285 444 257 429T209 385T177 320T166 238V0H91V497H165Q165 471 163 440T157 386L159 385Q181 441 227 473T337 506Q378 506 407 494T453 461T478 410T486
346V0H411ZM292 575L160 702L194 740L293 654L393 740L426 704L292 575Z" />
<glyph unicode="&#x149;" glyph-name="napostrophe" horiz-adv-x="653" d="M99 741Q122 741 136 723T150 672T126 597T52 506L21 534Q66 583 72 616T64 669Q55 680 54 693T58 716T74 734T99 741ZM486 0V321Q486 383 466 413T393 444Q360 444 332 429T284 385T252
320T241 238V0H166V497H240Q240 471 238 440T232 386L234 385Q256 441 302 473T412 506Q453 506 482 494T528 461T553 410T561 346V0H486Z" />
<glyph unicode="&#x14a;" glyph-name="Eng" horiz-adv-x="694" d="M604 7Q604 -63 591 -109T553 -186T493 -232T415 -257L399 -198Q429 -192 453 -181T494 -148T519 -94T528 -8L234 455Q191 526 159 587Q161 558 162 510T164 406T165 293T166 190V0H91V675H185L469
230Q487 203 502 175T536 114Q535 148 534 195T531 294T530 401T529 502V675H604V7Z" />
<glyph unicode="&#x14b;" glyph-name="eng" horiz-adv-x="577" d="M491 203Q491 113 487 55T475 -41T455 -100T423 -142Q402 -162 374 -175T303 -200L287 -142Q343 -128 369 -102Q383 -88 391 -72T405 -27T413 50T416 175V195Q416 270 410 318T391 394T358 433T309
444Q280 444 254 429T208 388T177 326T166 253V0H91V497H165Q165 464 163 436T157 387H158Q179 441 224 473T327 506Q372 506 403 491T453 442T482 354T491 219V203Z" />
<glyph unicode="&#x14c;" glyph-name="Omacron" horiz-adv-x="708" d="M582 333Q582 464 524 541T354 618Q306 618 265 600T192 547T144 460T126 343Q126 279 140 227T184 136T255 78T354 57Q402 57 443 75T516 128T564 215T582 333ZM662 346Q662 262 638 196T569
84T468 15T345 -9Q274 -9 218 14T124 82T66 189T46 329Q46 413 70 479T139 591T240 660T363 684Q434 684 490 661T584 593T642 486T662 346ZM221 751V805H490V751H221Z" />
<glyph unicode="&#x14d;" glyph-name="omacron" horiz-adv-x="542" d="M422 249Q422 341 382 392T272 444Q238 444 210 432T162 394T132 333T121 248Q121 156 160 105T270 54Q303 54 330 65T378 101T410 162T422 249ZM499 254Q499 199 484 151T439 67T365 11T263
-9Q213 -9 173 6T103 53T59 132T43 243Q43 298 58 346T104 430T178 486T280 506Q330 506 370 491T439 444T483 365T499 254ZM152 623V680H397V623H152Z" />
<glyph unicode="&#x14e;" glyph-name="Obreve" horiz-adv-x="708" d="M582 333Q582 464 524 541T354 618Q306 618 265 600T192 547T144 460T126 343Q126 279 140 227T184 136T255 78T354 57Q402 57 443 75T516 128T564 215T582 333ZM662 346Q662 262 638 196T569
84T468 15T345 -9Q274 -9 218 14T124 82T66 189T46 329Q46 413 70 479T139 591T240 660T363 684Q434 684 490 661T584 593T642 486T662 346ZM479 849Q479 798 445 766T353 733Q294 733 262 766T230 849H280Q280 822 301 804T354 786Q387 786 407 804T428 849H479Z"
/>
<glyph unicode="&#x14f;" glyph-name="obreve" horiz-adv-x="542" d="M422 249Q422 341 382 392T272 444Q238 444 210 432T162 394T132 333T121 248Q121 156 160 105T270 54Q303 54 330 65T378 101T410 162T422 249ZM499 254Q499 199 484 151T439 67T365 11T263
-9Q213 -9 173 6T103 53T59 132T43 243Q43 298 58 346T104 430T178 486T280 506Q330 506 370 491T439 444T483 365T499 254ZM391 717Q391 691 384 669T362 628T324 600T270 590Q239 590 217 600T180 628T158 668T151 717H203Q203 687 221 667T271 647Q302 647 320
665T338 717H391Z" />
<glyph unicode="&#x150;" glyph-name="Ohungarumlaut" horiz-adv-x="708" d="M582 333Q582 464 524 541T354 618Q306 618 265 600T192 547T144 460T126 343Q126 279 140 227T184 136T255 78T354 57Q402 57 443 75T516 128T564 215T582 333ZM662 346Q662 262 638
196T569 84T468 15T345 -9Q274 -9 218 14T124 82T66 189T46 329Q46 413 70 479T139 591T240 660T363 684Q434 684 490 661T584 593T642 486T662 346ZM276 728L238 764L346 886L394 841L276 728ZM445 728L408 764L534 884L580 838L445 728Z" />
<glyph unicode="&#x151;" glyph-name="ohungarumlaut" horiz-adv-x="542" d="M422 249Q422 341 382 392T272 444Q238 444 210 432T162 394T132 333T121 248Q121 156 160 105T270 54Q303 54 330 65T378 101T410 162T422 249ZM499 254Q499 199 484 151T439 67T365
11T263 -9Q213 -9 173 6T103 53T59 132T43 243Q43 298 58 346T104 430T178 486T280 506Q330 506 370 491T439 444T483 365T499 254ZM202 575L164 609L277 743L326 701L202 575ZM369 575L331 609L454 738L502 695L369 575Z" />
<glyph unicode="&#x152;" glyph-name="OE" horiz-adv-x="875" d="M461 604Q438 611 410 614T354 618Q306 618 265 600T192 547T144 460T126 343Q126 279 140 227T184 136T255 78T354 57Q377 57 407 60T461 69V604ZM465 0Q410 -9 345 -9Q274 -9 218 14T124 82T66
189T46 329Q46 413 70 479T139 591T240 660T363 684Q424 684 470 675H800V613H537V379H788V317H537V64H800V0H465Z" />
<glyph unicode="&#x153;" glyph-name="oe" horiz-adv-x="878" d="M422 249Q422 341 382 392T272 444Q238 444 210 432T162 394T132 333T121 248Q121 156 160 105T270 54Q303 54 330 65T378 101T410 162T422 249ZM752 310Q753 374 721 411T632 448Q579 448 543
412T498 310H752ZM830 305Q830 289 830 275T828 255H496Q492 151 533 102T657 53Q730 53 803 80L814 21Q727 -9 647 -9Q570 -9 523 19T453 99Q426 50 379 21T263 -9Q160 -9 102 54T43 243Q43 298 58 346T104 430T178 486T280 506Q342 506 389 480T462 403Q488 451
532 478T636 506Q686 506 723 491T784 447T819 383T830 305Z" />
<glyph unicode="&#x154;" glyph-name="Racute" horiz-adv-x="564" d="M410 489Q410 551 369 584T250 617Q210 617 168 614V359Q178 359 200 359T246 358Q325 358 367 392T410 489ZM440 0L222 300H168V0H91V674Q113 675 160 676T258 678Q310 678 352 668T426 635T473
579T490 499Q490 455 476 421T435 363T376 326T303 307Q311 299 327 279T360 236L536 0H440ZM224 729L208 773L380 847L404 786L224 729Z" />
<glyph unicode="&#x155;" glyph-name="racute" horiz-adv-x="354" d="M328 431Q245 445 206 385T166 199V0H91V497H165Q165 472 162 438T154 372L155 371Q162 398 176 424T211 469T262 499T331 505L328 431ZM212 573L174 609L295 747L344 701L212 573Z" />
<glyph unicode="&#x156;" glyph-name="Rcommaaccent" horiz-adv-x="564" d="M410 489Q410 551 369 584T250 617Q210 617 168 614V359Q178 359 200 359T246 358Q325 358 367 392T410 489ZM440 0L222 300H168V0H91V674Q113 675 160 676T258 678Q310 678 352 668T426
635T473 579T490 499Q490 455 476 421T435 363T376 326T303 307Q311 299 327 279T360 236L536 0H440ZM211 -211Q235 -191 245 -173T256 -138Q256 -130 254 -125T249 -114T244 -104T242 -92Q242 -75 254 -63T285 -50Q306 -50 319 -65T333 -104Q333 -134 310 -168T235
-239L211 -211Z" />
<glyph unicode="&#x157;" glyph-name="rcommaaccent" horiz-adv-x="354" d="M328 431Q245 445 206 385T166 199V0H91V497H165Q165 472 162 438T154 372L155 371Q162 398 176 424T211 469T262 499T331 505L328 431ZM63 -211Q87 -191 97 -173T108 -138Q108 -130
106 -125T101 -114T96 -104T94 -92Q94 -75 106 -63T137 -50Q158 -50 171 -65T185 -104Q185 -134 162 -168T87 -239L63 -211Z" />
<glyph unicode="&#x158;" glyph-name="Rcaron" horiz-adv-x="564" d="M410 489Q410 551 369 584T250 617Q210 617 168 614V359Q178 359 200 359T246 358Q325 358 367 392T410 489ZM440 0L222 300H168V0H91V674Q113 675 160 676T258 678Q310 678 352 668T426 635T473
579T490 499Q490 455 476 421T435 363T376 326T303 307Q311 299 327 279T360 236L536 0H440ZM258 727L103 809L126 854L259 792L393 854L415 810L258 727Z" />
<glyph unicode="&#x159;" glyph-name="rcaron" horiz-adv-x="354" d="M328 431Q245 445 206 385T166 199V0H91V497H165Q165 472 162 438T154 372L155 371Q162 398 176 424T211 469T262 499T331 505L328 431ZM467 575L335 702L369 740L468 654L568 740L601 704L467 575Z" />
<glyph unicode="&#x15a;" glyph-name="Sacute" horiz-adv-x="504" d="M450 187Q450 144 434 109T387 47T311 6T207 -9Q168 -9 129 -4T58 11L69 84Q101 72 138 65T212 58Q247 58 276 65T326 86T358 124T370 179Q370 217 349 242T301 281T219 318T131 363T77 418T55
503Q55 543 70 576T115 633T188 671T284 684Q313 684 345 681T405 671L396 602Q368 610 338 615T278 620Q207 620 170 591T133 510Q133 473 154 449T202 411T284 374T374 329T428 273T450 187ZM227 729L211 773L383 847L407 786L227 729Z" />
<glyph unicode="&#x15b;" glyph-name="sacute" horiz-adv-x="428" d="M375 140Q375 109 362 82T324 35T260 3T175 -9Q145 -9 113 -5T56 5L63 74Q88 65 121 59T183 53Q238 53 268 74T298 134Q298 162 282 178T247 202T184 226T113 257T71 298T54 366Q54 396 66
421T102 465T162 495T244 506Q268 506 293 504T343 496L336 432Q313 439 287 443T236 447Q184 447 157 427T130 372Q130 345 146 328T181 304T244 280T315 249T358 208T375 140ZM197 573L159 609L280 747L329 701L197 573Z" />
<glyph unicode="&#x15c;" glyph-name="Scircumflex" horiz-adv-x="504" d="M450 187Q450 144 434 109T387 47T311 6T207 -9Q168 -9 129 -4T58 11L69 84Q101 72 138 65T212 58Q247 58 276 65T326 86T358 124T370 179Q370 217 349 242T301 281T219 318T131 363T77
418T55 503Q55 543 70 576T115 633T188 671T284 684Q313 684 345 681T405 671L396 602Q368 610 338 615T278 620Q207 620 170 591T133 510Q133 473 154 449T202 411T284 374T374 329T428 273T450 187ZM393 727L260 789L126 727L104 772L261 854L416 773L393 727Z"
/>
<glyph unicode="&#x15d;" glyph-name="scircumflex" horiz-adv-x="428" d="M375 140Q375 109 362 82T324 35T260 3T175 -9Q145 -9 113 -5T56 5L63 74Q88 65 121 59T183 53Q238 53 268 74T298 134Q298 162 282 178T247 202T184 226T113 257T71 298T54 366Q54 396
66 421T102 465T162 495T244 506Q268 506 293 504T343 496L336 432Q313 439 287 443T236 447Q184 447 157 427T130 372Q130 345 146 328T181 304T244 280T315 249T358 208T375 140ZM568 575L470 661L370 575L337 610L471 740L604 612L568 575Z" />
<glyph unicode="&#x15e;" glyph-name="Scedilla" horiz-adv-x="504" d="M450 187Q450 144 434 109T387 47T311 6T207 -9Q168 -9 129 -4T58 11L69 84Q101 72 138 65T212 58Q247 58 276 65T326 86T358 124T370 179Q370 217 349 242T301 281T219 318T131 363T77 418T55
503Q55 543 70 576T115 633T188 671T284 684Q313 684 345 681T405 671L396 602Q368 610 338 615T278 620Q207 620 170 591T133 510Q133 473 154 449T202 411T284 374T374 329T428 273T450 187ZM264 -41Q300 -88 293 -135T241 -235H178Q199 -209 211 -188T225 -148T222
-110T197 -69L264 -41Z" />
<glyph unicode="&#x15f;" glyph-name="scedilla" horiz-adv-x="428" d="M375 140Q375 109 362 82T324 35T260 3T175 -9Q145 -9 113 -5T56 5L63 74Q88 65 121 59T183 53Q238 53 268 74T298 134Q298 162 282 178T247 202T184 226T113 257T71 298T54 366Q54 396 66
421T102 465T162 495T244 506Q268 506 293 504T343 496L336 432Q313 439 287 443T236 447Q184 447 157 427T130 372Q130 345 146 328T181 304T244 280T315 249T358 208T375 140ZM230 -41Q266 -88 259 -135T207 -235H144Q165 -209 177 -188T191 -148T188 -110T163
-69L230 -41Z" />
<glyph unicode="&#x160;" glyph-name="Scaron" horiz-adv-x="504" d="M450 187Q450 144 434 109T387 47T311 6T207 -9Q168 -9 129 -4T58 11L69 84Q101 72 138 65T212 58Q247 58 276 65T326 86T358 124T370 179Q370 217 349 242T301 281T219 318T131 363T77 418T55
503Q55 543 70 576T115 633T188 671T284 684Q313 684 345 681T405 671L396 602Q368 610 338 615T278 620Q207 620 170 591T133 510Q133 473 154 449T202 411T284 374T374 329T428 273T450 187ZM252 727L97 809L120 854L253 792L387 854L409 810L252 727Z" />
<glyph unicode="&#x161;" glyph-name="scaron" horiz-adv-x="428" d="M375 140Q375 109 362 82T324 35T260 3T175 -9Q145 -9 113 -5T56 5L63 74Q88 65 121 59T183 53Q238 53 268 74T298 134Q298 162 282 178T247 202T184 226T113 257T71 298T54 366Q54 396 66
421T102 465T162 495T244 506Q268 506 293 504T343 496L336 432Q313 439 287 443T236 447Q184 447 157 427T130 372Q130 345 146 328T181 304T244 280T315 249T358 208T375 140ZM471 575L339 702L373 740L472 654L572 740L605 704L471 575Z" />
<glyph unicode="&#x162;" glyph-name="uni0162" horiz-adv-x="519" d="M297 611V0H221V611H19V675H500V611H297ZM288 -41Q324 -88 317 -135T265 -235H202Q223 -209 235 -188T249 -148T246 -110T221 -69L288 -41Z" />
<glyph unicode="&#x163;" glyph-name="uni0163" horiz-adv-x="370" d="M336 3Q315 -2 290 -5T242 -8Q205 -8 181 0T141 27T120 72T113 140V438H7V497H113V662L188 683V497H333V438H188V161Q188 130 191 110T203 79T225 62T261 57Q298 57 330 65L336 3ZM244 -41Q280
-88 273 -135T221 -235H158Q179 -209 191 -188T205 -148T202 -110T177 -69L244 -41Z" />
<glyph unicode="&#x164;" glyph-name="Tcaron" horiz-adv-x="519" d="M297 611V0H221V611H19V675H500V611H297ZM257 727L102 809L125 854L258 792L392 854L414 810L257 727Z" />
<glyph unicode="&#x165;" glyph-name="tcaron" horiz-adv-x="373" d="M336 3Q315 -2 290 -5T242 -8Q205 -8 181 0T141 27T120 72T113 140V438H7V497H113V662L188 683V497H333V438H188V161Q188 130 191 110T203 79T225 62T261 57Q298 57 330 65L336 3ZM301 569L250
585L307 756L371 737L301 569Z" />
<glyph unicode="&#x166;" glyph-name="Tbar" horiz-adv-x="519" d="M221 611H19V675H500V611H297V379H418V317H297V0H221V317H101V379H221V611Z" />
<glyph unicode="&#x167;" glyph-name="tbar" horiz-adv-x="399" d="M344 3Q324 -2 299 -5T250 -8Q176 -8 149 27T121 139V230H21V286H121V440H15V497H121V662L196 683V497H341V440H196V286H329V230H196V160Q196 130 199 110T210 78T233 61T269 56Q288 56 305 58T338
65L344 3Z" />
<glyph unicode="&#x168;" glyph-name="Utilde" horiz-adv-x="697" d="M606 256Q606 126 539 59T340 -9Q265 -9 216 10T139 62T102 135T91 224V675H168V231Q168 192 176 161T203 105T258 68T346 54Q441 54 486 99T531 250V675H606V256ZM521 808Q481 738 414 738Q391
738 374 745T337 766T306 786T280 792Q244 792 216 746L176 775Q195 809 222 827T283 845Q306 845 323 838T360 817T391 797T417 791Q452 791 481 837L521 808Z" />
<glyph unicode="&#x169;" glyph-name="utilde" horiz-adv-x="577" d="M412 0Q412 25 414 56T420 111L418 112Q397 57 352 24T240 -9Q197 -9 169 3T123 37T98 88T91 151V497H166V176Q166 117 185 85T259 53Q292 53 320 68T368 111T400 177T411 259V497H486V0H412ZM455
672Q436 637 410 619T351 600Q329 600 313 607T277 629T247 650T222 656Q187 656 160 608L122 639Q141 674 167 693T226 712Q248 712 264 705T300 683T330 662T355 656Q390 656 417 703L455 672Z" />
<glyph unicode="&#x16a;" glyph-name="Umacron" horiz-adv-x="697" d="M606 256Q606 126 539 59T340 -9Q265 -9 216 10T139 62T102 135T91 224V675H168V231Q168 192 176 161T203 105T258 68T346 54Q441 54 486 99T531 250V675H606V256ZM215 751V805H484V751H215Z" />
<glyph unicode="&#x16b;" glyph-name="umacron" horiz-adv-x="577" d="M412 0Q412 25 414 56T420 111L418 112Q397 57 352 24T240 -9Q197 -9 169 3T123 37T98 88T91 151V497H166V176Q166 117 185 85T259 53Q292 53 320 68T368 111T400 177T411 259V497H486V0H412ZM167
623V680H412V623H167Z" />
<glyph unicode="&#x16c;" glyph-name="Ubreve" horiz-adv-x="697" d="M606 256Q606 126 539 59T340 -9Q265 -9 216 10T139 62T102 135T91 224V675H168V231Q168 192 176 161T203 105T258 68T346 54Q441 54 486 99T531 250V675H606V256ZM474 849Q474 798 440 766T348
733Q289 733 257 766T225 849H275Q275 822 296 804T349 786Q382 786 402 804T423 849H474Z" />
<glyph unicode="&#x16d;" glyph-name="ubreve" horiz-adv-x="577" d="M412 0Q412 25 414 56T420 111L418 112Q397 57 352 24T240 -9Q197 -9 169 3T123 37T98 88T91 151V497H166V176Q166 117 185 85T259 53Q292 53 320 68T368 111T400 177T411 259V497H486V0H412ZM409
717Q409 691 402 669T380 628T342 600T288 590Q257 590 235 600T198 628T176 668T169 717H221Q221 687 239 667T289 647Q320 647 338 665T356 717H409Z" />
<glyph unicode="&#x16e;" glyph-name="Uring" horiz-adv-x="697" d="M606 256Q606 126 539 59T340 -9Q265 -9 216 10T139 62T102 135T91 224V675H168V231Q168 192 176 161T203 105T258 68T346 54Q441 54 486 99T531 250V675H606V256ZM459 801Q459 756 428 726T344
695Q294 695 266 720T238 796Q238 841 269 871T353 901Q403 901 431 876T459 801ZM400 798Q400 856 348 856Q326 856 311 842T296 799Q296 741 348 741Q370 741 385 755T400 798Z" />
<glyph unicode="&#x16f;" glyph-name="uring" horiz-adv-x="577" d="M412 0Q412 25 414 56T420 111L418 112Q397 57 352 24T240 -9Q197 -9 169 3T123 37T98 88T91 151V497H166V176Q166 117 185 85T259 53Q292 53 320 68T368 111T400 177T411 259V497H486V0H412ZM398
659Q398 613 367 583T284 552Q234 552 207 578T179 654Q179 700 210 730T293 761Q343 761 370 735T398 659ZM341 656Q341 715 289 715Q267 715 252 700T237 657Q237 598 288 598Q310 598 325 613T341 656Z" />
<glyph unicode="&#x170;" glyph-name="Uhungarumlaut" horiz-adv-x="697" d="M606 256Q606 126 539 59T340 -9Q265 -9 216 10T139 62T102 135T91 224V675H168V231Q168 192 176 161T203 105T258 68T346 54Q441 54 486 99T531 250V675H606V256ZM258 728L220 764L328
886L376 841L258 728ZM427 728L390 764L516 884L562 838L427 728Z" />
<glyph unicode="&#x171;" glyph-name="uhungarumlaut" horiz-adv-x="577" d="M412 0Q412 25 414 56T420 111L418 112Q397 57 352 24T240 -9Q197 -9 169 3T123 37T98 88T91 151V497H166V176Q166 117 185 85T259 53Q292 53 320 68T368 111T400 177T411 259V497H486V0H412ZM213
575L175 609L288 743L337 701L213 575ZM380 575L342 609L465 738L513 695L380 575Z" />
<glyph unicode="&#x172;" glyph-name="Uogonek" horiz-adv-x="697" d="M606 256Q606 125 539 58Q514 34 479 14T412 -38Q365 -85 365 -132Q365 -174 406 -174Q423 -174 439 -168T473 -148L498 -191Q451 -233 392 -233Q344 -233 318 -210T292 -146Q292 -110 312
-74T372 -7Q364 -8 355 -8T337 -9Q260 -9 212 11T137 64T101 138T91 224V675H168V231Q168 195 175 163T202 106T256 68T346 54Q439 54 485 98T531 250V675H606V256Z" />
<glyph unicode="&#x173;" glyph-name="uogonek" horiz-adv-x="577" d="M541 -191Q517 -212 491 -222T435 -233Q387 -233 361 -210T334 -146Q334 -127 339 -108T356 -70T385 -31T427 6Q423 34 422 60T421 106H420Q395 53 349 22T240 -9Q199 -9 170 3T124 36T99
87T91 151V497H166V176Q166 114 186 84T259 53Q292 53 320 68T368 112T400 177T411 259V497H486V181Q486 134 490 87T501 0Q450 -37 429 -69T407 -132Q407 -174 449 -174Q480 -174 515 -148L541 -191Z" />
<glyph unicode="&#x174;" glyph-name="Wcircumflex" horiz-adv-x="954" d="M733 0H636L498 474Q492 498 486 522T476 570H475Q465 511 455 474L320 0H223L38 675H120L247 210Q257 169 263 137T276 74H277Q284 111 291 142T306 205L440 675H517L657 197Q665 168
673 136T687 74H688Q692 102 697 129T710 185L841 675H916L733 0ZM612 727L479 789L345 727L323 772L480 854L635 773L612 727Z" />
<glyph unicode="&#x175;" glyph-name="wcircumflex" horiz-adv-x="792" d="M611 0H524L415 323Q407 347 400 371T387 419H386Q380 392 370 355T351 292L260 0H172L19 497H103L189 196Q194 177 205 135T221 76H222Q228 103 236 134T255 197L350 497H436L533 197Q540
174 545 157T555 125T562 99T568 75H570Q575 98 583 126T603 196L693 497H773L611 0ZM494 575L396 661L296 575L263 610L397 740L530 612L494 575Z" />
<glyph unicode="&#x176;" glyph-name="Ycircumflex" horiz-adv-x="527" d="M301 264V0H225V264L4 675H89L212 443Q227 413 239 387T265 331H266Q279 360 292 389T321 445L442 675H523L301 264ZM396 727L263 789L129 727L107 772L264 854L419 773L396 727Z" />
<glyph unicode="&#x177;" glyph-name="ycircumflex" horiz-adv-x="471" d="M257 -47Q235 -106 212 -146T162 -210T102 -246T26 -257Q10 -257 -4 -255T-26 -251L-18 -186Q-11 -188 5 -190T40 -193Q63 -193 81 -187T116 -165T148 -123T178 -58L201 0L11 497H97L201
211Q213 177 222 149T240 90H241Q247 114 260 154T290 242L379 497H461L257 -47ZM333 575L235 661L135 575L102 610L236 740L369 612L333 575Z" />
<glyph unicode="&#x178;" glyph-name="Ydieresis" horiz-adv-x="527" d="M301 264V0H225V264L4 675H89L212 443Q227 413 239 387T265 331H266Q279 360 292 389T321 445L442 675H523L301 264ZM206 779Q206 760 193 746T159 732Q139 732 125 745T111 779Q111 799
125 813T159 827Q179 827 192 813T206 779ZM419 779Q419 760 406 746T372 732Q352 732 338 745T324 779Q324 799 338 813T372 827Q392 827 405 813T419 779Z" />
<glyph unicode="&#x179;" glyph-name="Zacute" horiz-adv-x="540" d="M46 0V56L345 521Q359 542 375 566T405 609Q373 608 335 608T247 607H57V675H492V618L177 132Q169 119 154 97T134 67Q149 69 188 69T311 70H495V0H46ZM252 729L236 773L408 847L432 786L252 729Z" />
<glyph unicode="&#x17a;" glyph-name="zacute" horiz-adv-x="446" d="M49 0V53L302 432Q275 431 238 431T161 430H54V497H388V445L137 67Q160 68 203 68T281 69H393V0H49ZM225 573L187 609L308 747L357 701L225 573Z" />
<glyph unicode="&#x17b;" glyph-name="Zdotaccent" horiz-adv-x="540" d="M46 0V56L345 521Q359 542 375 566T405 609Q373 608 335 608T247 607H57V675H492V618L177 132Q169 119 154 97T134 67Q149 69 188 69T311 70H495V0H46ZM320 782Q320 761 305 746T270 731Q249
731 234 745T219 782Q219 803 234 818T270 833Q291 833 305 819T320 782Z" />
<glyph unicode="&#x17c;" glyph-name="zdotaccent" horiz-adv-x="446" d="M49 0V53L302 432Q275 431 238 431T161 430H54V497H388V445L137 67Q160 68 203 68T281 69H393V0H49ZM269 656Q269 635 254 621T219 606Q198 606 183 620T168 656Q168 677 183 692T219 707Q240
707 254 693T269 656Z" />
<glyph unicode="&#x17d;" glyph-name="Zcaron" horiz-adv-x="540" d="M46 0V56L345 521Q359 542 375 566T405 609Q373 608 335 608T247 607H57V675H492V618L177 132Q169 119 154 97T134 67Q149 69 188 69T311 70H495V0H46ZM273 727L118 809L141 854L274 792L408
854L430 810L273 727Z" />
<glyph unicode="&#x17e;" glyph-name="zcaron" horiz-adv-x="446" d="M49 0V53L302 432Q275 431 238 431T161 430H54V497H388V445L137 67Q160 68 203 68T281 69H393V0H49ZM222 575L90 702L124 740L223 654L323 740L356 704L222 575Z" />
<glyph unicode="&#x17f;" glyph-name="longs" horiz-adv-x="259" d="M309 669Q299 672 287 673T263 674Q211 674 188 640T165 531V0H90V527Q90 632 135 683T267 735Q278 735 292 734T317 731L309 669Z" />
<glyph unicode="&#x192;" glyph-name="florin" horiz-adv-x="437" d="M188 92Q181 25 168 -23T131 -101T74 -145T-9 -159Q-26 -159 -45 -157T-81 -150L-68 -84Q-53 -89 -34 -93T5 -97Q31 -97 48 -90T78 -63T97 -11T111 72L139 347H15V406H145L160 544Q170 633
215 685T347 738Q362 738 381 737T418 732L408 669Q373 677 335 677Q290 677 267 648T236 553L221 406H389V347H215L188 92Z" />
<glyph unicode="&#x1e6;" glyph-name="Gcaron" horiz-adv-x="685" d="M599 29Q548 10 491 1T379 -9Q304 -9 241 13T135 79T69 184T46 323Q46 403 70 470T141 586T253 659T404 684Q452 684 498 677T589 655L572 585Q528 602 485 610T395 619Q343 619 294 604T207
551T149 462T127 335Q127 268 145 217T198 129T282 75T391 57Q428 57 460 62T522 77V340H599V29V29ZM371 727L216 809L239 854L372 792L506 854L528 810L371 727Z" />
<glyph unicode="&#x1e7;" glyph-name="gcaron" horiz-adv-x="531" d="M426 -84Q426 -42 397 -19T302 6L216 9L190 11Q154 -11 136 -39T117 -97Q117 -121 127 -140T155 -172T200 -191T260 -198Q340 -198 383 -167T426 -84ZM375 329Q375 382 343 415T255 448Q200
448 168 415T136 329Q136 276 168 243T255 210Q311 210 343 243T375 329ZM502 -74Q502 -114 484 -148T433 -206T353 -244T248 -257Q150 -257 95 -219T39 -110Q39 -68 63 -32T126 29Q104 40 93 58T82 99Q82 123 95 143T135 182Q99 205 81 242T62 322Q62 361 75 394T113
453T176 492T261 506Q278 506 295 504T328 497H495V438H414Q431 417 440 392T449 337Q449 298 436 265T398 206T335 167T250 153Q234 153 220 154T191 159Q176 149 168 138T159 114Q159 96 177 86T239 74L322 71Q412 68 457 30T502 -74ZM268 575L136 702L170 740L269
654L369 740L402 704L268 575Z" />
<glyph unicode="&#x1fa;" glyph-name="Aringacute" horiz-adv-x="611" d="M333 506Q324 533 317 554T303 599H302Q295 575 288 553T273 508L172 229H433L333 506ZM511 0L452 167H152L93 0H23H13L261 675H351L598 0H588H511ZM264 883L250 921L414 980L434 929L264
883ZM412 786Q412 748 382 722T303 696Q256 696 230 717T203 781Q203 819 233 845T312 871Q359 871 385 850T412 786ZM359 783Q359 806 346 818T308 830Q286 830 271 819T256 783Q256 761 269 749T307 737Q329 737 344 748T359 783Z" />
<glyph unicode="&#x1fb;" glyph-name="aringacute" horiz-adv-x="520" d="M353 237Q289 237 245 229T174 207T137 174T125 134Q125 98 147 75T207 52Q238 52 265 66T312 105T342 160T353 222V237ZM356 0Q356 38 357 62T361 105H359Q350 81 334 61T295 24T245 0T186
-9Q126 -9 88 27T50 123Q50 201 129 246T353 292V322Q353 386 328 416T241 446Q207 446 167 437T90 411L76 470Q117 487 161 496T250 506Q299 506 333 494T388 460T418 405T428 332V149Q428 116 428 93T428 45T430 0H356ZM212 781L197 822L366 893L390 837L212
781ZM362 649Q362 604 332 575T252 545Q204 545 177 570T150 643Q150 688 180 717T260 747Q308 747 335 722T362 649ZM307 646Q307 703 256 703Q235 703 220 689T205 646Q205 618 218 604T256 589Q277 589 292 603T307 646Z" />
<glyph unicode="&#x1fc;" glyph-name="AEacute" horiz-adv-x="779" d="M366 613H360Q345 581 330 551T291 476L156 230H366V613ZM366 0V169H127L36 0H-44L324 675H702V613H441V379H684V317H441V64H707V0H366ZM451 729L435 773L607 847L631 786L451 729Z" />
<glyph unicode="&#x1fd;" glyph-name="aeacute" horiz-adv-x="809" d="M353 237Q289 237 245 229T174 207T137 174T125 134Q125 98 147 75T207 52Q238 52 265 66T312 105T342 160T353 222V237ZM682 310Q683 374 651 411T562 448Q510 448 474 412T429 310H682ZM761
305Q761 289 761 275T759 255H427Q423 151 464 102T588 53Q625 53 661 59T734 80L745 21Q657 -9 578 -9Q535 -9 501 0T443 25T403 62T378 110H377Q366 87 348 66T306 27T251 1T187 -9Q126 -9 88 27T50 123Q50 201 129 246T353 292V322Q353 386 328 416T241 446Q207
446 167 437T90 411L76 470Q117 487 161 496T250 506Q309 506 348 485T404 422H405Q429 459 471 482T567 506Q617 506 654 491T714 447T749 383T761 305ZM418 573L380 609L501 747L550 701L418 573Z" />
<glyph unicode="&#x1fe;" glyph-name="Oslashacute" horiz-adv-x="708" d="M454 596Q433 607 408 613T354 619Q306 619 264 601T191 548T142 460T124 343Q124 262 146 204T203 112L454 596ZM584 333Q584 413 562 471T505 563L254 79Q276 68 301 62T354 56Q402
56 444 74T517 127T566 215T584 333ZM662 346Q662 262 638 196T569 84T468 15T345 -9Q275 -9 221 15L167 -91L112 -64L167 42Q110 83 78 155T46 329Q46 413 70 479T139 591T240 660T363 684Q398 684 429 678T487 660L541 766L596 739L541 633Q598 592 630 520T662
346ZM309 779L293 823L465 897L489 836L309 779Z" />
<glyph unicode="&#x1ff;" glyph-name="oslashacute" horiz-adv-x="542" d="M499 254Q499 199 484 151T439 67T365 11T263 -9Q239 -9 216 -5T174 7L125 -87L75 -63L126 32Q86 62 65 115T43 243Q43 298 58 346T104 430T178 486T280 506Q330 506 368 490L417 584L467
560L417 465Q432 453 445 438T468 403T485 361T495 311T499 254ZM426 249Q426 274 423 297T413 339T399 373T382 399L205 65Q237 51 270 51Q305 51 334 63T383 101T415 164T426 249ZM337 432Q307 446 273 446Q238 446 209 434T160 396T128 333T117 248Q117 228
119 209T125 174T134 143T146 118T160 98L337 432ZM253 573L215 609L336 747L385 701L253 573Z" />
<glyph unicode="&#x218;" glyph-name="Scommaaccent" horiz-adv-x="504" d="M450 187Q450 144 434 109T387 47T311 6T207 -9Q168 -9 129 -4T58 11L69 84Q101 72 138 65T212 58Q247 58 276 65T326 86T358 124T370 179Q370 217 349 242T301 281T219 318T131 363T77
418T55 503Q55 543 70 576T115 633T188 671T284 684Q313 684 345 681T405 671L396 602Q368 610 338 615T278 620Q207 620 170 591T133 510Q133 473 154 449T202 411T284 374T374 329T428 273T450 187ZM171 -211Q195 -191 205 -173T216 -138Q216 -130 214 -125T209
-114T204 -104T202 -92Q202 -75 214 -63T245 -50Q266 -50 279 -65T293 -104Q293 -134 270 -168T195 -239L171 -211Z" />
<glyph unicode="&#x219;" glyph-name="scommaaccent" horiz-adv-x="428" d="M375 140Q375 109 362 82T324 35T260 3T175 -9Q145 -9 113 -5T56 5L63 74Q88 65 121 59T183 53Q238 53 268 74T298 134Q298 162 282 178T247 202T184 226T113 257T71 298T54 366Q54 396
66 421T102 465T162 495T244 506Q268 506 293 504T343 496L336 432Q313 439 287 443T236 447Q184 447 157 427T130 372Q130 345 146 328T181 304T244 280T315 249T358 208T375 140ZM139 -211Q163 -191 173 -173T184 -138Q184 -130 182 -125T177 -114T172 -104T170
-92Q170 -75 182 -63T213 -50Q234 -50 247 -65T261 -104Q261 -134 238 -168T163 -239L139 -211Z" />
<glyph unicode="&#x21a;" glyph-name="Tcommaaccent" horiz-adv-x="519" d="M297 611V0H221V611H19V675H500V611H297ZM187 -211Q211 -191 221 -173T232 -138Q232 -130 230 -125T225 -114T220 -104T218 -92Q218 -75 230 -63T261 -50Q282 -50 295 -65T309 -104Q309
-134 286 -168T211 -239L187 -211Z" />
<glyph unicode="&#x21b;" glyph-name="tcommaaccent" horiz-adv-x="370" d="M336 3Q315 -2 290 -5T242 -8Q205 -8 181 0T141 27T120 72T113 140V438H7V497H113V662L188 683V497H333V438H188V161Q188 130 191 110T203 79T225 62T261 57Q298 57 330 65L336 3ZM141
-211Q165 -191 175 -173T186 -138Q186 -130 184 -125T179 -114T174 -104T172 -92Q172 -75 184 -63T215 -50Q236 -50 249 -65T263 -104Q263 -134 240 -168T165 -239L141 -211Z" />
<glyph unicode="&#x237;" glyph-name="dotlessj" horiz-adv-x="265" d="M173 -63Q173 -113 165 -149T138 -209T89 -244T17 -256Q-9 -256 -29 -253T-57 -248L-50 -182Q-42 -185 -23 -189T22 -193Q44 -193 58 -187T82 -167T95 -129T99 -68V497H173V-63Z" />
<glyph unicode="&#x259;" glyph-name="uni0259" horiz-adv-x="499" d="M378 283Q372 367 330 407T213 447Q177 447 142 440T74 418L59 475Q135 506 224 506Q336 506 396 444T456 251Q456 192 442 144T399 62T330 10T236 -9Q185 -9 149 8T90 55T55 127T44 219Q44
251 47 283H378ZM121 228Q120 221 120 218T120 209Q120 127 153 89T244 51Q277 51 302 64T344 101T370 157T379 228H121Z" />
<glyph unicode="&#x2c6;" glyph-name="circumflex" horiz-adv-x="446" d="M321 575L223 661L123 575L90 610L224 740L357 612L321 575Z" />
<glyph unicode="&#x2c7;" glyph-name="caron" horiz-adv-x="446" d="M222 575L90 702L124 740L223 654L323 740L356 704L222 575Z" />
<glyph unicode="&#x2c9;" glyph-name="macron" horiz-adv-x="425" d="M90 623V680H335V623H90Z" />
<glyph unicode="&#x2d8;" glyph-name="breve" horiz-adv-x="420" d="M330 717Q330 691 323 669T301 628T263 600T209 590Q178 590 156 600T119 628T97 668T90 717H142Q142 687 160 667T210 647Q241 647 259 665T277 717H330Z" />
<glyph unicode="&#x2d9;" glyph-name="dotaccent" horiz-adv-x="281" d="M191 656Q191 635 176 621T141 606Q120 606 105 620T90 656Q90 677 105 692T141 707Q162 707 176 693T191 656Z" />
<glyph unicode="&#x2da;" glyph-name="ring" horiz-adv-x="399" d="M309 659Q309 613 278 583T195 552Q145 552 118 578T90 654Q90 700 121 730T204 761Q254 761 281 735T309 659ZM252 656Q252 715 200 715Q178 715 163 700T148 657Q148 598 199 598Q221 598 236
613T252 656Z" />
<glyph unicode="&#x2db;" glyph-name="ogonek" horiz-adv-x="386" d="M257 0Q206 -37 185 -69T163 -132Q163 -174 204 -174Q220 -174 236 -168T271 -148L296 -191Q249 -233 191 -233Q143 -233 117 -210T90 -146Q90 -107 112 -69T182 6L257 0Z" />
<glyph unicode="&#x2dc;" glyph-name="tilde" horiz-adv-x="513" d="M423 672Q404 637 378 619T319 600Q297 600 281 607T245 629T215 650T190 656Q155 656 128 608L90 639Q109 674 135 693T194 712Q216 712 232 705T268 683T298 662T323 656Q358 656 385 703L423 672Z" />
<glyph unicode="&#x2dd;" glyph-name="hungarumlaut" horiz-adv-x="517" d="M128 575L90 609L203 743L252 701L128 575ZM295 575L257 609L380 738L428 695L295 575Z" />
<glyph unicode="&#x312;" glyph-name="uni0312" horiz-adv-x="0" d="M-289 567Q-308 567 -322 582T-336 622Q-336 652 -313 687T-238 757L-215 728Q-239 708 -249 690T-260 656Q-260 648 -258 643T-253 632T-248 621T-246 609Q-246 591 -258 579T-289 567Z" />
<glyph unicode="&#x315;" glyph-name="uni0315" horiz-adv-x="22" d="M6 569L-45 585L12 756L76 737L6 569Z" />
<glyph unicode="&#x326;" glyph-name="uni0326" horiz-adv-x="0" d="M-360 -211Q-336 -191 -326 -173T-315 -138Q-315 -130 -317 -125T-322 -114T-327 -104T-329 -92Q-329 -75 -317 -63T-286 -50Q-265 -50 -252 -65T-238 -104Q-238 -134 -261 -168T-336 -239L-360 -211Z" />
<glyph unicode="&#x37e;" glyph-name="uni037E" horiz-adv-x="282" d="M156 99Q180 99 195 80T210 26T185 -52T108 -147L75 -118Q98 -93 110 -72T127 -33T129 -2T119 22Q110 34 109 47T113 72T130 91T156 99ZM211 343Q211 320 196 304T157 288Q134 288 118 304T102
343Q102 366 118 381T157 397Q180 397 195 382T211 343Z" />
<glyph unicode="&#x384;" glyph-name="tonos" horiz-adv-x="274" d="M145 564L90 571L113 740L184 733L145 564Z" />
<glyph unicode="&#x385;" glyph-name="dieresistonos" horiz-adv-x="517" d="M180 656Q180 637 167 624T135 610Q116 610 103 623T90 656Q90 675 103 688T135 701Q154 701 167 688T180 656ZM270 563L221 568L234 737L301 732L270 563ZM427 656Q427 637 414 624T382
610Q363 610 350 623T336 656Q336 675 349 688T382 701Q401 701 414 688T427 656Z" />
<glyph unicode="&#x386;" glyph-name="Alphatonos" horiz-adv-x="619" d="M341 506Q332 533 325 554T311 599H310Q303 575 296 553T281 508L180 229H441L341 506ZM519 0L460 167H160L101 0H31H21L269 675H359L606 0H596H519ZM344 564L289 571L312 740L383 733L344 564Z" />
<glyph unicode="&#x387;" glyph-name="anoteleia" horiz-adv-x="283" d="M193 497Q193 476 178 461T141 446Q120 446 105 460T90 497Q90 518 105 533T141 548Q163 548 178 534T193 497Z" />
<glyph unicode="&#x388;" glyph-name="Epsilontonos" horiz-adv-x="559" d="M136 0V675H487V613H213V379H465V317H213V64H487V0H136ZM312 564L257 571L280 740L351 733L312 564Z" />
<glyph unicode="&#x389;" glyph-name="Etatonos" horiz-adv-x="747" d="M580 0V318H213V0H136V675H213V382H580V675H656V0H580ZM312 564L257 571L280 740L351 733L312 564Z" />
<glyph unicode="&#x38a;" glyph-name="Iotatonos" horiz-adv-x="304" d="M136 0V675H213V0H136ZM312 564L257 571L280 740L351 733L312 564Z" />
<glyph unicode="&#x38c;" glyph-name="Omicrontonos" horiz-adv-x="726" d="M600 333Q600 464 542 541T372 618Q324 618 283 600T210 547T162 460T144 343Q144 279 158 227T202 136T273 78T372 57Q420 57 461 75T534 128T582 215T600 333ZM680 346Q680 262 656
196T587 84T486 15T363 -9Q292 -9 236 14T142 82T84 189T64 329Q64 413 88 479T157 591T258 660T381 684Q452 684 508 661T602 593T660 486T680 346ZM312 564L257 571L280 740L351 733L312 564Z" />
<glyph unicode="&#x38e;" glyph-name="Upsilontonos" horiz-adv-x="631" d="M405 264V0H329V264L108 675H193L316 443Q331 413 343 387T369 331H370Q383 360 396 389T425 445L546 675H627L405 264ZM312 564L257 571L280 740L351 733L312 564Z" />
<glyph unicode="&#x38f;" glyph-name="Omegatonos" horiz-adv-x="739" d="M458 0V64Q491 90 517 118T562 179T591 253T602 343Q602 402 588 452T546 539T476 597T378 618Q331 618 291 600T220 546T172 461T154 348Q154 300 162 261T187 189T231 125T298 64V0H63V65H212Q149
110 111 179T72 343Q72 424 96 487T164 594T264 661T387 684Q450 684 504 664T598 602T661 498T684 353Q684 303 672 260T640 181T594 116T539 65H694V0H458ZM312 564L257 571L280 740L351 733L312 564Z" />
<glyph unicode="&#x390;" glyph-name="iotadieresistonos" horiz-adv-x="267" d="M223 -5Q210 -6 203 -6T190 -7Q162 -7 143 0T113 21T96 60T91 121V497H166V140Q166 111 168 95T177 70T194 59T223 56V-5ZM318 656Q318 637 305 624T273 610Q254 610 241 623T228
656Q228 675 241 688T273 701Q292 701 305 688T318 656ZM408 563L359 568L372 737L439 732L408 563ZM565 656Q565 637 552 624T520 610Q501 610 488 623T474 656Q474 675 487 688T520 701Q539 701 552 688T565 656Z" />
<glyph unicode="&#x391;" glyph-name="Alpha" horiz-adv-x="611" d="M333 506Q324 533 317 554T303 599H302Q295 575 288 553T273 508L172 229H433L333 506ZM511 0L452 167H152L93 0H23H13L261 675H351L598 0H588H511Z" />
<glyph unicode="&#x392;" glyph-name="Beta" horiz-adv-x="566" d="M432 191Q432 223 421 246T387 286T327 310T238 319Q216 319 197 319T168 318V64Q181 62 208 61T260 59Q304 59 337 69T391 97T422 139T432 191ZM409 502Q409 528 402 548T377 584T331 609T257
618Q241 618 218 617T168 615V378Q182 377 196 377T241 377Q324 377 366 409T409 502ZM513 197Q513 163 500 128T456 64T375 16T253 -3Q224 -3 164 -2T91 0V675Q113 676 162 677T266 678Q379 678 434 635T489 514Q489 460 458 418T372 356V355Q404 350 430 337T474
304T503 257T513 197Z" />
<glyph unicode="&#x393;" glyph-name="Gamma" horiz-adv-x="425" d="M168 611V0H91V675H418V611H168Z" />
<glyph unicode="&#x395;" glyph-name="Epsilon" horiz-adv-x="514" d="M91 0V675H442V613H168V379H420V317H168V64H442V0H91Z" />
<glyph unicode="&#x396;" glyph-name="Zeta" horiz-adv-x="540" d="M46 0V56L345 521Q359 542 375 566T405 609Q373 608 335 608T247 607H57V675H492V618L177 132Q169 119 154 97T134 67Q149 69 188 69T311 70H495V0H46Z" />
<glyph unicode="&#x397;" glyph-name="Eta" horiz-adv-x="702" d="M535 0V318H168V0H91V675H168V382H535V675H611V0H535Z" />
<glyph unicode="&#x398;" glyph-name="Theta" horiz-adv-x="708" d="M230 320V380H477V320H230ZM582 333Q582 463 523 540T354 618Q306 618 264 600T191 547T143 461T125 343Q125 279 139 227T183 136T255 78T354 57Q402 57 443 75T516 128T564 215T582 333ZM662
346Q662 262 638 196T569 84T468 15T345 -9Q273 -9 217 14T122 82T65 189T46 329Q46 413 70 479T139 591T240 660T363 684Q435 684 491 661T586 593T643 486T662 346Z" />
<glyph unicode="&#x399;" glyph-name="Iota" horiz-adv-x="259" d="M91 0V675H168V0H91Z" />
<glyph unicode="&#x39a;" glyph-name="Kappa" horiz-adv-x="579" d="M455 0L168 339V0H91V675H168V352L456 675H549L250 350L561 0H455Z" />
<glyph unicode="&#x39b;" glyph-name="Lambda" horiz-adv-x="612" d="M510 0L353 449Q342 480 329 518T306 593H305Q295 559 283 520T256 444L94 0H15L266 675H352L597 0H510Z" />
<glyph unicode="&#x39c;" glyph-name="Mu" horiz-adv-x="893" d="M760 0L702 419Q694 481 689 527T682 605H680Q674 581 665 549T642 479L473 0H403L244 453Q208 557 196 605H195Q193 566 189 520T178 414L130 0H53L142 675H247L409 218Q419 189 427 160T442 104H443Q449
135 457 164T475 218L636 675H746L839 0H760Z" />
<glyph unicode="&#x39d;" glyph-name="Nu" horiz-adv-x="694" d="M528 0H525L260 416Q240 447 225 472T199 517T178 554T160 588H158Q159 558 160 510T163 407T165 294T166 190V0H91V675H166H188L438 282Q459 249 474 225T500 182T519 147T534 117H536Q534 151
533 197T530 295T529 400T528 503V675H603V0H528Z" />
<glyph unicode="&#x39e;" glyph-name="Xi" horiz-adv-x="543" d="M46 0V69H497V0H46ZM108 317V380H432V317H108ZM56 607V675H488V607H56Z" />
<glyph unicode="&#x39f;" glyph-name="Omicron" horiz-adv-x="708" d="M582 333Q582 464 524 541T354 618Q306 618 265 600T192 547T144 460T126 343Q126 279 140 227T184 136T255 78T354 57Q402 57 443 75T516 128T564 215T582 333ZM662 346Q662 262 638 196T569
84T468 15T345 -9Q274 -9 218 14T124 82T66 189T46 329Q46 413 70 479T139 591T240 660T363 684Q434 684 490 661T584 593T642 486T662 346Z" />
<glyph unicode="&#x3a0;" glyph-name="Pi" horiz-adv-x="660" d="M493 0V611H168V0H91V675H569V0H493Z" />
<glyph unicode="&#x3a1;" glyph-name="Rho" horiz-adv-x="549" d="M434 459Q434 531 388 573T250 616Q225 616 202 616T168 614V305Q179 304 203 302T253 299Q341 299 387 344T434 459ZM513 471Q513 421 495 378T441 304T356 255T246 237Q208 237 168 240V0H91V675Q187
678 261 678Q325 678 373 662T452 617T498 551T513 471Z" />
<glyph unicode="&#x3a3;" glyph-name="Sigma" horiz-adv-x="510" d="M46 0V55L296 338L61 611V675H473V608H158L385 343L142 69H484V0H46Z" />
<glyph unicode="&#x3a4;" glyph-name="Tau" horiz-adv-x="519" d="M297 611V0H221V611H19V675H500V611H297Z" />
<glyph unicode="&#x3a5;" glyph-name="Upsilon" horiz-adv-x="527" d="M301 264V0H225V264L4 675H89L212 443Q227 413 239 387T265 331H266Q279 360 292 389T321 445L442 675H523L301 264Z" />
<glyph unicode="&#x3a6;" glyph-name="Phi" horiz-adv-x="806" d="M365 588Q309 584 265 566T189 515T142 439T125 340Q125 284 140 239T185 161T260 108T365 86V588ZM680 335Q680 391 665 436T620 514T545 566T440 588V87Q553 95 616 160T680 335ZM761 345Q761
275 739 218T674 118T572 52T440 23V-52H365V23Q283 27 223 49T123 111T64 206T45 330Q45 400 67 457T132 557T234 623T365 652V722H440V652Q602 645 681 566T761 345Z" />
<glyph unicode="&#x3a7;" glyph-name="Chi" horiz-adv-x="587" d="M472 0L289 291L108 0H20L244 349L34 675H122L291 408L457 675H543L337 353L567 0H472Z" />
<glyph unicode="&#x3a8;" glyph-name="Psi" horiz-adv-x="782" d="M702 422Q702 299 633 229T429 152V0H353V152Q270 155 216 175T133 228T92 301T80 389V675H157V398Q157 360 165 329T195 274T255 234T353 216V675H429V216Q530 221 578 268T626 417V675H702V422Z" />
<glyph unicode="&#x3aa;" glyph-name="Iotadieresis" horiz-adv-x="259" d="M91 0V675H168V0H91ZM530 779Q530 759 516 746T482 732Q463 732 449 746T435 779Q435 799 448 813T482 827Q502 827 516 813T530 779ZM335 779Q335 760 322 746T288 732Q268 732 254
745T240 779Q240 799 254 813T288 827Q308 827 321 813T335 779Z" />
<glyph unicode="&#x3ab;" glyph-name="Upsilondieresis" horiz-adv-x="527" d="M301 264V0H225V264L4 675H89L212 443Q227 413 239 387T265 331H266Q279 360 292 389T321 445L442 675H523L301 264ZM205 779Q205 760 192 746T158 732Q138 732 124 745T110 779Q110
799 124 813T158 827Q178 827 191 813T205 779ZM418 779Q418 760 405 746T371 732Q351 732 337 745T323 779Q323 799 337 813T371 827Q391 827 404 813T418 779Z" />
<glyph unicode="&#x3ac;" glyph-name="alphatonos" horiz-adv-x="583" d="M398 252Q398 295 389 330T362 391T319 430T263 444Q234 444 209 432T165 394T135 332T124 246Q124 153 160 104T258 54Q288 54 314 68T359 107T388 168T398 246V252ZM545 -5Q541 -5 528
-6T509 -7Q456 -7 434 19T416 111H415Q409 89 394 68T357 29T305 1T242 -9Q151 -9 98 55T45 237Q45 296 61 346T106 431T176 486T265 506Q320 506 363 475T422 390Q423 417 427 443T440 497H512Q503 468 496 431T483 354T476 273T473 198Q473 146 475 119T485 77T506
59T545 54V-5ZM298 564L243 571L266 740L337 733L298 564Z" />
<glyph unicode="&#x3ad;" glyph-name="epsilontonos" horiz-adv-x="442" d="M405 18Q323 -9 244 -9Q191 -9 153 1T91 31T56 74T45 127Q45 174 70 208T140 256V257Q104 271 85 297T65 360Q65 390 76 416T112 463T173 494T260 506Q292 506 325 502T388 489L375 428Q346
437 315 442T254 448Q194 448 167 425T139 363Q139 328 167 307T245 285H344V230H236Q208 230 187 223T151 202T130 173T123 139Q123 99 156 75T256 50Q288 50 323 56T392 75L405 18ZM274 564L219 571L242 740L313 733L274 564Z" />
<glyph unicode="&#x3ae;" glyph-name="etatonos" horiz-adv-x="586" d="M139 497Q146 468 151 438T158 384H159Q179 439 224 472T336 506Q379 506 409 493T459 457T487 401T496 327V-46Q496 -103 499 -152T512 -249H440Q430 -202 426 -155T421 -56V303Q421 376
397 410T318 444Q288 444 262 430T217 391T187 332T176 257V0H101V246Q101 310 91 373T63 497H139ZM354 564L299 571L322 740L393 733L354 564Z" />
<glyph unicode="&#x3af;" glyph-name="iotatonos" horiz-adv-x="267" d="M223 -5Q210 -6 203 -6T190 -7Q162 -7 143 0T113 21T96 60T91 121V497H166V140Q166 111 168 95T177 70T194 59T223 56V-5ZM157 564L102 571L125 740L196 733L157 564Z" />
<glyph unicode="&#x3b0;" glyph-name="upsilondieresistonos" horiz-adv-x="576" d="M494 289Q494 214 478 158T434 64T366 9T278 -9Q225 -9 189 6T130 49T97 120T87 219V497H162V236Q162 140 189 96T285 52Q316 52 340 64T382 104T409 174T419 277Q419 333 415
389T401 497H479Q487 451 490 399T494 289ZM208 656Q208 637 195 624T163 610Q144 610 131 623T118 656Q118 675 131 688T163 701Q182 701 195 688T208 656ZM298 563L249 568L262 737L329 732L298 563ZM455 656Q455 637 442 624T410 610Q391 610 378 623T364 656Q364
675 377 688T410 701Q429 701 442 688T455 656Z" />
<glyph unicode="&#x3b1;" glyph-name="alpha" horiz-adv-x="583" d="M398 252Q398 295 389 330T362 391T319 430T263 444Q234 444 209 432T165 394T135 332T124 246Q124 153 160 104T258 54Q288 54 314 68T359 107T388 168T398 246V252ZM545 -5Q541 -5 528 -6T509
-7Q456 -7 434 19T416 111H415Q409 89 394 68T357 29T305 1T242 -9Q151 -9 98 55T45 237Q45 296 61 346T106 431T176 486T265 506Q320 506 363 475T422 390Q423 417 427 443T440 497H512Q503 468 496 431T483 354T476 273T473 198Q473 146 475 119T485 77T506 59T545
54V-5Z" />
<glyph unicode="&#x3b2;" glyph-name="beta" horiz-adv-x="550" d="M166 -46Q166 -103 169 -152T182 -249H109Q99 -203 95 -157T91 -56V514Q91 570 106 612T147 682T209 722T285 735Q329 735 362 722T417 686T449 633T460 568Q460 504 427 456T341 392V391Q379
387 407 372T454 332T482 276T491 209Q491 164 476 124T430 54T357 8T262 -9Q235 -9 211 -6T166 5V-46ZM166 79Q189 67 215 61T270 54Q336 54 374 94T412 203Q412 234 404 260T377 307T330 338T259 350H232V409Q306 412 345 452T384 560Q384 583 378 603T358 639T325
664T279 673Q225 673 196 634T166 518V79Z" />
<glyph unicode="&#x3b3;" glyph-name="gamma" horiz-adv-x="472" d="M253 -249H178V-96Q178 -60 177 -34T170 21T155 90T127 184T82 313T14 497H98Q127 414 148 352T184 245T207 173T220 127T226 99T229 81H230Q304 203 331 300T336 497H417Q426 434 419 375T392
257T337 136T253 -2V-249Z" />
<glyph unicode="&#x3b4;" glyph-name="delta" horiz-adv-x="522" d="M400 232Q400 269 393 298T371 353T333 401T276 448Q245 448 218 436T168 399T133 337T120 250Q120 157 157 106T262 55Q289 55 313 66T357 99T388 154T400 232ZM275 737Q313 737 349 727T416
698L386 642Q356 661 328 669T268 678Q233 678 218 666T202 636Q202 623 205 614T221 591T257 559T323 508Q367 476 396 445T444 382T470 315T478 238Q478 189 463 145T419 66T348 11T252 -9Q204 -9 166 6T100 53T57 131T42 242Q42 343 88 412T217 497Q167 534
145 564T123 629Q123 647 130 665T155 700T202 727T275 737Z" />
<glyph unicode="&#x3b5;" glyph-name="epsilon" horiz-adv-x="442" d="M405 18Q323 -9 244 -9Q191 -9 153 1T91 31T56 74T45 127Q45 174 70 208T140 256V257Q104 271 85 297T65 360Q65 390 76 416T112 463T173 494T260 506Q292 506 325 502T388 489L375 428Q346
437 315 442T254 448Q194 448 167 425T139 363Q139 328 167 307T245 285H344V230H236Q208 230 187 223T151 202T130 173T123 139Q123 99 156 75T256 50Q288 50 323 56T392 75L405 18Z" />
<glyph unicode="&#x3b6;" glyph-name="zeta" horiz-adv-x="405" d="M400 -39Q400 -87 377 -130T314 -219L263 -186Q293 -146 308 -114T323 -52Q323 -39 319 -30T305 -14T275 -3T225 5Q174 10 139 23T83 60T52 116T42 194Q42 256 64 328T122 469T202 591T287 670H53V730H377V676Q324
643 277 586T194 460T139 326T119 211Q119 174 125 151T145 111T186 86T254 71Q333 62 366 36T400 -39Z" />
<glyph unicode="&#x3b7;" glyph-name="eta" horiz-adv-x="586" d="M139 497Q146 468 151 438T158 384H159Q179 439 224 472T336 506Q379 506 409 493T459 457T487 401T496 327V-46Q496 -103 499 -152T512 -249H440Q430 -202 426 -155T421 -56V303Q421 376 397
410T318 444Q288 444 262 430T217 391T187 332T176 257V0H101V246Q101 310 91 373T63 497H139Z" />
<glyph unicode="&#x3b8;" glyph-name="theta" horiz-adv-x="559" d="M138 343Q140 204 177 129T281 54Q317 54 343 75T386 136T411 228T422 343H138ZM422 401Q419 532 382 604T278 677Q243 677 217 657T175 599T149 511T138 401H422ZM499 378Q499 191 441 91T275
-9Q226 -9 186 13T118 81T75 193T60 350Q60 538 118 638T285 738Q386 738 442 646T499 378Z" />
<glyph unicode="&#x3b9;" glyph-name="iota" horiz-adv-x="267" d="M223 -5Q210 -6 203 -6T190 -7Q162 -7 143 0T113 21T96 60T91 121V497H166V140Q166 111 168 95T177 70T194 59T223 56V-5Z" />
<glyph unicode="&#x3ba;" glyph-name="kappa" horiz-adv-x="482" d="M358 0L166 254V0H91V497H166V268L358 497H445L245 267L455 0H358Z" />
<glyph unicode="&#x3bb;" glyph-name="lambda" horiz-adv-x="469" d="M171 586Q162 613 152 630T131 657T109 670T85 674Q78 674 70 674T53 672L50 731Q61 733 75 734T101 735Q125 735 145 730T181 711T212 674T239 616L456 0H372L235 405H234Q226 379 212 337T184
257L89 0H6L203 495L171 586Z" />
<glyph unicode="&#x3bd;" glyph-name="nu" horiz-adv-x="477" d="M455 497Q432 370 385 247T262 0H192L13 497H98L207 174Q222 129 226 116T235 81H236Q290 183 324 287T373 497H455Z" />
<glyph unicode="&#x3be;" glyph-name="xi" horiz-adv-x="409" d="M407 -39Q407 -87 384 -130T321 -219L270 -186Q300 -146 315 -114T330 -52Q330 -38 326 -29T311 -13T280 -2T227 5Q128 15 83 58T38 183Q38 220 49 251T79 307T122 348T175 372Q130 382 103 417T76
501Q76 528 83 555T105 605T141 646T188 672Q174 671 160 671T131 670H49V730H369V670H343Q291 670 254 657T194 621T161 571T150 516Q150 468 180 439T269 409H349V349H300Q250 349 214 337T156 303T124 256T114 201Q114 139 145 110T254 73Q338 63 372 37T407
-39Z" />
<glyph unicode="&#x3bf;" glyph-name="omicron" horiz-adv-x="542" d="M422 249Q422 341 382 392T272 444Q238 444 210 432T162 394T132 333T121 248Q121 156 160 105T270 54Q303 54 330 65T378 101T410 162T422 249ZM499 254Q499 199 484 151T439 67T365 11T263
-9Q213 -9 173 6T103 53T59 132T43 243Q43 298 58 346T104 430T178 486T280 506Q330 506 370 491T439 444T483 365T499 254Z" />
<glyph unicode="&#x3c0;" glyph-name="pi" horiz-adv-x="634" d="M469 435Q469 331 474 261T488 146Q498 94 511 75T546 56Q557 56 569 58T592 63L601 1Q589 -3 571 -5T535 -7Q483 -7 455 23T413 131Q394 229 394 435H214Q216 326 201 216T151 -4L66 4Q105 114
124 220T142 435H13V497H599V435H469Z" />
<glyph unicode="&#x3c1;" glyph-name="rho" horiz-adv-x="540" d="M416 252Q416 343 383 393T280 444Q216 444 182 398T148 270V79Q173 67 199 60T261 53Q295 53 323 65T372 102T404 164T416 252ZM494 257Q494 201 479 154T434 70T357 13T251 -7Q187 -7 147 9Q147
-2 147 -16T148 -42T148 -70V-249H73V266Q73 317 86 360T126 437T194 488T289 506Q334 506 371 492T435 448T478 371T494 257Z" />
<glyph unicode="&#x3c2;" glyph-name="sigma1" horiz-adv-x="447" d="M408 -39Q408 -64 401 -88T382 -135T355 -177T322 -219L271 -186Q301 -146 315 -114T330 -52Q330 -39 326 -30T312 -14T283 -3T233 5Q185 10 149 27T90 71T55 135T44 214Q44 352 105 428T279
504Q314 504 344 499T402 485L386 420Q361 430 331 436T270 443Q199 443 161 385T123 228Q123 160 155 120T261 71Q340 62 374 36T408 -39Z" />
<glyph unicode="&#x3c3;" glyph-name="sigma" horiz-adv-x="574" d="M420 249Q420 312 403 359T351 442Q335 443 321 443T292 444Q212 444 167 396T121 248Q121 156 160 105T270 54Q302 54 329 65T377 101T408 162T420 249ZM540 435Q511 435 483 436T433 439Q461
411 479 362T497 250Q497 195 482 148T436 65T362 11T263 -9Q160 -9 102 54T43 243Q43 298 59 345T107 429T187 486T300 506Q329 506 410 502T540 497V435Z" />
<glyph unicode="&#x3c4;" glyph-name="tau" horiz-adv-x="362" d="M195 435V168Q195 134 198 113T207 80T223 63T251 58Q260 58 271 59T289 62L296 -1Q283 -4 265 -6T233 -8Q200 -8 178 0T144 26T126 71T120 139V435H7V497H332V435H195Z" />
<glyph unicode="&#x3c5;" glyph-name="upsilon" horiz-adv-x="576" d="M494 289Q494 214 478 158T434 64T366 9T278 -9Q225 -9 189 6T130 49T97 120T87 219V497H162V236Q162 140 189 96T285 52Q316 52 340 64T382 104T409 174T419 277Q419 333 415 389T401 497H479Q487
451 490 399T494 289Z" />
<glyph unicode="&#x3c6;" glyph-name="phi" horiz-adv-x="672" d="M300 -249V-9Q182 -4 114 59T45 246Q45 295 61 339T110 419T190 477T300 505V675H372V506Q490 501 558 438T627 252Q627 203 611 159T562 79T482 21T372 -7V-249H300ZM300 444Q263 441 231 428T174
390T135 332T121 252Q121 165 166 114T300 55V444ZM371 55Q408 58 441 71T498 108T537 166T551 246Q551 333 505 384T371 444V55Z" />
<glyph unicode="&#x3c7;" glyph-name="chi" horiz-adv-x="466" d="M470 -251Q461 -252 451 -252T432 -253Q405 -253 386 -247T351 -224T319 -174T281 -86L225 68L77 -255L2 -233L192 144L121 324Q105 363 94 386T73 421T53 437T29 442Q19 442 11 441L7 499Q14
500 24 501T44 502Q71 502 90 496T125 475T156 431T188 358L240 217L370 497H454L273 139L349 -52Q367 -99 380 -127T404 -169T424 -188T447 -193Q457 -193 465 -192L470 -251Z" />
<glyph unicode="&#x3c8;" glyph-name="psi" horiz-adv-x="769" d="M687 283Q687 142 621 72T421 -7V-249H346V-8Q266 -4 214 16T135 71T97 147T87 244V497H162V263Q162 214 169 178T197 115T253 72T346 53V675H421V53Q521 59 566 110T612 275Q612 332 608 389T596
497H673Q680 450 683 397T687 283Z" />
<glyph unicode="&#x3c9;" glyph-name="omega" horiz-adv-x="769" d="M720 252Q720 192 704 144T659 61T593 9T516 -9Q464 -9 428 19T382 94Q367 46 329 19T238 -9Q198 -9 163 7T103 54T63 130T48 231Q48 319 78 389T164 518Q195 501 225 485Q177 436 152 376T126
246Q126 161 161 111T252 61Q291 61 319 95T348 193V369H421V196Q421 129 449 95T521 61Q544 61 566 72T605 107T632 165T642 244Q642 318 618 374T545 482Q576 499 610 518Q635 493 654 467T688 408T711 337T720 252Z" />
<glyph unicode="&#x3ca;" glyph-name="iotadieresis" horiz-adv-x="267" d="M223 -5Q210 -6 203 -6T190 -7Q162 -7 143 0T113 21T96 60T91 121V497H166V140Q166 111 168 95T177 70T194 59T223 56V-5ZM351 657Q351 637 337 623T303 609Q283 609 269 623T255 657Q255
677 269 690T303 704Q323 704 337 691T351 657ZM522 657Q522 637 508 623T474 609Q454 609 440 623T426 657Q426 677 440 690T474 704Q494 704 508 691T522 657Z" />
<glyph unicode="&#x3cb;" glyph-name="upsilondieresis" horiz-adv-x="576" d="M494 289Q494 214 478 158T434 64T366 9T278 -9Q225 -9 189 6T130 49T97 120T87 219V497H162V236Q162 140 189 96T285 52Q316 52 340 64T382 104T409 174T419 277Q419 333 415 389T401
497H479Q487 451 490 399T494 289ZM230 657Q230 637 217 623T183 609Q163 609 149 623T135 657Q135 677 149 690T183 704Q203 704 216 691T230 657ZM418 657Q418 637 405 623T371 609Q351 609 337 623T323 657Q323 677 337 690T371 704Q391 704 404 691T418 657Z"
/>
<glyph unicode="&#x3cc;" glyph-name="omicrontonos" horiz-adv-x="542" d="M422 249Q422 341 382 392T272 444Q238 444 210 432T162 394T132 333T121 248Q121 156 160 105T270 54Q303 54 330 65T378 101T410 162T422 249ZM499 254Q499 199 484 151T439 67T365
11T263 -9Q213 -9 173 6T103 53T59 132T43 243Q43 298 58 346T104 430T178 486T280 506Q330 506 370 491T439 444T483 365T499 254ZM298 564L243 571L266 740L337 733L298 564Z" />
<glyph unicode="&#x3cd;" glyph-name="upsilontonos" horiz-adv-x="576" d="M494 289Q494 214 478 158T434 64T366 9T278 -9Q225 -9 189 6T130 49T97 120T87 219V497H162V236Q162 140 189 96T285 52Q316 52 340 64T382 104T409 174T419 277Q419 333 415 389T401
497H479Q487 451 490 399T494 289ZM312 564L257 571L280 740L351 733L312 564Z" />
<glyph unicode="&#x3ce;" glyph-name="omegatonos" horiz-adv-x="769" d="M720 252Q720 192 704 144T659 61T593 9T516 -9Q464 -9 428 19T382 94Q367 46 329 19T238 -9Q198 -9 163 7T103 54T63 130T48 231Q48 319 78 389T164 518Q195 501 225 485Q177 436 152
376T126 246Q126 161 161 111T252 61Q291 61 319 95T348 193V369H421V196Q421 129 449 95T521 61Q544 61 566 72T605 107T632 165T642 244Q642 318 618 374T545 482Q576 499 610 518Q635 493 654 467T688 408T711 337T720 252ZM407 564L352 571L375 740L446 733L407
564Z" />
<glyph unicode="&#x400;" glyph-name="uni0400" horiz-adv-x="514" d="M319 729L139 786L163 847L335 773L319 729ZM91 0V675H442V613H168V379H420V317H168V64H442V0H91Z" />
<glyph unicode="&#x401;" glyph-name="uni0401" horiz-adv-x="514" d="M196 779Q196 760 183 746T149 732Q129 732 115 745T101 779Q101 799 115 813T149 827Q169 827 182 813T196 779ZM409 779Q409 760 396 746T362 732Q342 732 328 745T314 779Q314 799 328
813T362 827Q382 827 395 813T409 779ZM91 0V675H442V613H168V379H420V317H168V64H442V0H91Z" />
<glyph unicode="&#x402;" glyph-name="uni0402" horiz-adv-x="697" d="M647 217Q647 155 626 109T565 32T472 -15T352 -34V27Q402 30 441 40T509 72T553 127T569 209Q569 241 561 270T534 323T481 361T397 376Q365 376 332 370T268 352V0H191V612H19V675H470V612H268V415Q296
424 335 430T413 436Q471 436 515 421T589 376T632 306T647 217Z" />
<glyph unicode="&#x403;" glyph-name="uni0403" horiz-adv-x="425" d="M168 611V0H91V675H418V611H168ZM207 729L191 773L363 847L387 786L207 729Z" />
<glyph unicode="&#x404;" glyph-name="uni0404" horiz-adv-x="610" d="M546 30Q507 13 457 3T357 -7Q279 -7 221 16T125 82T68 186T49 324Q49 401 68 466T128 579T231 654T378 681Q419 681 460 676T537 659L524 589Q487 602 446 609T365 616Q310 616 269 598T199
548T155 473T134 378H461V316H134Q137 192 197 126T375 60Q415 60 458 70T532 96L546 30Z" />
<glyph unicode="&#x405;" glyph-name="uni0405" horiz-adv-x="504" d="M450 187Q450 144 434 109T387 47T311 6T207 -9Q168 -9 129 -4T58 11L69 84Q101 72 138 65T212 58Q247 58 276 65T326 86T358 124T370 179Q370 217 349 242T301 281T219 318T131 363T77 418T55
503Q55 543 70 576T115 633T188 671T284 684Q313 684 345 681T405 671L396 602Q368 610 338 615T278 620Q207 620 170 591T133 510Q133 473 154 449T202 411T284 374T374 329T428 273T450 187Z" />
<glyph unicode="&#x406;" glyph-name="uni0406" horiz-adv-x="259" d="M91 0V675H168V0H91Z" />
<glyph unicode="&#x407;" glyph-name="uni0407" horiz-adv-x="259" d="M531 779Q531 759 517 746T483 732Q464 732 450 746T436 779Q436 799 449 813T483 827Q503 827 517 813T531 779ZM336 779Q336 760 323 746T289 732Q269 732 255 745T241 779Q241 799 255
813T289 827Q309 827 322 813T336 779ZM91 0V675H168V0H91Z" />
<glyph unicode="&#x408;" glyph-name="uni0408" horiz-adv-x="345" d="M254 172Q254 85 211 39T81 -7Q63 -7 40 -5T1 1V70Q15 65 39 62T82 58Q105 58 122 63T151 82T171 118T178 177V675H254V172Z" />
<glyph unicode="&#x409;" glyph-name="uni0409" horiz-adv-x="907" d="M458 611H202Q202 475 197 377T182 212T157 103T120 38T72 5T12 -9L0 55Q23 59 41 67T74 98T97 160T113 268T123 435T126 675H535V401Q547 401 561 402Q573 402 589 402T625 403Q688 403 734
389T810 349T855 288T870 210Q870 160 852 121T800 54T718 12T611 -3Q584 -3 557 -3T508 -2Q482 -1 458 0V611ZM535 61Q546 60 559 60Q570 59 584 59T616 59Q707 59 748 97T790 203Q790 234 781 259T751 303T697 331T618 341Q601 341 586 341T559 340H535V61Z"
/>
<glyph unicode="&#x40a;" glyph-name="uni040A" horiz-adv-x="957" d="M840 203Q840 235 830 260T800 303T746 331T667 341Q639 341 617 341T584 340V61Q594 61 616 60T666 59Q754 59 797 96T840 203ZM508 318H168V0H91V675H168V382H508V675H584V401Q594 402 619
402T675 403Q737 403 783 389T859 350T904 289T919 210Q919 160 901 121T849 54T768 12T661 -3Q637 -3 611 -3T562 -2T527 -1T508 0V318Z" />
<glyph unicode="&#x40b;" glyph-name="uni040B" horiz-adv-x="722" d="M559 0V203Q559 242 553 272T530 325T481 362T400 375Q364 375 329 368T268 350V0H191V612H19V675H470V612H268V413Q296 424 333 430T411 436Q480 436 525 418T593 369T626 300T635 213V0H559Z" />
<glyph unicode="&#x40c;" glyph-name="uni040C" horiz-adv-x="579" d="M455 0L168 339V0H91V675H168V352L456 675H549L250 350L561 0H455ZM271 729L255 773L427 847L451 786L271 729Z" />
<glyph unicode="&#x40d;" glyph-name="uni040D" horiz-adv-x="692" d="M524 0V460Q524 489 526 517T531 573H530Q519 552 507 532T482 491L168 0H91V675H168V204Q168 183 167 159T163 108H164Q174 128 185 147T207 184L521 675H524H601V0H524ZM382 729L202 786L226
847L398 773L382 729Z" />
<glyph unicode="&#x40e;" glyph-name="uni040E" horiz-adv-x="554" d="M328 151Q293 64 250 28T147 -9Q133 -9 113 -6T78 3L91 68Q121 57 147 57Q167 57 181 61T208 75T233 103T258 152L25 675H111L249 353Q268 307 277 284T293 236L294 234Q305 261 314 286T345
368L461 675H540L328 151ZM436 845Q436 819 427 797T399 758T351 732T283 722Q210 722 171 755T132 845H201Q201 771 285 771Q325 771 345 790T366 845H436Z" />
<glyph unicode="&#x40f;" glyph-name="uni040F" horiz-adv-x="659" d="M364 0V-156H295V0H91V675H168V64H491V675H567V0H364Z" />
<glyph unicode="&#x410;" glyph-name="uni0410" horiz-adv-x="611" d="M333 506Q324 533 317 554T303 599H302Q295 575 288 553T273 508L172 229H433L333 506ZM511 0L452 167H152L93 0H23H13L261 675H351L598 0H588H511Z" />
<glyph unicode="&#x411;" glyph-name="uni0411" horiz-adv-x="564" d="M430 198Q430 228 421 252T390 295T336 322T258 332H168V65Q186 63 212 61T266 59Q343 59 386 97T430 198ZM509 204Q509 162 494 125T447 59T367 14T256 -3Q219 -3 173 -2T91 0V675H463V613H168V391H270Q388
391 448 342T509 204Z" />
<glyph unicode="&#x412;" glyph-name="uni0412" horiz-adv-x="566" d="M432 191Q432 223 421 246T387 286T327 310T238 319Q216 319 197 319T168 318V64Q181 62 208 61T260 59Q304 59 337 69T391 97T422 139T432 191ZM409 502Q409 528 402 548T377 584T331 609T257
618Q241 618 218 617T168 615V378Q182 377 196 377T241 377Q324 377 366 409T409 502ZM513 197Q513 163 500 128T456 64T375 16T253 -3Q224 -3 164 -2T91 0V675Q113 676 162 677T266 678Q379 678 434 635T489 514Q489 460 458 418T372 356V355Q404 350 430 337T474
304T503 257T513 197Z" />
<glyph unicode="&#x413;" glyph-name="uni0413" horiz-adv-x="426" d="M168 611V0H91V675H418V611H168Z" />
<glyph unicode="&#x414;" glyph-name="uni0414" horiz-adv-x="668" d="M641 -156H572V0H74V-156H5V64H63Q83 90 95 118T116 195T131 328T139 644V675H558V64H641V-156ZM482 613H214L213 480Q211 389 206 314T192 193T171 116T143 64H482V613Z" />
<glyph unicode="&#x415;" glyph-name="uni0415" horiz-adv-x="514" d="M91 0V675H442V613H168V379H420V317H168V64H442V0H91Z" />
<glyph unicode="&#x416;" glyph-name="uni0416" horiz-adv-x="807" d="M365 675H441V352L702 675H791L520 350L804 0H702L441 339V0H365V339L102 0H4L286 345L12 675H105L365 352V675Z" />
<glyph unicode="&#x417;" glyph-name="uni0417" horiz-adv-x="522" d="M468 196Q468 157 454 121T408 56T325 10T205 -7Q162 -7 120 -2T45 12L56 80Q93 69 131 63T215 56Q264 56 297 66T351 95T379 138T388 190Q388 227 373 252T329 293T262 314T177 321H134V380H179Q267
380 317 412T367 505Q367 529 361 549T338 585T293 612T219 622Q185 622 149 616T80 598L72 659Q110 670 149 676T232 683Q287 683 327 671T394 636T432 583T445 518Q445 462 413 420T322 360V359Q359 352 386 337T432 301T459 253T468 196Z" />
<glyph unicode="&#x418;" glyph-name="uni0418" horiz-adv-x="692" d="M524 0V460Q524 489 526 517T531 573H530Q519 552 507 532T482 491L168 0H91V675H168V204Q168 183 167 159T163 108H164Q174 128 185 147T207 184L521 675H524H601V0H524Z" />
<glyph unicode="&#x419;" glyph-name="uni0419" horiz-adv-x="692" d="M524 0V460Q524 489 526 517T531 573H530Q519 552 507 532T482 491L168 0H91V675H168V204Q168 183 167 159T163 108H164Q174 128 185 147T207 184L521 675H524H601V0H524ZM506 845Q506 819
497 797T469 758T421 732T353 722Q280 722 241 755T202 845H271Q271 771 355 771Q395 771 415 790T436 845H506Z" />
<glyph unicode="&#x41a;" glyph-name="uni041A" horiz-adv-x="579" d="M455 0L168 339V0H91V675H168V352L456 675H549L250 350L561 0H455Z" />
<glyph unicode="&#x41b;" glyph-name="uni041B" horiz-adv-x="627" d="M459 0V611H202Q202 475 197 377T182 212T157 103T120 38T72 5T12 -9L0 55Q23 59 41 67T74 98T97 160T113 268T123 435T126 675H536V0H459Z" />
<glyph unicode="&#x41c;" glyph-name="uni041C" horiz-adv-x="893" d="M760 0L702 419Q694 481 689 527T682 605H680Q674 581 665 549T642 479L473 0H403L244 453Q208 557 196 605H195Q193 566 189 520T178 414L130 0H53L142 675H247L409 218Q419 189 427 160T442
104H443Q449 135 457 164T475 218L636 675H746L839 0H760Z" />
<glyph unicode="&#x41d;" glyph-name="uni041D" horiz-adv-x="702" d="M535 0V318H168V0H91V675H168V382H535V675H611V0H535Z" />
<glyph unicode="&#x41e;" glyph-name="uni041E" horiz-adv-x="708" d="M582 333Q582 464 524 541T354 618Q306 618 265 600T192 547T144 460T126 343Q126 279 140 227T184 136T255 78T354 57Q402 57 443 75T516 128T564 215T582 333ZM662 346Q662 262 638 196T569
84T468 15T345 -9Q274 -9 218 14T124 82T66 189T46 329Q46 413 70 479T139 591T240 660T363 684Q434 684 490 661T584 593T642 486T662 346Z" />
<glyph unicode="&#x41f;" glyph-name="uni041F" horiz-adv-x="660" d="M493 0V611H168V0H91V675H569V0H493Z" />
<glyph unicode="&#x420;" glyph-name="uni0420" horiz-adv-x="549" d="M434 459Q434 531 388 573T250 616Q225 616 202 616T168 614V305Q179 304 203 302T253 299Q341 299 387 344T434 459ZM513 471Q513 421 495 378T441 304T356 255T246 237Q208 237 168 240V0H91V675Q187
678 261 678Q325 678 373 662T452 617T498 551T513 471Z" />
<glyph unicode="&#x421;" glyph-name="uni0421" horiz-adv-x="590" d="M544 36Q500 17 451 5T350 -7Q275 -7 218 16T124 82T68 186T49 322Q49 400 68 465T127 579T228 655T370 682Q411 682 455 674T536 651L521 582Q480 600 440 608T358 617Q301 617 258 596T186
535T145 445T131 335Q131 203 190 132T367 60Q405 60 449 71T529 100L544 36Z" />
<glyph unicode="&#x422;" glyph-name="uni0422" horiz-adv-x="519" d="M297 611V0H221V611H19V675H500V611H297Z" />
<glyph unicode="&#x423;" glyph-name="uni0423" horiz-adv-x="554" d="M328 151Q293 64 250 28T147 -9Q133 -9 113 -6T78 3L91 68Q121 57 147 57Q167 57 181 61T208 75T233 103T258 152L25 675H111L249 353Q268 307 277 284T293 236L294 234Q305 261 314 286T345
368L461 675H540L328 151Z" />
<glyph unicode="&#x424;" glyph-name="uni0424" horiz-adv-x="824" d="M375 588Q314 586 267 567T188 516T139 439T122 341Q122 288 135 244T179 166T258 113T375 87V588ZM702 336Q702 389 688 433T644 510T566 563T449 588V88Q571 93 636 160T702 336ZM782 343Q782
273 759 216T692 118T587 52T449 23V-52H375V22Q287 26 224 49T121 113T61 209T42 332Q42 402 65 459T132 557T237 623T375 652V723H449V653Q620 646 701 564T782 343Z" />
<glyph unicode="&#x425;" glyph-name="uni0425" horiz-adv-x="587" d="M472 0L289 291L108 0H20L244 349L34 675H122L291 408L457 675H543L337 353L567 0H472Z" />
<glyph unicode="&#x426;" glyph-name="uni0426" horiz-adv-x="688" d="M660 -156H592V0H91V675H168V64H492V675H568V64H660V-156Z" />
<glyph unicode="&#x427;" glyph-name="uni0427" horiz-adv-x="618" d="M451 291Q412 277 371 270T284 262Q216 262 171 279T101 325T66 392T56 476V675H132V490Q132 451 139 421T165 370T214 337T294 325Q337 325 376 332T451 354V675H527V0H451V291Z" />
<glyph unicode="&#x428;" glyph-name="uni0428" horiz-adv-x="941" d="M91 0V675H167V64H433V675H508V64H773V675H849V0H91Z" />
<glyph unicode="&#x429;" glyph-name="uni0429" horiz-adv-x="969" d="M942 -156H873V0H91V675H167V64H433V675H508V64H773V675H849V64H942V-156Z" />
<glyph unicode="&#x42a;" glyph-name="uni042A" horiz-adv-x="642" d="M268 401Q278 402 303 402T359 403Q421 403 467 389T544 350T590 289T605 210Q605 110 535 54T345 -3Q323 -3 299 -3T256 -2T216 -1T191 0V612H19V675H268V401ZM525 203Q525 234 515 259T484
303T430 331T352 341Q323 341 301 341T268 340V61Q278 61 300 60T350 59Q438 59 481 96T525 203Z" />
<glyph unicode="&#x42b;" glyph-name="uni042B" horiz-adv-x="796" d="M428 203Q428 234 418 259T387 303T332 331T253 341Q224 341 201 341T168 340V61Q178 61 201 60T251 59Q340 59 384 96T428 203ZM507 210Q507 160 489 121T436 54T353 12T246 -3Q223 -3 199
-3T156 -2T116 -1T91 0V675H168V401Q179 402 204 402T260 403Q322 403 369 389T446 350T492 289T507 210Z" />
<glyph unicode="&#x42c;" glyph-name="uni042C" horiz-adv-x="544" d="M428 203Q428 234 418 259T387 303T332 331T253 341Q224 341 201 341T168 340V61Q178 61 201 60T251 59Q340 59 384 96T428 203ZM507 210Q507 160 489 121T436 54T353 12T246 -3Q223 -3 199
-3T156 -2T116 -1T91 0V675H168V401Q179 402 204 402T260 403Q322 403 369 389T446 350T492 289T507 210Z" />
<glyph unicode="&#x42d;" glyph-name="uni042D" horiz-adv-x="589" d="M544 340Q544 261 521 197T455 87T351 17T215 -7Q172 -7 128 0T46 22L63 91Q97 77 139 68T221 59Q277 59 321 77T396 130T443 212T460 316H129V378H459Q450 495 388 556T221 617Q184 617 144
610T71 589L57 653Q97 667 140 674T232 682Q382 682 463 593T544 340Z" />
<glyph unicode="&#x42e;" glyph-name="uni042E" horiz-adv-x="933" d="M805 333Q805 467 752 542T593 618Q546 618 507 601T440 549T397 462T381 343Q381 277 393 225T432 135T499 77T593 57Q640 57 678 74T745 126T789 213T805 333ZM885 346Q885 260 862 193T799
81T704 14T586 -9Q516 -9 464 13T376 78T323 181T303 317H168V0H91V675H168V379H305Q311 450 335 507T398 603T488 663T601 684Q672 684 725 661T814 594T867 488T885 346Z" />
<glyph unicode="&#x42f;" glyph-name="uni042F" horiz-adv-x="578" d="M410 614Q392 615 370 616T325 617Q246 617 207 583T168 489Q168 358 326 358H410V614ZM410 0V298H315Q280 241 247 187T185 86T131 0H39Q84 69 125 132T199 246T240 309Q168 320 128 364T88
480Q88 572 153 625T337 679Q370 679 404 677T486 672V0H410Z" />
<glyph unicode="&#x430;" glyph-name="uni0430" horiz-adv-x="520" d="M353 237Q289 237 245 229T174 207T137 174T125 134Q125 98 147 75T207 52Q238 52 265 66T312 105T342 160T353 222V237ZM356 0Q356 38 357 62T361 105H359Q350 81 334 61T295 24T245 0T186
-9Q126 -9 88 27T50 123Q50 201 129 246T353 292V322Q353 386 328 416T241 446Q207 446 167 437T90 411L76 470Q117 487 161 496T250 506Q299 506 333 494T388 460T418 405T428 332V149Q428 116 428 93T428 45T430 0H356Z" />
<glyph unicode="&#x431;" glyph-name="uni0431" horiz-adv-x="550" d="M428 258Q428 345 394 392T292 440Q258 440 230 425T183 383T153 325T142 262Q142 161 180 108T286 54Q316 54 342 66T387 103T417 167T428 258ZM507 265Q507 206 492 156T446 69T373 12T275
-9Q226 -9 187 8T120 62T77 154T62 286V293Q62 353 68 407T85 508T114 591T153 649Q187 683 228 698T318 718T405 726T464 739V672Q441 661 401 657T325 651T257 638T201 603Q188 590 178 574T159 533T143 472T130 385H131Q151 436 196 468T307 501Q349 501 385
488T448 447T491 374T507 265Z" />
<glyph unicode="&#x432;" glyph-name="uni0432" horiz-adv-x="530" d="M392 143Q392 167 382 184T352 212T307 228T249 233H164V59Q183 55 208 52T255 49Q291 49 317 56T359 76T384 106T392 143ZM374 367Q374 385 368 399T346 424T306 442T243 448Q220 448 200
447T164 443V287H249Q311 287 342 307T374 367ZM469 149Q469 117 456 89T416 39T346 5T246 -8Q208 -8 166 -5T91 5V495Q132 499 174 502T254 505Q309 505 347 495T407 468T438 428T448 378Q448 338 427 310T363 268V267Q416 256 442 226T469 149Z" />
<glyph unicode="&#x433;" glyph-name="uni0433" horiz-adv-x="374" d="M166 436V0H91V497H346V436H166Z" />
<glyph unicode="&#x434;" glyph-name="uni0434" horiz-adv-x="582" d="M547 -147H480V0H85V-147H17V60H74Q95 88 107 121T127 191T136 264T138 338V497H479V60H547V-147ZM405 437H209V351Q209 314 207 274T199 196T182 122T151 60H405V437Z" />
<glyph unicode="&#x435;" glyph-name="uni0435" horiz-adv-x="505" d="M379 305Q380 373 348 410T258 448Q205 448 169 411T124 305H379ZM456 303Q456 286 456 271T454 250H122Q121 149 161 101T284 53Q320 53 356 59T430 80L441 21Q353 -9 274 -9Q160 -9 102
54T44 246Q44 301 59 349T102 432T171 486T263 506Q313 506 350 491T410 447T445 382T456 303Z" />
<glyph unicode="&#x436;" glyph-name="uni0436" horiz-adv-x="681" d="M303 497H378V268L558 497H643L455 267L655 0H558L378 254V0H303V254L120 0H26L225 265L37 497H125L303 268V497Z" />
<glyph unicode="&#x437;" glyph-name="uni0437" horiz-adv-x="438" d="M391 149Q391 117 378 89T339 38T272 4T180 -9Q141 -9 106 -5T40 8L53 75Q83 62 118 56T187 49Q250 49 281 75T313 143Q313 189 274 210T164 232H110V287H163Q295 287 295 370Q295 405 267
427T177 449Q152 449 122 444T63 429L53 485Q85 495 121 500T192 506Q240 506 275 496T331 468T361 428T371 380Q371 341 348 310T282 268V267Q336 256 363 227T391 149Z" />
<glyph unicode="&#x438;" glyph-name="uni0438" horiz-adv-x="570" d="M404 0V287Q404 319 406 351T410 405H409Q400 385 387 361T350 297L168 0H91V497H166V220Q166 166 161 101H162Q174 122 186 143T224 206L402 497H404H479V0H404Z" />
<glyph unicode="&#x439;" glyph-name="uni0439" horiz-adv-x="570" d="M404 0V287Q404 319 406 351T410 405H409Q400 385 387 361T350 297L168 0H91V497H166V220Q166 166 161 101H162Q174 122 186 143T224 206L402 497H404H479V0H404ZM438 715Q438 689 429 667T401
627T353 600T285 590Q212 590 173 623T134 715H202Q202 639 287 639Q327 639 348 659T369 715H438Z" />
<glyph unicode="&#x43a;" glyph-name="uni043A" horiz-adv-x="482" d="M358 0L166 254V0H91V497H166V268L358 497H445L245 267L455 0H358Z" />
<glyph unicode="&#x43b;" glyph-name="uni043B" horiz-adv-x="542" d="M376 0V435H187Q187 307 178 223T147 88T93 16T12 -9L5 53Q34 56 54 72T88 136T108 269T114 497H451V0H376Z" />
<glyph unicode="&#x43c;" glyph-name="uni043C" horiz-adv-x="729" d="M605 0L555 297Q549 334 545 361T538 416H537Q533 393 528 372T516 333L402 0H323L215 312Q207 338 199 364T185 416H184Q182 390 178 360T168 293L121 0H47L134 497H228L339 175Q347 154
353 130T365 82H366Q376 129 395 181L505 497H596L682 0H605Z" />
<glyph unicode="&#x43d;" glyph-name="uni043D" horiz-adv-x="578" d="M412 0V226H166V0H91V497H166V288H412V497H487V0H412Z" />
<glyph unicode="&#x43e;" glyph-name="uni043E" horiz-adv-x="542" d="M422 249Q422 341 382 392T272 444Q238 444 210 432T162 394T132 333T121 248Q121 156 160 105T270 54Q303 54 330 65T378 101T410 162T422 249ZM499 254Q499 199 484 151T439 67T365 11T263
-9Q213 -9 173 6T103 53T59 132T43 243Q43 298 58 346T104 430T178 486T280 506Q330 506 370 491T439 444T483 365T499 254Z" />
<glyph unicode="&#x43f;" glyph-name="uni043F" horiz-adv-x="573" d="M407 0V437H166V0H91V497H482V0H407Z" />
<glyph unicode="&#x440;" glyph-name="uni0440" horiz-adv-x="558" d="M433 265Q433 351 404 397T314 444Q278 444 250 426T204 377T176 310T166 240V66Q208 53 263 53Q302 53 333 65T387 103T421 169T433 265ZM512 271Q512 139 445 67T258 -6Q230 -6 210 -5T166
1V-249H91V497H165Q165 470 163 440T157 389L159 388Q180 443 225 474T329 506Q417 506 464 446T512 271Z" />
<glyph unicode="&#x441;" glyph-name="uni0441" horiz-adv-x="440" d="M411 21Q379 8 339 1T259 -7Q214 -7 176 4T108 43T61 116T44 231Q44 292 59 342T105 429T179 484T281 504Q353 504 408 482L393 418Q366 429 335 435T272 442Q237 442 209 428T162 387T133
324T123 244Q123 203 130 170T155 112T201 72T274 57Q342 57 397 83L411 21Z" />
<glyph unicode="&#x442;" glyph-name="uni0442" horiz-adv-x="393" d="M234 435V0H159V435H12V497H382V435H234Z" />
<glyph unicode="&#x443;" glyph-name="uni0443" horiz-adv-x="471" d="M257 -47Q235 -106 212 -146T162 -210T102 -246T26 -257Q10 -257 -4 -255T-26 -251L-18 -186Q-11 -188 5 -190T40 -193Q63 -193 81 -187T116 -165T148 -123T178 -58L201 0L11 497H97L201 211Q213
177 222 149T240 90H241Q247 114 260 154T290 242L379 497H461L257 -47Z" />
<glyph unicode="&#x444;" glyph-name="uni0444" horiz-adv-x="672" d="M299 444Q261 441 229 428T172 390T133 331T119 252Q119 165 165 114T299 55V444ZM553 246Q553 333 507 384T373 444V55Q411 58 443 71T500 109T539 167T553 246ZM628 252Q628 203 612 159T562
79T482 21T373 -7V-249H299V-9Q178 -4 111 61T44 246Q44 295 60 339T109 419T190 477T299 505V675H373V506Q494 501 561 437T628 252Z" />
<glyph unicode="&#x445;" glyph-name="uni0445" horiz-adv-x="515" d="M391 0L254 200L117 0H24L212 249L34 497H127L260 301L396 497H482L304 252L490 0H391Z" />
<glyph unicode="&#x446;" glyph-name="uni0446" horiz-adv-x="586" d="M557 -147H490V0H91V497H166V60H407V497H482V60H557V-147Z" />
<glyph unicode="&#x447;" glyph-name="uni0447" horiz-adv-x="525" d="M359 0V214Q328 198 292 189T215 180Q169 180 137 192T85 227T58 279T50 343V497H125V359Q125 329 130 307T146 270T178 247T229 239Q262 239 295 247T359 273V497H434V0H359Z" />
<glyph unicode="&#x448;" glyph-name="uni0448" horiz-adv-x="814" d="M91 0V497H166V60H371V497H446V60H648V497H723V0H91Z" />
<glyph unicode="&#x449;" glyph-name="uni0449" horiz-adv-x="826" d="M798 -147H731V0H91V497H166V60H371V497H446V60H648V497H723V60H798V-147Z" />
<glyph unicode="&#x44a;" glyph-name="uni044A" horiz-adv-x="545" d="M518 164Q518 128 504 97T461 42T392 6T297 -7Q263 -7 221 -4T149 6V437H2V497H224V310Q243 313 269 314T319 316Q419 316 468 275T518 164ZM440 155Q440 177 433 195T410 227T368 248T304
256Q284 256 263 255T224 251V64Q240 58 263 56T313 53Q374 53 407 81T440 155Z" />
<glyph unicode="&#x44b;" glyph-name="uni044B" horiz-adv-x="718" d="M553 0V497H628V0H553ZM382 155Q382 176 376 194T353 226T311 248T246 256Q224 256 202 255T166 251V64Q184 58 207 56T255 53Q318 53 350 81T382 155ZM461 164Q461 128 447 97T404 43T335
6T239 -7Q206 -7 165 -4T91 6V497H166V310Q187 313 212 314T261 316Q366 316 413 274T461 164Z" />
<glyph unicode="&#x44c;" glyph-name="uni044C" horiz-adv-x="487" d="M382 155Q382 176 376 194T353 226T311 248T246 256Q224 256 202 255T166 251V64Q184 58 207 56T255 53Q318 53 350 81T382 155ZM461 164Q461 128 447 97T404 43T335 6T239 -7Q206 -7 165
-4T91 6V497H166V310Q187 313 212 314T261 316Q366 316 413 274T461 164Z" />
<glyph unicode="&#x44d;" glyph-name="uni044D" horiz-adv-x="457" d="M414 249Q414 191 397 144T348 63T269 11T167 -7Q137 -7 103 -2T41 15L57 76Q82 66 112 60T172 53Q211 53 241 65T293 101T324 157T336 228H105V284H335Q329 364 286 405T170 446Q116 446
64 427L49 483Q78 493 110 499T179 505Q291 505 352 440T414 249Z" />
<glyph unicode="&#x44e;" glyph-name="uni044E" horiz-adv-x="747" d="M626 249Q626 341 588 392T485 444Q453 444 428 431T383 393T354 332T344 248Q344 156 382 105T485 54Q517 54 542 66T587 104T616 165T626 249ZM704 254Q704 199 689 151T645 67T573 11T477
-9Q383 -9 328 51T269 227H166V0H91V497H166V286H271Q276 330 291 369T335 440T402 488T493 506Q540 506 578 491T645 444T689 365T704 254Z" />
<glyph unicode="&#x44f;" glyph-name="uni044F" horiz-adv-x="503" d="M337 0V211H261L115 0H25L145 169Q155 183 166 197T186 221Q126 232 94 265T62 353Q62 425 114 464T269 504Q300 504 337 502T412 496V0H337ZM337 443Q317 445 297 446T258 448Q197 448 169
424T141 357Q141 336 148 320T169 292T206 274T260 267H337V443Z" />
<glyph unicode="&#x450;" glyph-name="uni0450" horiz-adv-x="505" d="M269 573L137 701L186 747L307 609L269 573ZM379 305Q380 373 348 410T258 448Q205 448 169 411T124 305H379ZM456 303Q456 286 456 271T454 250H122Q121 149 161 101T284 53Q320 53 356 59T430
80L441 21Q353 -9 274 -9Q160 -9 102 54T44 246Q44 301 59 349T102 432T171 486T263 506Q313 506 350 491T410 447T445 382T456 303Z" />
<glyph unicode="&#x451;" glyph-name="uni0451" horiz-adv-x="505" d="M213 657Q213 637 200 623T166 609Q146 609 132 623T118 657Q118 677 132 690T166 704Q186 704 199 691T213 657ZM401 657Q401 637 388 623T354 609Q334 609 320 623T306 657Q306 677 320
690T354 704Q374 704 387 691T401 657ZM379 305Q380 373 348 410T258 448Q205 448 169 411T124 305H379ZM456 303Q456 286 456 271T454 250H122Q121 149 161 101T284 53Q320 53 356 59T430 80L441 21Q353 -9 274 -9Q160 -9 102 54T44 246Q44 301 59 349T102 432T171
486T263 506Q313 506 350 491T410 447T445 382T456 303Z" />
<glyph unicode="&#x452;" glyph-name="uni0452" horiz-adv-x="577" d="M493 203Q493 113 489 55T477 -41T457 -100T424 -142Q404 -162 376 -175T305 -200L288 -142Q346 -127 370 -102Q384 -88 392 -72T407 -26T415 51T418 175V194Q418 269 412 317T393 393T360
432T311 443Q282 443 256 428T210 387T179 326T168 253V0H93V588H0V647H93V730H168V647H309V588H168V485Q168 459 166 433T160 389H161Q181 441 226 473T329 505Q374 505 405 490T455 441T484 354T493 219V203Z" />
<glyph unicode="&#x453;" glyph-name="uni0453" horiz-adv-x="374" d="M166 436V0H91V497H346V436H166ZM201 573L163 609L284 747L333 701L201 573Z" />
<glyph unicode="&#x454;" glyph-name="uni0454" horiz-adv-x="444" d="M416 21Q387 8 350 1T282 -7Q231 -7 189 4T114 43T63 119T44 240Q44 299 59 347T104 430T180 485T286 504Q323 504 355 499T411 482L396 422Q373 432 341 439T277 446Q242 446 215 434T168
400T137 349T122 284H352V228H122Q124 189 133 158T163 103T216 66T296 53Q319 53 348 59T402 78L416 21Z" />
<glyph unicode="&#x455;" glyph-name="uni0455" horiz-adv-x="428" d="M375 140Q375 109 362 82T324 35T260 3T175 -9Q145 -9 113 -5T56 5L63 74Q88 65 121 59T183 53Q238 53 268 74T298 134Q298 162 282 178T247 202T184 226T113 257T71 298T54 366Q54 396 66
421T102 465T162 495T244 506Q268 506 293 504T343 496L336 432Q313 439 287 443T236 447Q184 447 157 427T130 372Q130 345 146 328T181 304T244 280T315 249T358 208T375 140Z" />
<glyph unicode="&#x456;" glyph-name="uni0456" horiz-adv-x="257" d="M91 0V497H166V0H91ZM180 656Q180 635 165 621T130 606Q109 606 94 620T79 656Q79 677 94 692T130 707Q151 707 165 693T180 656Z" />
<glyph unicode="&#x457;" glyph-name="uni0457" horiz-adv-x="257" d="M91 0V497H166V0H91ZM91 657Q91 637 77 623T43 609Q23 609 9 623T-5 657Q-5 677 9 690T43 704Q63 704 77 691T91 657ZM262 657Q262 637 248 623T214 609Q194 609 180 623T166 657Q166 677
180 690T214 704Q234 704 248 691T262 657Z" />
<glyph unicode="&#x458;" glyph-name="uni0458" horiz-adv-x="265" d="M173 -63Q173 -113 165 -149T137 -209T88 -245T17 -256Q1 -256 -18 -254T-57 -248L-50 -182Q-36 -187 -16 -190T22 -193Q45 -193 59 -187T82 -167T95 -129T99 -68V497H173V-63V-63ZM188 657Q188
636 173 621T136 606Q115 606 100 620T85 657Q85 678 100 693T136 708Q158 708 173 694T188 657Z" />
<glyph unicode="&#x459;" glyph-name="uni0459" horiz-adv-x="769" d="M659 155Q659 176 653 194T630 226T588 248T523 256Q501 256 479 255T443 251V64Q461 58 485 56T532 53Q595 53 627 81T659 155ZM185 351Q185 257 176 190T146 80T93 15T13 -9L5 53Q34 56
54 71T87 119T105 206T111 341V497H443V310Q464 313 490 314T539 316Q643 316 690 274T738 164Q738 128 724 97T681 43T612 6T516 -7Q483 -7 442 -4T368 6V435H185V351Z" />
<glyph unicode="&#x45a;" glyph-name="uni045A" horiz-adv-x="804" d="M694 155Q694 176 688 194T665 226T623 248T558 256Q536 256 514 255T478 251V64Q496 58 520 56T567 53Q630 53 662 81T694 155ZM478 310Q499 313 524 314T573 316Q678 316 725 274T773 164Q773
128 759 97T716 43T647 6T551 -7Q518 -7 477 -4T403 6V226H166V0H91V497H166V288H403V497H478V310V310Z" />
<glyph unicode="&#x45b;" glyph-name="uni045B" horiz-adv-x="579" d="M413 0V321Q413 382 392 412T319 443Q286 443 258 428T210 384T179 319T168 237V0H93V588H0V647H93V730H168V647H309V588H168V482Q168 455 166 429T159 386L161 385Q183 441 229 473T338 505Q380
505 409 493T455 460T480 409T488 345V0H413Z" />
<glyph unicode="&#x45c;" glyph-name="uni045C" horiz-adv-x="482" d="M252 573L214 609L335 747L384 701L252 573ZM358 0L166 254V0H91V497H166V268L358 497H445L245 267L455 0H358Z" />
<glyph unicode="&#x45d;" glyph-name="uni045D" horiz-adv-x="570" d="M404 0V287Q404 319 406 351T410 405H409Q400 385 387 361T350 297L168 0H91V497H166V220Q166 166 161 101H162Q174 122 186 143T224 206L402 497H404H479V0H404ZM297 573L165 701L214 747L335
609L297 573Z" />
<glyph unicode="&#x45e;" glyph-name="uni045E" horiz-adv-x="471" d="M257 -47Q235 -106 212 -146T162 -210T102 -246T26 -257Q10 -257 -4 -255T-26 -251L-18 -186Q-11 -188 5 -190T40 -193Q63 -193 81 -187T116 -165T148 -123T178 -58L201 0L11 497H97L201 211Q213
177 222 149T240 90H241Q247 114 260 154T290 242L379 497H461L257 -47ZM648 715Q648 689 639 667T611 627T563 600T495 590Q422 590 383 623T344 715H412Q412 639 497 639Q537 639 558 659T579 715H648Z" />
<glyph unicode="&#x45f;" glyph-name="uni045F" horiz-adv-x="573" d="M320 0V-147H253V0H91V497H166V60H407V497H482V0H320Z" />
<glyph unicode="&#x462;" glyph-name="uni0462" horiz-adv-x="659" d="M19 592H184V706H260V592H473V531H260V397H359Q419 397 464 383T540 344T585 284T600 208Q600 158 582 119T530 52T448 10T340 -4Q316 -4 290 -4T242 -2T204 -1T184 1V531H19V592ZM522 200Q522
231 512 256T481 299T427 326T348 336H260V61Q267 61 294 60T347 59Q434 59 478 96T522 200Z" />
<glyph unicode="&#x463;" glyph-name="uni0463" horiz-adv-x="507" d="M481 161Q481 125 467 95T424 41T354 6T259 -7Q243 -7 224 -6T184 -4T145 0T111 6V438H2V497H111V662L186 683V497H331V438H186V305Q206 308 232 309T281 311Q382 311 431 271T481 161ZM402
153Q402 175 395 193T373 224T331 245T266 253Q246 253 224 251T186 247V62Q203 56 226 54T275 51Q336 51 369 79T402 153Z" />
<glyph unicode="&#x472;" glyph-name="uni0472" horiz-adv-x="708" d="M126 318Q128 259 143 211T188 129T258 75T354 56Q400 56 440 73T512 123T562 206T582 318H126ZM581 379Q570 494 511 556T354 619Q309 619 270 603T200 556T150 481T127 379H581ZM662 345Q662
261 638 195T570 83T468 14T345 -9Q273 -9 217 15T122 84T65 191T46 330Q46 414 70 480T138 592T240 661T363 684Q433 684 489 661T583 594T642 487T662 345Z" />
<glyph unicode="&#x473;" glyph-name="uni0473" horiz-adv-x="542" d="M119 228Q123 143 163 97T272 51Q300 51 326 61T372 93T406 148T422 228H119V228ZM421 282Q416 360 379 403T271 447Q243 447 218 437T172 407T137 356T120 282H421V282ZM499 257Q499 201
483 153T435 68T360 12T261 -9Q211 -9 171 6T102 53T58 133T42 246Q42 299 58 346T104 429T179 485T279 506Q324 506 364 493T434 450T481 373T499 257Z" />
<glyph unicode="&#x474;" glyph-name="uni0474" horiz-adv-x="608" d="M261 0L14 675H100L259 225Q270 194 282 157T305 84H306Q314 116 325 154T347 230L419 473Q436 531 451 570T486 633T532 667T600 678Q608 678 615 678T628 677Q634 676 639 676V609Q633 609
627 610Q622 611 615 611T600 612Q582 612 569 606T545 583T521 533T491 448L349 0H261Z" />
<glyph unicode="&#x475;" glyph-name="uni0475" horiz-adv-x="495" d="M508 435Q499 437 490 438T470 439Q456 439 447 435T431 419T416 390T396 336L284 0H192L11 497H95L201 194Q213 158 222 128T238 70H240Q246 96 253 122T272 186L324 352Q338 397 349 423T375
468T412 495T469 504Q487 504 508 501V435Z" />
<glyph unicode="&#x490;" glyph-name="uni0490" horiz-adv-x="425" d="M168 611V0H91V675H350V802H418V611H168Z" />
<glyph unicode="&#x491;" glyph-name="uni0491" horiz-adv-x="374" d="M166 436V0H91V497H279V620H346V436H166Z" />
<glyph unicode="&#x492;" glyph-name="uni0492" horiz-adv-x="473" d="M102 675H437V611H178V376H377V314H178V0H102V314H19V376H102V675Z" />
<glyph unicode="&#x493;" glyph-name="uni0493" horiz-adv-x="384" d="M101 497H356V436H176V282H297V221H176V0H101V221H21V282H101V497Z" />
<glyph unicode="&#x496;" glyph-name="uni0496" horiz-adv-x="848" d="M836 -156H767V0H702L441 339V0H365V339L102 0H4L286 345L12 675H105L365 352V675H441V352L702 675H791L520 350L759 63H836V-156Z" />
<glyph unicode="&#x497;" glyph-name="uni0497" horiz-adv-x="702" d="M620 -147V0H559L378 254V0H304V254L120 0H26L224 265L37 497H127L304 268V497H378V268L557 497H645L457 266L614 60H687V-147H620Z" />
<glyph unicode="&#x498;" glyph-name="uni0498" horiz-adv-x="522" d="M468 196Q468 162 457 130T422 70T360 23T268 -3V-156H199V-7Q156 -6 116 -2T45 12L56 80Q93 69 131 63T215 56Q264 56 297 66T351 95T379 138T388 190Q388 227 373 252T329 293T262 314T177
321H134V380H179Q267 380 317 412T367 505Q367 529 361 549T338 585T293 612T219 622Q152 622 80 598L72 659Q110 670 149 676T232 683Q287 683 327 671T394 636T432 583T445 518Q445 462 413 420T322 360V359Q359 352 386 337T432 301T459 253T468 196Z" />
<glyph unicode="&#x499;" glyph-name="uni0499" horiz-adv-x="438" d="M391 149Q391 122 382 97T353 52T304 17T236 -4V-147H169V-9Q130 -7 99 -3T40 8L53 75Q83 62 118 56T187 49Q250 49 281 75T313 143Q313 189 274 210T164 232H110V287H163Q295 287 295 370Q295
405 267 427T177 449Q152 449 122 444T63 429L53 485Q85 495 121 500T192 506Q240 506 275 496T331 468T361 428T371 380Q371 341 348 310T282 268V267Q336 256 363 227T391 149Z" />
<glyph unicode="&#x49a;" glyph-name="uni049A" horiz-adv-x="602" d="M590 -156H521V0H455L168 339V0H91V675H168V352L456 675H549L250 349L511 63H590V-156Z" />
<glyph unicode="&#x49b;" glyph-name="uni049B" horiz-adv-x="493" d="M481 -147H414V0H358L166 255V0H91V497H166V268L358 497H447L245 266L412 60H481V-147Z" />
<glyph unicode="&#x49c;" glyph-name="uni049C" horiz-adv-x="670" d="M667 0H567L324 322H299V185H239V322H168V0H91V675H168V384H239V516H299V384H324L567 675H656L384 357L667 0Z" />
<glyph unicode="&#x49d;" glyph-name="uni049D" horiz-adv-x="596" d="M306 230H271V124H213V230H166V0H91V497H166V290H213V390H271V290H306L467 497H553L367 267L571 0H475L306 230Z" />
<glyph unicode="&#x4a0;" glyph-name="uni04A0" horiz-adv-x="661" d="M555 0L268 339V0H191V612H19V675H268V352L556 675H649L350 350L661 0H555Z" />
<glyph unicode="&#x4a1;" glyph-name="uni04A1" horiz-adv-x="540" d="M303 267L513 0H416L224 254V0H149V437H2V497H224V268L415 497H504L303 267Z" />
<glyph unicode="&#x4a2;" glyph-name="uni04A2" horiz-adv-x="714" d="M687 63V-156H618V0H518V318H168V0H91V675H168V382H518V675H595V63H687Z" />
<glyph unicode="&#x4a3;" glyph-name="uni04A3" horiz-adv-x="591" d="M562 60V-147H495V0H412V226H166V0H91V497H166V288H412V497H487V60H562Z" />
<glyph unicode="&#x4aa;" glyph-name="uni04AA" horiz-adv-x="590" d="M373 -156H304V-4Q240 3 192 28T113 96T65 195T49 322Q49 400 68 465T128 579T230 655T377 682Q416 682 457 677T535 660L522 589Q483 602 443 609T364 617Q304 617 260 596T188 535T146 445T132
335Q132 202 192 131T374 60Q412 60 454 70T529 96L544 30Q508 15 464 5T373 -7V-156Z" />
<glyph unicode="&#x4ab;" glyph-name="uni04AB" horiz-adv-x="447" d="M289 -147H221V-5Q184 -1 153 13T97 55T58 126T44 231Q44 293 58 343T102 429T174 485T274 505Q310 505 345 497T412 474L389 410Q360 426 329 434T265 443Q231 443 204 429T159 388T132 325T123
245Q123 204 130 170T154 111T200 71T272 56Q302 56 334 64T394 87L413 28Q388 15 356 6T289 -6V-147Z" />
<glyph unicode="&#x4ae;" glyph-name="uni04AE" horiz-adv-x="527" d="M301 264V0H225V264L4 675H89L212 443Q227 413 239 387T265 331H266Q279 360 292 389T321 445L442 675H523L301 264Z" />
<glyph unicode="&#x4af;" glyph-name="uni04AF" horiz-adv-x="476" d="M273 0V-249H198V0L11 497H96L209 181Q217 158 224 135T237 88H239Q245 111 252 135T268 179L382 497H464L273 0Z" />
<glyph unicode="&#x4b0;" glyph-name="uni04B0" horiz-adv-x="537" d="M304 248H470V186H304V0H228V186H62V248H228L18 675H102L216 437Q229 408 242 379T268 317H269Q281 346 295 377T328 448L438 675H519L304 248Z" />
<glyph unicode="&#x4b1;" glyph-name="uni04B1" horiz-adv-x="477" d="M431 59V0H273V-249H199V0H41V59H194L11 497H97L207 218Q216 195 224 172T239 123H240Q246 147 255 172T272 217L384 497H466L279 59H431Z" />
<glyph unicode="&#x4b2;" glyph-name="uni04B2" horiz-adv-x="617" d="M605 63V-156H536V0H472L289 291L108 0H20L244 349L34 675H122L291 408L457 675H543L337 353L527 63H605Z" />
<glyph unicode="&#x4b3;" glyph-name="uni04B3" horiz-adv-x="539" d="M391 0L254 200L117 0H24L212 249L34 497H127L260 301L396 497H482L304 252L449 60H524V-147H457V0H391Z" />
<glyph unicode="&#x4b8;" glyph-name="uni04B8" horiz-adv-x="631" d="M329 326Q364 327 397 334T464 354V675H540V0H464V292Q431 280 399 273T329 263V135H270V264Q207 266 165 283T99 328T65 394T55 476V675H132V489Q132 453 138 425T160 377T203 344T270 328V467H329V326Z"
/>
<glyph unicode="&#x4b9;" glyph-name="uni04B9" horiz-adv-x="550" d="M281 241Q307 243 332 251T384 274V497H459V0H384V215Q360 202 334 194T281 184V89H225V181Q176 181 142 194T87 229T59 280T50 346V497H125V361Q125 300 146 271T225 240V351H281V241Z" />
<glyph unicode="&#x4ba;" glyph-name="uni04BA" horiz-adv-x="651" d="M486 0V205Q486 244 479 274T453 325T404 358T324 370Q283 370 244 363T168 341V0H91V675H168V403Q205 417 247 425T334 433Q402 433 447 416T518 370T553 303T563 219V0H486Z" />
<glyph unicode="&#x4bb;" glyph-name="uni04BB" horiz-adv-x="577" d="M411 0V321Q411 383 391 413T318 444Q285 444 257 429T209 385T177 320T166 238V0H91V730H166V486Q166 458 164 431T158 387L160 386Q182 442 228 474T337 506Q378 506 407 494T453 461T478
410T486 346V0H411Z" />
<glyph unicode="&#x4d8;" glyph-name="uni04D8" horiz-adv-x="602" d="M118 292Q118 230 130 186T164 113T217 72T288 59Q335 59 369 78T427 130T461 211T473 314H118V292ZM36 291Q36 300 36 311T37 334T39 357T41 376H473Q465 497 408 557T256 617Q199 617 155
606T79 579L63 642Q101 659 150 670T266 682Q332 682 385 661T477 597T535 490T556 339Q556 258 537 194T483 84T396 15T281 -9Q215 -9 169 13T93 74T50 169T36 291Z" />
<glyph unicode="&#x4d9;" glyph-name="uni04D9" horiz-adv-x="499" d="M378 283Q372 367 330 407T213 447Q177 447 142 440T74 418L59 475Q135 506 224 506Q336 506 396 444T456 251Q456 192 442 144T399 62T330 10T236 -9Q185 -9 149 8T90 55T55 127T44 219Q44
251 47 283H378ZM121 228Q120 221 120 218T120 209Q120 127 153 89T244 51Q277 51 302 64T344 101T370 157T379 228H121Z" />
<glyph unicode="&#x4e8;" glyph-name="uni04E8" horiz-adv-x="708" d="M126 318Q128 259 143 211T188 129T258 75T354 56Q400 56 440 73T512 123T562 206T582 318H126ZM581 379Q570 494 511 556T354 619Q309 619 270 603T200 556T150 481T127 379H581ZM662 345Q662
261 638 195T570 83T468 14T345 -9Q273 -9 217 15T122 84T65 191T46 330Q46 414 70 480T138 592T240 661T363 684Q433 684 489 661T583 594T642 487T662 345Z" />
<glyph unicode="&#x4e9;" glyph-name="uni04E9" horiz-adv-x="542" d="M119 228Q123 143 163 97T272 51Q300 51 326 61T372 93T406 148T422 228H119V228ZM421 282Q416 360 379 403T271 447Q243 447 218 437T172 407T137 356T120 282H421V282ZM499 257Q499 201
483 153T435 68T360 12T261 -9Q211 -9 171 6T102 53T58 133T42 246Q42 299 58 346T104 429T179 485T279 506Q324 506 364 493T434 450T481 373T499 257Z" />
<glyph unicode="&#x1e80;" glyph-name="Wgrave" horiz-adv-x="954" d="M733 0H636L498 474Q492 498 486 522T476 570H475Q465 511 455 474L320 0H223L38 675H120L247 210Q257 169 263 137T276 74H277Q284 111 291 142T306 205L440 675H517L657 197Q665 168 673
136T687 74H688Q692 102 697 129T710 185L841 675H916L733 0ZM518 729L338 786L362 847L534 773L518 729Z" />
<glyph unicode="&#x1e81;" glyph-name="wgrave" horiz-adv-x="792" d="M611 0H524L415 323Q407 347 400 371T387 419H386Q380 392 370 355T351 292L260 0H172L19 497H103L189 196Q194 177 205 135T221 76H222Q228 103 236 134T255 197L350 497H436L533 197Q540
174 545 157T555 125T562 99T568 75H570Q575 98 583 126T603 196L693 497H773L611 0ZM407 573L275 701L324 747L445 609L407 573Z" />
<glyph unicode="&#x1e82;" glyph-name="Wacute" horiz-adv-x="954" d="M733 0H636L498 474Q492 498 486 522T476 570H475Q465 511 455 474L320 0H223L38 675H120L247 210Q257 169 263 137T276 74H277Q284 111 291 142T306 205L440 675H517L657 197Q665 168 673
136T687 74H688Q692 102 697 129T710 185L841 675H916L733 0ZM436 729L420 773L592 847L616 786L436 729Z" />
<glyph unicode="&#x1e83;" glyph-name="wacute" horiz-adv-x="792" d="M611 0H524L415 323Q407 347 400 371T387 419H386Q380 392 370 355T351 292L260 0H172L19 497H103L189 196Q194 177 205 135T221 76H222Q228 103 236 134T255 197L350 497H436L533 197Q540
174 545 157T555 125T562 99T568 75H570Q575 98 583 126T603 196L693 497H773L611 0ZM372 573L334 609L455 747L504 701L372 573Z" />
<glyph unicode="&#x1e84;" glyph-name="Wdieresis" horiz-adv-x="954" d="M733 0H636L498 474Q492 498 486 522T476 570H475Q465 511 455 474L320 0H223L38 675H120L247 210Q257 169 263 137T276 74H277Q284 111 291 142T306 205L440 675H517L657 197Q665 168
673 136T687 74H688Q692 102 697 129T710 185L841 675H916L733 0ZM419 779Q419 760 406 746T372 732Q352 732 338 745T324 779Q324 799 338 813T372 827Q392 827 405 813T419 779ZM632 779Q632 760 619 746T585 732Q565 732 551 745T537 779Q537 799 551 813T585
827Q605 827 618 813T632 779Z" />
<glyph unicode="&#x1e85;" glyph-name="wdieresis" horiz-adv-x="792" d="M611 0H524L415 323Q407 347 400 371T387 419H386Q380 392 370 355T351 292L260 0H172L19 497H103L189 196Q194 177 205 135T221 76H222Q228 103 236 134T255 197L350 497H436L533 197Q540
174 545 157T555 125T562 99T568 75H570Q575 98 583 126T603 196L693 497H773L611 0ZM346 657Q346 637 333 623T299 609Q279 609 265 623T251 657Q251 677 265 690T299 704Q319 704 332 691T346 657ZM534 657Q534 637 521 623T487 609Q467 609 453 623T439 657Q439
677 453 690T487 704Q507 704 520 691T534 657Z" />
<glyph unicode="&#x1ef2;" glyph-name="Ygrave" horiz-adv-x="527" d="M301 264V0H225V264L4 675H89L212 443Q227 413 239 387T265 331H266Q279 360 292 389T321 445L442 675H523L301 264ZM512 729L332 786L356 847L528 773L512 729Z" />
<glyph unicode="&#x1ef3;" glyph-name="ygrave" horiz-adv-x="471" d="M257 -47Q235 -106 212 -146T162 -210T102 -246T26 -257Q10 -257 -4 -255T-26 -251L-18 -186Q-11 -188 5 -190T40 -193Q63 -193 81 -187T116 -165T148 -123T178 -58L201 0L11 497H97L201 211Q213
177 222 149T240 90H241Q247 114 260 154T290 242L379 497H461L257 -47ZM476 573L344 701L393 747L514 609L476 573Z" />
<glyph unicode="&#x2001;" glyph-name="emquad" horiz-adv-x="1000" d="M0 -250V750H1000V-250H0Z" />
<glyph unicode="&#x2010;" glyph-name="hyphen" horiz-adv-x="328" d="M48 260V322H280V260H48Z" />
<glyph unicode="&#x2011;" glyph-name="hyphennobreak" horiz-adv-x="328" d="M48 260V322H280V260H48Z" />
<glyph unicode="&#x2012;" glyph-name="figuredash" horiz-adv-x="550" d="M48 265V331H502V265H48Z" />
<glyph unicode="&#x2013;" glyph-name="endash" horiz-adv-x="550" d="M0 265V331H550V265H0Z" />
<glyph unicode="&#x2014;" glyph-name="emdash" horiz-adv-x="1000" d="M121 265V331H879V265H121Z" />
<glyph unicode="&#x2015;" glyph-name="uni2015" horiz-adv-x="1000" d="M121 265V331H879V265H121Z" />
<glyph unicode="&#x2017;" glyph-name="underscoredbl" horiz-adv-x="550" d="M0 -251V-200H550V-251H0ZM0 -127V-76H550V-127H0Z" />
<glyph unicode="&#x2018;" glyph-name="quoteleft" horiz-adv-x="234" d="M192 718Q169 693 157 672T140 633T137 602T148 578Q157 566 158 553T154 528T137 509T111 501Q87 501 72 520T57 574T82 652T159 747L192 718V718Z" />
<glyph unicode="&#x2019;" glyph-name="quoteright" horiz-adv-x="234" d="M122 741Q147 741 162 721T176 666T149 587T74 495L41 524Q63 549 76 570T93 608T95 640T85 664Q76 676 75 689T79 714T96 733T122 741Z" />
<glyph unicode="&#x201a;" glyph-name="quotesinglbase" horiz-adv-x="234" d="M122 99Q147 99 162 79T176 24T149 -55T74 -147L41 -118Q63 -93 76 -72T93 -34T95 -2T85 22Q76 34 75 47T79 72T96 91T122 99Z" />
<glyph unicode="&#x201b;" glyph-name="quotereversed" horiz-adv-x="234" d="M114 741Q134 741 147 727T160 694Q160 684 158 678T150 664T142 648T139 629Q139 608 152 582T194 524L160 495Q108 545 83 591T58 674Q58 705 73 723T114 741Z" />
<glyph unicode="&#x201c;" glyph-name="quotedblleft" horiz-adv-x="413" d="M192 718Q170 694 157 673T140 634T137 602T148 578Q157 566 158 553T154 528T137 509T111 501Q86 501 71 521T57 576T84 655T159 747L192 718ZM370 718Q348 694 335 673T318 634T316
602T327 578Q336 566 337 553T333 528T316 509T290 501Q265 501 250 521T235 576T262 655T337 747L370 718Z" />
<glyph unicode="&#x201d;" glyph-name="quotedblright" horiz-adv-x="413" d="M122 741Q147 741 162 721T176 666T149 587T74 495L41 524Q63 549 76 570T93 608T95 640T85 664Q76 676 75 689T79 714T96 733T122 741ZM300 741Q325 741 340 721T354 666T328 587T252
495L219 524Q263 571 271 606T263 664Q254 676 253 689T257 714T274 733T300 741Z" />
<glyph unicode="&#x201e;" glyph-name="quotedblbase" horiz-adv-x="413" d="M122 99Q147 99 162 79T176 24T149 -55T74 -147L41 -118Q63 -93 76 -72T93 -34T95 -2T85 22Q76 34 75 47T79 72T96 91T122 99ZM300 99Q325 99 340 79T354 24T328 -55T252 -147L219 -118Q263
-71 271 -36T263 22Q254 34 253 47T257 72T274 91T300 99Z" />
<glyph unicode="&#x2020;" glyph-name="dagger" horiz-adv-x="445" d="M252 566L267 465L250 216H195L178 465L193 566H51V625H193L178 762H267L252 625H394V566H252Z" />
<glyph unicode="&#x2021;" glyph-name="daggerdbl" horiz-adv-x="445" d="M252 299L267 166H178L193 299H51V357H193L178 464L193 571H51V629H193L178 762H267L252 629H394V571H252L267 464L252 357H394V299H252Z" />
<glyph unicode="&#x2022;" glyph-name="bullet" horiz-adv-x="419" d="M320 297Q320 274 311 254T287 219T252 196T210 187Q187 187 167 195T132 219T109 254T100 297Q100 320 108 340T132 375T167 398T210 407Q232 407 252 399T287 375T311 340T320 297Z" />
<glyph unicode="&#x2024;" glyph-name="onedotlead" horiz-adv-x="500" d="M303 45Q303 23 288 8T250 -8Q227 -8 212 7T197 45Q197 68 212 83T250 98Q273 98 288 83T303 45Z" />
<glyph unicode="&#x2025;" glyph-name="twodotlead" horiz-adv-x="500" d="M178 45Q178 23 163 8T125 -8Q102 -8 87 7T72 45Q72 68 87 83T125 98Q148 98 163 83T178 45ZM428 45Q428 23 413 8T375 -8Q352 -8 337 7T322 45Q322 68 337 83T375 98Q398 98 413 83T428 45Z" />
<glyph unicode="&#x2026;" glyph-name="ellipsis" horiz-adv-x="642" d="M161 45Q161 23 145 8T107 -8Q85 -8 70 7T54 45Q54 67 69 82T107 98Q130 98 145 83T161 45ZM368 45Q368 23 353 8T315 -8Q293 -8 278 7T262 45Q262 67 277 82T315 98Q338 98 353 83T368
45ZM576 45Q576 23 561 8T523 -8Q501 -8 485 7T469 45Q469 67 484 82T523 98Q545 98 560 83T576 45Z" />
<glyph unicode="&#x2030;" glyph-name="perthousand" horiz-adv-x="1015" d="M317 540Q317 502 306 473T276 423T232 393T179 382Q121 382 86 415T50 526Q50 563 61 592T91 642T135 672T188 683Q216 683 239 675T280 650T307 606T317 540ZM255 533Q255 582 239
606T185 631Q151 631 132 604T113 532Q113 483 129 459T183 434Q217 434 236 461T255 533ZM103 -15L56 21L586 690L634 653L103 -15ZM640 150Q640 112 629 83T599 33T555 2T502 -9Q444 -9 409 24T373 135Q373 172 384 201T414 251T458 281T511 292Q539 292 562
285T603 260T630 216T640 150ZM578 143Q578 191 562 215T508 240Q474 240 455 214T436 142Q436 92 452 68T506 43Q540 43 559 70T578 143ZM955 150Q955 112 944 83T915 33T871 2T817 -9Q760 -9 724 24T688 135Q688 172 699 201T729 251T773 281T827 292Q855 292
878 285T919 260T945 216T955 150ZM893 143Q893 191 877 215T823 240Q789 240 770 214T751 142Q751 92 767 68T821 43Q855 43 874 70T893 143Z" />
<glyph unicode="&#x2032;" glyph-name="minute" horiz-adv-x="190" d="M170 698L115 478H62L90 698H170Z" />
<glyph unicode="&#x2033;" glyph-name="second" horiz-adv-x="345" d="M170 698L115 478H62L90 698H170ZM325 698L270 478H217L245 698H325Z" />
<glyph unicode="&#x2039;" glyph-name="guilsinglleft" horiz-adv-x="313" d="M179 121L59 293L180 469L234 437L134 294L234 154L179 121Z" />
<glyph unicode="&#x203a;" glyph-name="guilsinglright" horiz-adv-x="313" d="M133 121L79 153L179 295L80 436L136 469L255 296L133 121Z" />
<glyph unicode="&#x203e;" glyph-name="uni203E" horiz-adv-x="550" d="M0 798V857H550V798H0Z" />
<glyph unicode="&#x2044;" glyph-name="fraction" horiz-adv-x="210" d="M-158 -115L-209 -79L392 779L442 743L-158 -115Z" />
<glyph unicode="&#x2070;" glyph-name="zero.superior" horiz-adv-x="460" d="M411 575Q411 525 400 483T365 410T307 361T225 343Q178 343 145 359T90 406T59 476T49 568Q49 618 60 660T95 733T153 782T235 800Q282 800 315 784T370 737T401 667T411 575ZM334
570Q334 606 329 637T313 691T281 729T230 743Q201 743 181 730T149 693T132 639T126 574Q126 538 131 507T147 452T179 414T230 400Q259 400 279 413T312 451T329 505T334 570Z" />
<glyph unicode="&#x2071;" glyph-name="uni2071" horiz-adv-x="200" d="M143 777Q143 760 130 749T100 737Q82 737 70 748T57 777Q57 795 69 807T100 819Q117 819 130 808T143 777ZM67 351V675H132V351H67Z" />
<glyph unicode="&#x2074;" glyph-name="four.superior" horiz-adv-x="406" d="M307 452V351H235V452H27L22 502L203 792H307V513H379V452H307ZM235 738L95 510Q108 511 127 511T166 512T202 513T235 513V738Z" />
<glyph unicode="&#x2075;" glyph-name="five.superior" horiz-adv-x="361" d="M61 411Q77 406 98 403T140 399Q188 399 213 423T239 482Q239 521 213 543T126 566Q115 566 100 565T71 562V792H293V731H139V621H157Q231 621 274 587T317 491Q317 425 270 384T137
343Q117 343 95 345T54 352L61 411Z" />
<glyph unicode="&#x2076;" glyph-name="six.superior" horiz-adv-x="424" d="M334 739Q325 741 308 742T276 744Q242 744 218 736T175 709Q161 695 153 678T140 644T131 609T124 583Q139 605 168 617T231 630Q298 630 338 595T378 497Q378 461 366 433T331 384T278
354T211 343Q131 343 93 393T54 534Q54 593 67 641T108 725T179 780T280 800Q297 800 313 799T341 796L334 739ZM305 488Q305 531 281 554T219 577Q180 577 154 555T128 495Q128 452 152 425T217 398Q257 398 281 423T305 488Z" />
<glyph unicode="&#x2077;" glyph-name="seven.superior" horiz-adv-x="343" d="M310 735Q290 694 271 646T233 547T200 446T175 351H95Q108 403 125 458T162 564T201 659T236 730Q230 729 206 729T150 728T90 728T30 728V792H310V735Z" />
<glyph unicode="&#x2078;" glyph-name="eight.superior" horiz-adv-x="410" d="M363 465Q363 409 321 376T201 342Q127 342 88 371T48 455Q48 490 71 518T141 574Q99 597 78 623T57 685Q57 738 97 769T210 801Q279 801 316 773T354 694Q354 661 333 636T269 585Q317
561 340 533T363 465ZM283 691Q283 719 263 734T205 749Q168 749 148 734T127 691Q127 667 145 649T209 610Q247 631 265 649T283 691ZM292 458Q292 484 271 505T200 549Q157 524 138 504T119 459Q119 428 142 412T205 395Q246 395 269 412T292 458Z" />
<glyph unicode="&#x2079;" glyph-name="nine.superior" horiz-adv-x="425" d="M75 407Q115 398 150 398Q210 398 244 429T291 526Q293 531 295 543T301 562Q286 539 258 526T195 513Q128 513 88 548T48 647Q48 718 94 759T215 800Q256 800 286 786T335 747T362
686T371 606Q371 547 358 499T316 416T245 362T144 343Q126 343 105 345T69 350L75 407ZM297 651Q297 694 274 719T210 745Q170 745 146 721T121 657Q121 615 143 591T207 567Q247 567 272 589T297 651Z" />
<glyph unicode="&#x207a;" glyph-name="uni207A" horiz-adv-x="450" d="M257 535V405H193V535H61V589H193V719H257V589H389V535H257Z" />
<glyph unicode="&#x207b;" glyph-name="uni207B" horiz-adv-x="450" d="M61 535V589H389V535H61Z" />
<glyph unicode="&#x207c;" glyph-name="uni207C" horiz-adv-x="450" d="M61 452V506H389V452H61ZM61 618V672H389V618H61Z" />
<glyph unicode="&#x207d;" glyph-name="parenleft.superior" horiz-adv-x="306" d="M177 195Q126 283 101 372T76 559Q76 657 101 748T177 928L242 911Q150 751 150 563Q150 469 173 382T243 212L177 195Z" />
<glyph unicode="&#x207e;" glyph-name="parenright.superior" horiz-adv-x="306" d="M64 212Q110 293 133 379T156 559Q156 656 133 742T63 911L130 928Q181 840 206 752T231 563Q231 464 206 374T130 195L64 212Z" />
<glyph unicode="&#x207f;" glyph-name="nsuperior" horiz-adv-x="424" d="M291 351V559Q291 592 279 610T232 629Q210 629 192 620T161 594T140 555T132 507V351H67V675H130Q130 661 129 642T125 609L126 608Q141 641 173 661T251 681Q281 681 301 673T333 651T351
618T356 577V351H291Z" />
<glyph unicode="&#x2080;" glyph-name="zero.inferior" horiz-adv-x="430" d="M411 106Q411 56 400 14T365 -59T307 -108T225 -126Q178 -126 145 -110T90 -63T59 7T49 99Q49 149 60 191T95 264T153 313T235 331Q282 331 315 315T370 268T401 198T411 106ZM334
101Q334 137 329 168T313 222T281 260T230 274Q201 274 181 261T149 224T132 170T126 105Q126 69 131 38T147 -17T179 -55T230 -69Q259 -69 279 -56T312 -18T329 36T334 101Z" />
<glyph unicode="&#x2081;" glyph-name="one.inferior" horiz-adv-x="268" d="M130 -118V253L32 219L18 279L144 323H204V-118H130Z" />
<glyph unicode="&#x2082;" glyph-name="two.inferior" horiz-adv-x="351" d="M44 -118V-63L154 46Q196 89 216 123T236 189Q236 227 216 249T155 271Q130 271 105 264T61 245L49 303Q75 315 107 323T171 331Q239 331 276 296T313 203Q313 156 292 115T223 26L140
-56Q174 -55 217 -55T334 -54V-118H44Z" />
<glyph unicode="&#x2083;" glyph-name="three.inferior" horiz-adv-x="341" d="M312 15Q312 -17 300 -43T264 -87T206 -116T130 -126Q108 -126 85 -124T42 -117L50 -56Q68 -62 90 -65T135 -68Q183 -68 209 -47T236 9Q236 50 195 70T72 83V137Q152 137 186 156T220
214Q220 243 200 259T145 275Q99 275 58 256L49 311Q103 331 159 331Q223 331 259 303T295 222Q295 147 219 120Q262 113 287 83T312 15Z" />
<glyph unicode="&#x2084;" glyph-name="four.inferior" horiz-adv-x="380" d="M307 -17V-118H235V-17H27L22 33L203 323H307V44H379V-17H307ZM235 269L95 41Q108 42 127 42T166 43T202 44T235 44V269Z" />
<glyph unicode="&#x2085;" glyph-name="five.inferior" horiz-adv-x="338" d="M61 -58Q77 -63 98 -66T140 -70Q188 -70 213 -46T239 13Q239 52 213 74T126 97Q115 97 100 96T71 93V323H293V262H139V152H157Q231 152 274 118T317 22Q317 -44 270 -85T137 -126Q117
-126 95 -124T54 -117L61 -58Z" />
<glyph unicode="&#x2086;" glyph-name="six.inferior" horiz-adv-x="397" d="M334 270Q325 272 308 273T276 275Q242 275 218 267T175 240Q161 226 153 209T140 175T131 140T124 114Q139 136 168 148T231 161Q298 161 338 126T378 28Q378 -8 366 -36T331 -85T278
-115T211 -126Q131 -126 93 -76T54 65Q54 124 67 172T108 256T179 311T280 331Q297 331 313 330T341 327L334 270ZM305 19Q305 62 281 85T219 108Q180 108 154 86T128 26Q128 -17 152 -44T217 -71Q257 -71 281 -46T305 19Z" />
<glyph unicode="&#x2087;" glyph-name="seven.inferior" horiz-adv-x="321" d="M310 266Q290 225 271 177T233 78T200 -23T175 -118H95Q108 -66 125 -11T162 95T201 190T236 261Q230 260 206 260T150 259T90 259T30 259V323H310V266Z" />
<glyph unicode="&#x2088;" glyph-name="eight.inferior" horiz-adv-x="384" d="M363 -4Q363 -60 321 -93T201 -127Q127 -127 88 -98T48 -14Q48 21 71 49T141 105Q99 128 78 154T57 216Q57 269 97 300T210 332Q279 332 316 304T354 225Q354 192 333 167T269 116Q317
92 340 64T363 -4ZM283 222Q283 250 263 265T205 280Q168 280 148 265T127 222Q127 198 145 180T209 141Q247 162 265 180T283 222ZM292 -11Q292 15 271 36T200 80Q157 55 138 35T119 -10Q119 -41 142 -57T205 -74Q246 -74 269 -57T292 -11Z" />
<glyph unicode="&#x2089;" glyph-name="nine.inferior" horiz-adv-x="397" d="M75 -62Q115 -71 150 -71Q210 -71 244 -40T291 57Q293 62 295 74T301 93Q286 70 258 57T195 44Q128 44 88 79T48 178Q48 249 94 290T215 331Q256 331 286 317T335 278T362 217T371
137Q371 78 358 30T316 -53T245 -107T144 -126Q126 -126 105 -124T69 -119L75 -62ZM297 182Q297 225 274 250T210 276Q170 276 146 252T121 188Q121 146 143 122T207 98Q247 98 272 120T297 182Z" />
<glyph unicode="&#x208a;" glyph-name="uni208A" horiz-adv-x="420" d="M257 65V-65H193V65H61V119H193V249H257V119H389V65H257Z" />
<glyph unicode="&#x208b;" glyph-name="uni208B" horiz-adv-x="420" d="M61 65V119H389V65H61Z" />
<glyph unicode="&#x208c;" glyph-name="uni208C" horiz-adv-x="420" d="M61 -18V36H389V-18H61ZM61 148V202H389V148H61Z" />
<glyph unicode="&#x208d;" glyph-name="parenleft.inferior" horiz-adv-x="303" d="M177 -275Q126 -187 101 -98T76 89Q76 187 101 278T177 458L242 441Q150 281 150 93Q150 -1 173 -88T243 -258L177 -275Z" />
<glyph unicode="&#x208e;" glyph-name="parenright.inferior" horiz-adv-x="303" d="M64 -258Q110 -177 133 -91T156 89Q156 186 133 272T63 441L130 458Q181 370 206 282T231 93Q231 -6 206 -96T130 -275L64 -258Z" />
<glyph unicode="&#x20a1;" glyph-name="colonmonetary" horiz-adv-x="607" d="M558 28Q479 -3 397 -6L380 -151H327L343 -7Q326 -7 309 -6T276 0L259 -151H206L224 15Q138 47 94 126T50 325Q50 390 64 447T109 550T186 627T297 672L310 792H364L351 680Q367 681
385 681T419 680L431 792H485L472 675Q498 672 550 660L543 590Q525 596 506 601T466 610L402 59Q485 62 552 95L558 28ZM413 616Q402 617 380 617T345 617L283 70Q317 59 348 58L413 616ZM291 605Q249 593 219 568T169 506T140 427T130 333Q130 246 155 186T232
94L291 605Z" />
<glyph unicode="&#x20a2;" glyph-name="cruzeiro" horiz-adv-x="587" d="M461 180Q461 217 441 239T388 278V76Q426 87 443 114T461 180ZM336 293Q317 299 297 305T256 318V58Q270 58 292 59T336 63V293ZM336 620Q304 620 286 619T256 615V400Q274 394 294 388T336
375V620ZM204 604Q181 595 167 584T144 560T132 534T129 509Q129 472 150 450T204 414V604ZM539 194Q539 128 500 80T388 9V-151H336V-2Q319 -6 299 -7T256 -9V-151H204V-8Q169 -6 132 -1T68 11L73 86Q100 78 135 72T204 61V330Q172 340 145 353T98 387T66 434T54
500Q54 554 88 600T204 669V792H256V679Q273 681 291 682T336 684V792H388V683Q445 680 498 669L493 599Q470 606 442 610T388 617V362Q421 353 448 339T496 305T528 257T539 194Z" />
<glyph unicode="&#x20a3;" glyph-name="franc" horiz-adv-x="550" d="M213 613V442H420V384H213V297H420V239H213V0H136V239H39V297H136V384H39V442H136V675H474V613H213Z" />
<glyph unicode="&#x20a4;" glyph-name="lira" horiz-adv-x="550" d="M75 0V52Q126 97 149 132T173 207Q173 212 173 224T172 242H57V294H166L156 373H57V426H150Q148 445 147 462T145 496Q145 592 194 637T334 682Q360 682 393 678T452 665L435 601Q409 610 381
615T327 621Q274 621 247 591T220 504Q220 487 221 468T226 426H396V373H232Q233 368 237 339T242 294H396V242H247Q248 227 248 212Q248 168 229 135T167 64Q185 65 206 65T250 66H477V0H75Z" />
<glyph unicode="&#x20a7;" glyph-name="peseta" horiz-adv-x="1272" d="M408 474Q408 544 367 579T241 615Q202 615 168 613V332Q177 331 197 329T244 326Q324 326 366 365T408 474ZM1202 140Q1202 109 1189 82T1151 35T1087 3T1002 -9Q962 -9 926 -4T857 12Q824
3 790 -2T724 -8Q687 -8 662 0T622 27T600 72T593 140V438H482Q475 398 455 366T403 310T329 275T236 262Q199 262 168 266V0H91V675Q113 676 159 677T253 678Q361 678 422 629T487 497H593V662L668 683V497H814V438H668V161Q668 130 671 110T683 79T706 62T743
57Q770 57 800 63T867 82Q902 68 937 61T1010 53Q1065 53 1095 74T1125 134Q1125 162 1109 179T1074 203T1011 226T940 256T898 298T881 366Q881 395 893 420T930 465T990 495T1071 506Q1095 506 1121 504T1170 496L1163 432Q1140 439 1114 443T1063 447Q1012 447
985 427T958 372Q958 344 974 328T1008 304T1071 281T1143 250T1185 208T1202 140Z" />
<glyph unicode="&#x20ac;" glyph-name="Euro" horiz-adv-x="592" d="M564 46Q521 20 476 6T367 -9Q254 -9 188 53T106 234H13V286H102V322Q102 338 102 353T104 382H13V434H109Q120 500 145 547T207 625T290 670T388 684Q435 684 480 672T555 643L530 584Q504
600 465 611T379 623Q345 623 314 613T258 579T215 520T190 434H424V382H185Q184 371 184 359T183 334V309Q183 297 184 286H424V234H189Q200 147 249 101T383 54Q424 54 464 67T540 103L564 46V46Z" />
<glyph unicode="&#x20b4;" glyph-name="uni20B4" horiz-adv-x="550" d="M184 300Q199 317 230 347T275 392H59V444H318Q336 468 345 489T355 534Q355 576 329 599T250 622Q223 622 191 616T128 598L114 656Q149 669 187 676T263 684Q341 684 387 647T434 546Q434
520 425 495T400 444H491V392H362Q345 372 320 348T272 300H491V247H227Q206 222 195 198T184 148Q184 103 214 78T303 53Q332 53 368 60T437 79L450 22Q416 8 374 0T291 -9Q207 -9 156 29T105 136Q105 165 115 192T145 247H59V300H184Z" />
<glyph unicode="&#x2105;" glyph-name="uni2105" horiz-adv-x="736" d="M638 158Q638 277 552 277Q513 277 491 248T468 164Q468 45 553 45Q592 45 615 74T638 158ZM282 362Q264 354 239 349T186 344Q155 344 130 352T85 378T55 427T44 501Q44 540 54 573T84 629T135
666T206 679Q245 679 281 668L270 613Q255 619 239 622T205 626Q159 626 135 595T111 509Q111 458 131 429T201 399Q240 399 273 414L282 362ZM136 -21L87 15L564 696L614 660L136 -21ZM704 164Q704 86 662 40T549 -7Q476 -7 439 35T401 159Q401 198 412 229T443
283T492 317T556 329Q629 329 666 288T704 164Z" />
<glyph unicode="&#x2113;" glyph-name="uni2113" horiz-adv-x="492" d="M335 597Q335 636 321 655T278 675Q244 675 225 647T206 558V393Q274 468 304 513T335 597ZM451 171Q434 78 392 34T278 -10Q206 -10 169 30T131 155V240L48 149L16 202L131 327V553Q131
640 173 687T286 735Q347 735 379 703T412 613Q412 581 399 549T361 481T300 406T206 306V173Q206 107 226 81T286 54Q324 54 347 84T385 184L451 171Z" />
<glyph unicode="&#x2116;" glyph-name="uni2116" horiz-adv-x="987" d="M858 521Q858 540 854 559T841 593T815 617T775 627Q759 627 744 621T716 602T697 568T689 517Q689 497 692 477T705 441T730 415T771 405Q809 405 833 433T858 521ZM460 0H449L255 386Q226
442 202 492T159 591Q160 562 161 516T163 416T164 308T165 209V0H91V675H165H195L381 305Q401 265 425 218T466 131Q465 168 464 214T462 308T461 406T460 498V675H535V0H460ZM635 231V289H914V231H635ZM928 520Q928 481 916 450T882 396T831 361T765 348Q732
348 706 357T660 386T630 439T619 517Q619 553 631 583T664 636T714 670T778 683Q804 683 830 676T879 651T914 601T928 520Z" />
<glyph unicode="&#x2117;" glyph-name="uni2117" horiz-adv-x="753" d="M375 667Q443 667 504 642T611 571T682 465T708 336Q708 268 683 208T611 101T504 29T375 3Q305 3 244 28T137 99T66 205T41 334Q41 402 66 463T138 570T246 641T375 667ZM375 612Q319 612
270 591T182 532T123 443T102 336Q102 280 123 230T182 141T269 81T375 59Q431 59 480 80T567 139T626 228T647 334Q647 390 626 440T568 529T480 590T375 612ZM264 156V507Q320 508 337 508T378 509Q448 509 487 479T527 397Q527 368 515 345T481 304T430 277T368
268Q351 268 342 268T325 270V156H264ZM325 321Q335 320 345 320T370 319Q412 319 437 338T463 391Q463 425 440 442T367 459Q352 459 343 459T325 458V321Z" />
<glyph unicode="&#x2120;" glyph-name="servicemark" horiz-adv-x="702" d="M585 394L562 552L554 608L542 560L491 394H429L380 562L368 608L365 571L339 394H284L327 675H404L453 509L464 461L473 504L526 675H602L645 394H585ZM66 445Q80 439 95 436T127 433Q150
433 164 443T178 474Q178 492 166 499T122 519T74 548T58 595Q58 633 86 656T166 680Q178 680 191 679T218 675L214 630Q202 634 190 635T164 637Q139 637 127 628T115 601Q115 589 123 581T148 566T180 553T208 538T229 515T238 480Q238 440 208 415T124 390Q108
390 93 392T61 397L66 445Z" />
<glyph unicode="&#x2122;" glyph-name="trademark" horiz-adv-x="702" d="M187 628V394H127V628H50V675H262V628H187ZM585 394L562 552L554 608L542 560L491 394H429L380 562L368 608L365 571L339 394H284L327 675H404L453 509L464 461L473 504L526 675H602L645 394H585Z" />
<glyph unicode="&#x2126;" glyph-name="Omega" horiz-adv-x="722" d="M441 0V64Q474 90 500 118T545 179T574 253T585 343Q585 402 571 452T529 539T459 597T361 618Q314 618 274 600T203 546T155 461T137 348Q137 300 145 261T170 189T214 125T281 64V0H46V65H195Q132
110 94 179T55 343Q55 424 79 487T147 594T247 661T370 684Q433 684 487 664T581 602T644 498T667 353Q667 303 655 260T623 181T577 116T522 65H677V0H441Z" />
<glyph unicode="&#x212e;" glyph-name="estimated" horiz-adv-x="807" d="M592 512Q592 538 585 553T558 583Q530 604 489 618T398 633Q348 633 307 619T238 583Q219 569 212 554T204 512V380H592V512V512ZM204 158Q204 132 211 117T238 87Q266 66 307 52T398
37Q476 37 543 74T656 187L699 161Q648 76 568 34T396 -9Q323 -9 261 17T152 90T80 199T54 335Q54 408 81 470T154 579T264 652T400 679Q473 679 535 653T644 580T716 471T742 335H204V158Z" />
<glyph unicode="&#x2153;" glyph-name="onethird" horiz-adv-x="836" d="M130 351V722L32 688L18 748L144 792H204V351H130ZM796 15Q796 -17 784 -43T748 -87T690 -116T614 -126Q592 -126 569 -124T526 -117L534 -56Q552 -62 574 -65T619 -68Q667 -68 693 -47T720
9Q720 50 679 70T556 83V137Q636 137 670 156T704 214Q704 243 684 259T629 275Q583 275 542 256L533 311Q587 331 643 331Q707 331 743 303T779 222Q779 147 703 120Q746 113 771 83T796 15ZM109 -115L58 -79L659 779L709 743L109 -115Z" />
<glyph unicode="&#x2154;" glyph-name="twothirds" horiz-adv-x="917" d="M44 351V406L154 515Q196 558 216 592T236 658Q236 696 216 718T155 740Q130 740 105 733T61 714L49 772Q75 784 107 792T171 800Q239 800 276 765T313 672Q313 625 292 584T223 495L140
413Q174 414 217 414T334 415V351H44ZM191 -115L140 -79L741 779L791 743L191 -115ZM876 15Q876 -17 864 -43T828 -87T770 -116T694 -126Q672 -126 649 -124T606 -117L614 -56Q632 -62 654 -65T699 -68Q747 -68 773 -47T800 9Q800 50 759 70T636 83V137Q716 137
750 156T784 214Q784 243 764 259T709 275Q663 275 622 256L613 311Q667 331 723 331Q787 331 823 303T859 222Q859 147 783 120Q826 113 851 83T876 15Z" />
<glyph unicode="&#x215b;" glyph-name="oneeighth" horiz-adv-x="857" d="M130 351V722L32 688L18 748L144 792H204V351H130ZM109 -115L58 -79L659 779L709 743L109 -115ZM820 -4Q820 -60 778 -93T658 -127Q584 -127 545 -98T505 -14Q505 21 528 49T598 105Q556
128 535 154T514 216Q514 269 554 300T667 332Q736 332 773 304T811 225Q811 192 790 167T726 116Q774 92 797 64T820 -4ZM740 222Q740 250 720 265T662 280Q625 280 605 265T584 222Q584 198 602 180T666 141Q704 162 722 180T740 222ZM749 -11Q749 15 728 36T657
80Q614 55 595 35T576 -10Q576 -41 599 -57T662 -74Q703 -74 726 -57T749 -11Z" />
<glyph unicode="&#x215c;" glyph-name="threeeighths" horiz-adv-x="878" d="M312 484Q312 452 300 426T264 382T206 353T130 343Q108 343 85 345T42 352L50 413Q68 407 90 404T135 401Q183 401 209 422T236 478Q236 519 195 539T72 552V606Q152 606 186 625T220
683Q220 712 200 728T145 744Q99 744 58 725L49 780Q103 800 159 800Q223 800 259 772T295 691Q295 616 219 589Q262 582 287 552T312 484ZM130 -115L79 -79L680 779L730 743L130 -115ZM842 -4Q842 -60 800 -93T680 -127Q606 -127 567 -98T527 -14Q527 21 550 49T620
105Q578 128 557 154T536 216Q536 269 576 300T689 332Q758 332 795 304T833 225Q833 192 812 167T748 116Q796 92 819 64T842 -4ZM762 222Q762 250 742 265T684 280Q647 280 627 265T606 222Q606 198 624 180T688 141Q726 162 744 180T762 222ZM771 -11Q771 15
750 36T679 80Q636 55 617 35T598 -10Q598 -41 621 -57T684 -74Q725 -74 748 -57T771 -11Z" />
<glyph unicode="&#x215d;" glyph-name="fiveeighths" horiz-adv-x="908" d="M61 411Q77 406 98 403T140 399Q188 399 213 423T239 482Q239 521 213 543T126 566Q115 566 100 565T71 562V792H293V731H139V621H157Q231 621 274 587T317 491Q317 425 270 384T137
343Q117 343 95 345T54 352L61 411ZM160 -115L109 -79L710 779L760 743L160 -115ZM872 -4Q872 -60 830 -93T710 -127Q636 -127 597 -98T557 -14Q557 21 580 49T650 105Q608 128 587 154T566 216Q566 269 606 300T719 332Q788 332 825 304T863 225Q863 192 842 167T778
116Q826 92 849 64T872 -4ZM792 222Q792 250 772 265T714 280Q677 280 657 265T636 222Q636 198 654 180T718 141Q756 162 774 180T792 222ZM801 -11Q801 15 780 36T709 80Q666 55 647 35T628 -10Q628 -41 651 -57T714 -74Q755 -74 778 -57T801 -11Z" />
<glyph unicode="&#x215e;" glyph-name="seveneighths" horiz-adv-x="846" d="M809 -4Q809 -60 767 -93T647 -127Q573 -127 534 -98T494 -14Q494 21 517 49T587 105Q545 128 524 154T503 216Q503 269 543 300T656 332Q725 332 762 304T800 225Q800 192 779 167T715
116Q763 92 786 64T809 -4ZM729 222Q729 250 709 265T651 280Q614 280 594 265T573 222Q573 198 591 180T655 141Q693 162 711 180T729 222ZM738 -11Q738 15 717 36T646 80Q603 55 584 35T565 -10Q565 -41 588 -57T651 -74Q692 -74 715 -57T738 -11ZM310 735Q290
694 271 646T233 547T200 446T175 351H95Q108 403 125 458T162 564T201 659T236 730Q230 729 206 729T150 728T90 728T30 728V792H310V735ZM98 -115L47 -79L648 779L698 743L98 -115Z" />
<glyph unicode="&#x2160;" glyph-name="uni2160" horiz-adv-x="259" d="M91 0V675H168V0H91Z" />
<glyph unicode="&#x2161;" glyph-name="uni2161" horiz-adv-x="517" d="M91 0V675H168V0H91ZM350 0V675H427V0H350Z" />
<glyph unicode="&#x2162;" glyph-name="uni2162" horiz-adv-x="776" d="M91 0V675H168V0H91ZM350 0V675H427V0H350ZM608 0V675H685V0H608Z" />
<glyph unicode="&#x2163;" glyph-name="uni2163" horiz-adv-x="872" d="M91 0V675H168V0H91ZM609 0H519L273 675H359L520 223Q532 188 544 149T566 77H567Q576 110 589 148T616 227L777 675H857L609 0Z" />
<glyph unicode="&#x2164;" glyph-name="uni2164" horiz-adv-x="613" d="M350 0H260L14 675H100L261 223Q273 188 285 149T307 77H308Q317 110 330 148T357 227L518 675H598L350 0Z" />
<glyph unicode="&#x2165;" glyph-name="uni2165" horiz-adv-x="872" d="M350 0H260L14 675H100L261 223Q273 188 285 149T307 77H308Q317 110 330 148T357 227L518 675H598L350 0ZM704 0V675H781V0H704Z" />
<glyph unicode="&#x2166;" glyph-name="uni2166" horiz-adv-x="1131" d="M350 0H260L14 675H100L261 223Q273 188 285 149T307 77H308Q317 110 330 148T357 227L518 675H598L350 0ZM704 0V675H781V0H704ZM963 0V675H1040V0H963Z" />
<glyph unicode="&#x2167;" glyph-name="uni2167" horiz-adv-x="1389" d="M350 0H260L14 675H100L261 223Q273 188 285 149T307 77H308Q317 110 330 148T357 227L518 675H598L350 0ZM704 0V675H781V0H704ZM963 0V675H1040V0H963ZM1222 0V675H1299V0H1222Z" />
<glyph unicode="&#x2168;" glyph-name="uni2168" horiz-adv-x="846" d="M91 0V675H168V0H91ZM731 0L548 291L367 0H279L503 349L293 675H381L550 408L716 675H802L596 353L826 0H731Z" />
<glyph unicode="&#x2169;" glyph-name="uni2169" horiz-adv-x="587" d="M472 0L289 291L108 0H20L244 349L34 675H122L291 408L457 675H543L337 353L567 0H472Z" />
<glyph unicode="&#x216a;" glyph-name="uni216A" horiz-adv-x="846" d="M472 0L289 291L108 0H20L244 349L34 675H122L291 408L457 675H543L337 353L567 0H472ZM678 0V675H755V0H678Z" />
<glyph unicode="&#x216b;" glyph-name="uni216B" horiz-adv-x="1105" d="M472 0L289 291L108 0H20L244 349L34 675H122L291 408L457 675H543L337 353L567 0H472ZM678 0V675H755V0H678ZM937 0V675H1014V0H937Z" />
<glyph unicode="&#x216c;" glyph-name="uni216C" horiz-adv-x="425" d="M91 0V675H168V64H418V0H91Z" />
<glyph unicode="&#x216d;" glyph-name="uni216D" horiz-adv-x="590" d="M544 36Q500 17 451 5T350 -7Q275 -7 218 16T124 82T68 186T49 322Q49 400 68 465T127 579T228 655T370 682Q411 682 455 674T536 651L521 582Q480 600 440 608T358 617Q301 617 258 596T186
535T145 445T131 335Q131 203 190 132T367 60Q405 60 449 71T529 100L544 36Z" />
</font>
</defs>
</svg>
